<?xml version="1.0" encoding="UTF-8"?>
<svg id="Layer_1" data-name="Layer 1" xmlns="http://www.w3.org/2000/svg" viewBox="0 0 63.65 64.22">
  <defs>
    <style>
      .cls-1 {
        fill: #fff;
        isolation: isolate;
        stroke: #000;
        stroke-miterlimit: 10;
      }
    </style>
  </defs>
  <path class="cls-1" d="M18.54.95c-2.7,1.2-1.9,4-6,7-2.4,1.8-3.2,1.1-6,3C5.74,11.45-.06,15.25.54,18.95c.3,1.8,1.8,1.9,5,5,3.1,3,6.1,5.8,6,9,0,1.7-2,4.2-6,9-2.6,3.2-3.6,4.1-4,6-.4,2.3.1,5.2,2,7,2.5,2.4,6.4,1.8,11,1,5.5-.9,8-2.6,16-4,2.7-.5,3.8-.6,5,0,2.7,1.3,2.5,4.4,6,8,.5.5,2.1,2.1,4,3,5.7,2.6,12.6-2.1,14-3-2.3-3.2-4.3-7-3-9,.8-1.3,2.3-.7,4-2,3.2-2.5,2.9-8.4,2-12-1.1-4.4-2.8-4-5-9-3-6.9-.6-9.7-4-16-.8-1.6-3.4-6.3-6-6-3.5.4-3.8,9.7-7,10-2.3.2-3-4.2-8-9-.4-.4-8.8-8.4-14-6Z"/>
</svg>