<?xml version="1.0" encoding="UTF-8"?>
<svg id="Layer_1" data-name="Layer 1" xmlns="http://www.w3.org/2000/svg" viewBox="0 0 64.37 64.78">
  <defs>
    <style>
      .cls-1 {
        fill: #fff;
        isolation: isolate;
        stroke: #000;
        stroke-miterlimit: 10;
      }
    </style>
  </defs>
  <path class="cls-1" d="M51.48,4.52c-1.8-4.2-12.1-5.1-14-2-.8,1.3.4,2.4,1,7,.5,3.9.9,7.4-1,9-2.2,1.8-7.1.8-9-2-.9-1.3-1-2.8-1-5,0-5.6,2-7.3,1-9-1.7-2.8-10.2-2.9-13,1-1.2,1.7-.8,5.1,0,12,.6,5.4,1.3,8.2,0,9-1.2.8-3.5-.7-4-1-2.6-1.7-2.7-3.8-4-4-2-.3-4.8,4-6,8s-2,11.7,2,14c1.7,1,4.2,1,6,0,2.4-1.3,2.8-4.1,4-4s1.8,3.1,2,4c2,10-1.7,14.5,1,18,1.8,2.3,5,2.6,10,3,2.5.2,5.1.4,6-1,.7-1.1-.2-2.2-1-6-.8-3.7-1.3-6.1,0-8,1.2-1.7,3.8-2.7,6-2,2.8.9,3.9,4,4,6,0,1.6-.6,1.9-1,5-.4,2.6-.6,3.9,0,5,1.6,3.1,8.9,3.8,11,1,1.2-1.6-.1-3.2-1-9-.7-4.4-1.2-12.2,1-13,1.1-.4,2.9,1.1,4,2,2,1.7,2.1,2.9,3,3,1.7.2,4.1-3.4,5-7,1.7-7.2-2.5-15.2-5-15-1.8.1-2.1,4.6-5,5-1,.2-2.3-.2-3-1-1.3-1.4-.3-3.3,0-8,.3-3.8-.3-3.5,0-7,.4-5.4,1.7-6.3,1-8Z"/>
</svg>