<?xml version="1.0" encoding="UTF-8"?>
<svg id="Layer_1" data-name="Layer 1" xmlns="http://www.w3.org/2000/svg" viewBox="0 0 64.31 65.59">
  <defs>
    <style>
      .cls-1 {
        fill: #fff;
        isolation: isolate;
        stroke: #000;
        stroke-miterlimit: 10;
      }
    </style>
  </defs>
  <path class="cls-1" d="M30.77,8.38c-2.5,0-3.1-3.8-6-6C20.07-1.12,10.27.28,4.77,6.38-.53,12.18.47,19.68.77,21.38c.8,4.6,3.6,11.3,9,13,3.7,1.2,7.2-.6,8,1,.6,1.1-.9,2.6-2,5-2.1,4.5-1.7,9.4-1,12,1.4,5.4,6,10.2,12,12,5.9,1.7,12.6.3,17-4,5.1-5,5-11.8,5-14,0-2.8,0-7.5-2.4-9.8-.2-.2-.8-.8-.6-1.2.3-.8,3.1,0,5,0,5.3,0,9.3-6,10-7,4.2-6.3,4.5-16.9-2-23-7.2-6.6-19.4-4.8-24,0-1.1,1.2-2.2,3-4,3Z"/>
</svg>