<?xml version="1.0" encoding="UTF-8"?>
<svg id="Layer_1" data-name="Layer 1" xmlns="http://www.w3.org/2000/svg" viewBox="0 0 73.13 64.59">
  <defs>
    <style>
      .cls-1 {
        fill: #fff;
        isolation: isolate;
        stroke: #000;
        stroke-miterlimit: 10;
      }
    </style>
  </defs>
  <path class="cls-1" d="M1.39,33.52c-2.9,3.1,1.7,13.5,8,20,7.5,7.7,16.8,9.3,21,10s15,1.8,26-4c9.4-4.9,17.8-14.2,16-18-.6-1.2-3.1-1.8-8-3-7.1-1.7-7.9-.9-10-2-3.7-2-4.2-6.1-7-18C43.39,1.42,42.19.62,41.39.52c-4.6-.7-12.2,19-13,21-3.2,8.4-3,11-6,13-7.2,4.7-17.6-4.6-21-1Z"/>
</svg>