<?xml version="1.0" encoding="UTF-8"?>
<svg id="Layer_1" data-name="Layer 1" xmlns="http://www.w3.org/2000/svg" viewBox="0 0 63.45 63.17">
  <defs>
    <style>
      .cls-1 {
        fill: none;
        stroke: #000;
        stroke-miterlimit: 10;
      }
    </style>
  </defs>
  <path class="cls-1" d="M48.5,13.54H15.5c-1.8-4.9-3-8-3-8h0S9.7,1.44,7.5,1.54c-3,.2-4.7,8.5-5,10-.8,3.7-1.6,7.7,0,12,1.6,4.5,4.5,5.7,4,9-.3,1.9-1.4,2.3-3,5-2.8,4.7-3,9.5-3,11,0,2.1-.1,8.2,4,12,.5.5,3,2.7,5,2,.9-.3,1.4-1.1,3-5,2.2-5.5,2.1-6.1,3-7,1.4-1.3,3-1.1,9-1,8.5.1,7.3-.3,13,0,2.9.1,6.7.4,11,1,.4,1.7,1.1,4.3,3,7,1.3,1.9,3.7,5.4,6,5,2.4-.4,3.5-4.8,4-7,.5-2.1,1.9-8.3-1-15-1.6-3.7-3.6-5.3-3-8,.4-1.9,1.7-2.3,3-4,3.8-4.7,2.4-11.6,1-19-.8-4.3-1.7-8.5-4-9-1.6-.3-3.4,1.4-4,2-1.2,1.2-1.5,2.3-3,6-.4,1.1-1.1,2.8-2,5h0Z"/>
</svg>