<?xml version="1.0" encoding="UTF-8"?>
<svg id="Layer_1" data-name="Layer 1" xmlns="http://www.w3.org/2000/svg" viewBox="0 0 68.84 60.89">
  <defs>
    <style>
      .cls-1 {
        fill: none;
        stroke: #000;
        stroke-miterlimit: 10;
      }
    </style>
  </defs>
  <path class="cls-1" d="M55.37,21.24c.8-1.8,3.1-2.9,5-3,3.2-.1,4.5,2.6,6,2,2.1-.8,3.1-7.2,0-10-2.5-2.2-6.7-1.3-9,0-3,1.6-3.1,3.8-5,4-2.6.2-3.9-3.8-7-7C38.27-.26,24.27-1.36,20.37,3.24c-1.3,1.5-.7,2.8-3,6-1.6,2.2-2.8,2.9-5,5,0,0-3.4,3.3-6,7-3.5,5.1-4.2,10.2-5,16-.9,6.7-1.4,10.1,0,13,2.9,6,10.4,7.7,16,9,5.9,1.3,17.5,2.4,22-2,.6-.5,2.3-2.4,5-3,1.9-.4,2.7,0,4,0,5-.4,10.1-9.2,10-17,0-3.1-.9-6.5-1-7-1.3-5-3-6.8-2-9Z"/>
</svg>