<?xml version="1.0" encoding="UTF-8"?>
<svg id="Layer_1" data-name="Layer 1" xmlns="http://www.w3.org/2000/svg" viewBox="0 0 75.37 52.05">
  <defs>
    <style>
      .cls-1 {
        fill: none;
        stroke: #000;
        stroke-miterlimit: 10;
      }
    </style>
  </defs>
  <path class="cls-1" d="M45.52,37.5c-2.8-1.1-.6-8.9-3-22-.6-3.4-2.8-14.8-6-15-4.6-.2-7.7,22.1-14,22-1.7,0-3.8-1.7-8-5-2.5-2-3.4-3.1-5-3-2.3.1-4.4,2.6-5,5-.5,2,.2,3.7,1,6,1.6,4.2,3.7,6.1,3,7-.6.7-2.1-.6-4,0-2.8.8-4.2,5.5-4,9,0,.7.2,6,3,7,.6.2,1.7.4,9-4,3.9-2.3,4.5-2.9,6-3,2.6-.1,3.4,1.5,7,3,4.8,2,6,.3,11,2,5.6,1.9,5.6,4.5,9,5,2.3.3,5.9-.4,15-11,8.1-9.4,14-20,14-20,0,0,.8-3.3,0-4-1.4-1.3-10.3,5-19,13-6.4,5.9-8.2,8.7-10,8Z"/>
</svg>