<?xml version="1.0" encoding="UTF-8"?>
<svg id="Layer_1" data-name="Layer 1" xmlns="http://www.w3.org/2000/svg" viewBox="0 0 61.29 63.12">
  <defs>
    <style>
      .cls-1 {
        fill: none;
        stroke: #000;
        stroke-miterlimit: 10;
      }
    </style>
  </defs>
  <path class="cls-1" d="M27.54,10.52c.4-2.5,4.9-2.7,5-5,0-2.4-4.6-5.3-9-5-5.2.4-9.8,5.4-9,8,.7,2.4,5.6,1.2,7,4,2.7,5.2-10.3,17.4-11,18C4.54,36.12.04,37.82.54,40.52c.4,2.2,3.9,4.3,7,4,9.6-.8,13.4-23.6,16-23,1.5.4,2.5,8.7-1,16-3.1,6.4-7.3,7.3-7,11,.3,3.1,4.2,5.4,12,10,5.1,3,7.7,4.5,10,4,2-.4,3.1-1.7,9-11,6-9.4,6.5-10.5,6-12-1.2-3.7-6.4-2.7-13-8-5.9-4.8-8.8-11.3-8-12,.7-.6,4.8,3.9,14,9,6.2,3.4,8.3,3.6,10,3,3.5-1.2,6.1-5.8,5-8-1.4-2.8-7.5.2-17-2-8.7-2-16.6-7.5-16-11Z"/>
</svg>