<?xml version="1.0" encoding="UTF-8"?>
<svg id="Layer_1" data-name="Layer 1" xmlns="http://www.w3.org/2000/svg" viewBox="0 0 64.01 64.08">
  <defs>
    <style>
      .cls-1 {
        fill: none;
        stroke: #000;
        stroke-miterlimit: 10;
      }
    </style>
  </defs>
  <path class="cls-1" d="M32.15,13.58c-1.9-.2-1.8-4.3-5-8C24.05,2.08,18.95.08,15.15.58,5.15,1.78-3.15,21.18,2.15,32.58c2.7,5.8,9.5,10.8,14,14,4.2,3,6.2,3.7,9,7,4.5,5.3,4.9,10,7,10s2.3-4.7,6-10c3.6-5.1,6.6-5.5,12-10,4-3.4,11.4-9.5,13-18,1.9-9.9-4-22.6-12-24-4.4-.8-9.8,1.9-13,5-3.5,3.4-4.1,7.2-6,7Z"/>
</svg>