<?xml version="1.0" encoding="UTF-8"?>
<svg id="Layer_1" data-name="Layer 1" xmlns="http://www.w3.org/2000/svg" viewBox="0 0 62.91 64.03">
  <defs>
    <style>
      .cls-1 {
        fill: none;
        stroke: #000;
        stroke-miterlimit: 10;
      }
    </style>
  </defs>
  <path class="cls-1" d="M44.77,38.5c.7-3,4.5-4.8,7-6,4.3-2.1,5.9-1,8-3,2.4-2.2,3.4-6.4,2-10-.2-.5-1.7-4.2-5-5-4.5-1-8,4.3-10,3-1.6-1,.4-4.3-1-9-1-3.5-3.9-7.9-7-8-3.9,0-3.8,6.6-10,10-7,3.8-13.8-1.1-17,3-1.9,2.4-1.2,6.2-1,7,.8,4.4,3.9,5.1,4,8,0,3.2-3.7,4-8,9-1.6,1.9-7.6,8.9-6,16,.7,3.2,3.2,7.1,7,8,3,.7,5.6-.8,6-1,3-1.7,2.6-4,6-7,1.8-1.6,3.9-3.4,6-3,2.8.6,2.5,4.4,7,9,1.9,2,3.6,3.7,6,4,5.4.6,12.5-6.7,12-13-.4-5.7-7-7.7-6-12Z"/>
</svg>