<?xml version="1.0" encoding="UTF-8"?>
<svg id="Layer_1" data-name="Layer 1" xmlns="http://www.w3.org/2000/svg" viewBox="0 0 63.56 57.65">
  <defs>
    <style>
      .cls-1 {
        fill: none;
        stroke: #000;
        stroke-miterlimit: 10;
      }
    </style>
  </defs>
  <path class="cls-1" d="M53.01,54.07c4.6,0,10.7-11.7,10-23-.7-11.5-8.4-24.5-22-29-12.7-4.2-25.1.7-32,7C3.21,14.37-.99,22.67,1.01,25.07c1,1.2,3.3.5,4,2,.7,1.6-1.8,2.9-2,6-.2,2.8,1.6,5.9,4,7,2.2,1.1,3.5-.2,5,1,1.3,1.1.7,2.4,2,6,.9,2.3,1.4,3.9,3,5,2.1,1.4,4.6,1.1,6,1,2.5-.3,2.5-1,4-1,3.6,0,4.1,4.3,8,5,3,.5,5.9-1.3,7-2,2.3-1.5,2.3-2.5,4-3,2.9-.8,4.7,2,7,2Z"/>
</svg>