<?xml version="1.0" encoding="UTF-8"?>
<svg id="Layer_1" data-name="Layer 1" xmlns="http://www.w3.org/2000/svg" viewBox="0 0 63.93 62.45">
  <defs>
    <style>
      .cls-1 {
        fill: #fff;
        isolation: isolate;
        stroke: #000;
        stroke-miterlimit: 10;
      }
    </style>
  </defs>
  <path class="cls-1" d="M34.12,43.51c.9-.4,2.2,3.4,6,6,3.4,2.3,8.1,3.1,12,2,7.9-2.2,12.6-12.4,11-20-1.3-6.5-7.1-10.7-13-15-4.9-3.6-6.5-3.3-10-7C35.42,4.71,34.42.31,32.12.51c-2,.2-2.2,3.3-5,7-3.4,4.4-6.7,4.7-12,8-4.2,2.6-11.9,7.3-14,15-1.9,7,.5,17,8,21,5.6,3,12,1.4,15,0,1.1-.5,2.7-1.3,4-3,1.8-2.5,1.5-5,2-5,.6,0,1.9,4,1,8-.3,1.4-.9,2.6-2,5-1.6,3.5-2.4,4.3-2,5,.6,1,2.6,0,7,0s6.6.8,7,0c.3-.7-1.2-1.5-3-4-1.7-2.4-2.5-4.6-3-6-1.1-3-2-7.6-1-8Z"/>
</svg>