<?xml version="1.0" encoding="UTF-8"?>
<svg id="Layer_1" data-name="Layer 1" xmlns="http://www.w3.org/2000/svg" viewBox="0 0 42.31 94.91">
  <defs>
    <style>
      .cls-1 {
        fill: #fff;
        isolation: isolate;
        stroke: #000;
        stroke-miterlimit: 10;
      }
    </style>
  </defs>
  <path class="cls-1" d="M27.56,27.39h0c-1.1-4.2-1.2-7.6-1-10,.2-2.3.5-3.4,1-8,.8-7,.3-7.7,0-8-2.2-2.3-8.2.4-12,2-4.1,1.8-7.8,3.4-8,6,0,1.1,1.3,3.1,4,7,1.6,2.3,1.7,2.3,2,3,1.1,2.6,1,6.4-1,9-3.1,4-8.4,1.8-11,6-1.2,2-1.1,4.2-1,5,.2,2.8,1.6,3.5,4,8,2.4,4.6,2.7,7,4,7,1.2,0,3.3-1.8,3.7-3.5,0-.2,0-.4.3-.5.7-.4,2.6,1.5,3,2,4.4,4.7,0,22.5,0,32v6h0c.3,1.7.9,3.8,2,4,2.2.4,5.3-6.5,6-8,2.5-5.6,5.6-12.7,4-20-.3-1.4-1-3.7,0-6,.7-1.7,1.8-2.2,4-4,.7-.5,5-4.1,8-9,1.6-2.5,2.8-4.5,2-6-.8-1.6-3-.9-5-3-2.1-2.1-1.7-4.9-3-5-1.1-.1-1.7,2-3,2s-2.3-2.1-3-4v-4Z"/>
</svg>