<?xml version="1.0" encoding="UTF-8"?>
<svg id="Layer_2" data-name="Layer 2" xmlns="http://www.w3.org/2000/svg" viewBox="0 0 12.49 17.48">
  <defs>
    <style>
      .cls-1 {
        fill: none;
        fill-rule: evenodd;
        stroke: #000;
        stroke-miterlimit: 10;
        stroke-width: .25px;
      }
    </style>
  </defs>
  <g id="Layer_1-2" data-name="Layer 1">
    <path class="cls-1" d="M.49.42c.13-.05.27-.1.4-.16.09-.04.19-.07.28-.11.05-.02.11-.03.17-.03.22,0,1.25,0,1.25,0l.05.07c.33.46.15,1.14-.05,1.39-.06.08-.14.13-.21.17.07.18.09.37.09.57,0,.28.03.55.05.84,0,.1.01.2.02.3.04.03.08.07.11.14.07.19.22.34.38.49.13.12.27.24.36.41,0,0,0,0,0,0,.05.02.1.04.15.07.13.06.26.12.38.14.2.04.41.07.61.1.19.03.39.06.58.09.05.01.1.03.15.05.06.03.11.06.17.1.04.02.07.05.11.07h.59c.03.08.68.82.71.89.04.04.06.08.08.11.01.03.28.48.3.51.13.23.27.47.4.7.01.02.05.05.06.07,0,0,0,0,0,0,.01.01.03.02.04.03.01.01.03.03.04.04,0,0,0,0,0,0,.08-.04.14-.08.21-.12.06-.04.13-.08.2-.12.02-.02.05-.02.06-.04.02-.02.02-.02.04-.04.01-.01.03-.03.05-.04.02-.02.04-.04.06-.06.1-.1.19-.2.28-.3.04-.17.12-.3.23-.42.11-.15.37-.29.53-.37.02-.01.05-.02.07-.03.07-.03.14-.12.22-.19,0,0,.06-.07.07-.07.05-.05.1-.11.15-.18.03-.03.05-.07.08-.11,0,0,.05-.06.05-.06,0,0,.08-.02.08-.02.08-.02.15-.05.22-.09.1-.06.19-.14.3-.24.03-.03.07-.06.11-.1.08-.06.17-.11.27-.13.05,0,.1-.02.15-.03.18-.03.37-.06.55-.08,0,0,0,0,.01,0,0,0,0,0,.01,0,0,0,.11-.01.12-.02,0,0,0,0,0,0,.01,0,.05-.16.06-.17l.06-.18.18.06s.06.05.07.05c.01,0,.01.01.02.02,0,0,0,0,0,0,.06.03.04.09.08.13.03.08.02.16,0,.26-.02.1-.07.2-.13.32,0,.05-.09.13-.1.18,0,.01-.02.03-.03.05,0,0-.02.05-.03.05,0,0-.04.04-.05.04-.02.01-.04.03-.06.04-.06.04-.11.08-.17.11-.06.03-.11.06-.17.08-.05.02-.09.04-.14.05-.03,0-.06.02-.09.03-.02,0-.07.02-.09.02-.02,0-.03,0-.05.01-.01,0-.03,0-.04,0-.09.02-.18.04-.28.05,0,0-.04,0-.05,0-.06,0-.12.02-.17.04-.01,0-.04.01-.05.02-.01.01-.02.02-.03.03-.03.03-.05.06-.07.11-.01.03-.02.06-.03.1,0,.03-.01.06-.02.09,0,.05-.01.1-.02.15,0,0,0,0,0,.01,0,.03,0,.07-.01.1,0,.04-.01.07-.02.11,0,.01,0,.03,0,.04,0,.02-.01.04-.02.06,0,.02-.01.03-.02.05-.02.06-.03.12-.05.18-.03.04,0,.1-.03.14,0,.04-.01.08-.02.13,0,.01,0,.03,0,.04,0,0,0,.01,0,.02,0,.01,0,.04,0,.05-.02.04-.06.1-.09.13-.06.08-.11.15-.19.22-.01.01-.03.03-.04.04-.03.03-.08.07-.12.1-.02.01-.04.03-.07.04-.06.03-.11.06-.16.09-.03.01-.06.05-.08.06-.06.05-.15.11-.21.2-.01.02-.03.04-.05.05-.02.01-.03.03-.04.04-.02.03-.05.07-.07.09-.04.05-.09.1-.1.15,0,.01-.08.2-.08.21-.01.05-.03.1-.05.15-.02.04-.04.09-.06.13,0,.01,0,.02-.01.03-.02.06-.05.13-.05.21,0,.07-.04.13-.05.19,0,.02,0,.04,0,.06,0,.04-.01.06,0,.1,0,.04,0,.08-.01.12,0,.1-.02.19-.03.29,0,.02,0,.04,0,.06,0,.02-.01.04-.01.06,0,.04-.01.07-.02.11,0,.02,0,.03,0,.05,0,.02,0,.04,0,.06,0,.08.03.16.05.26,0,.01,0,.02,0,.04,0,0,0,.02,0,.02.05.04.09.08.12.14.01.02.02.04.03.06,0,0,0,.02.01.03.02.04.03.09.04.13.01.06.03.12.04.18.01.04.02.11.03.15,0,.05.02.12.02.17,0,.04.01.11.01.16,0,.03,0,.1,0,.13,0,.05-.02.16-.02.22,0,.02,0,.04-.01.06-.02.07-.03.18-.05.25,0,0,0,.02,0,.04,0,.03,0,.05,0,.06,0,0-.05.05-.05.06,0,0-.01.02-.02.02-.02.03-.04.05-.05.08-.02.04-.05.07-.07.11-.02.03-.05.07-.08.1-.02.02-.03.04-.05.06-.03.03-.05.08-.09.11-.05.03-.11.1-.18.12,0,0-.02.01-.04.01-.02,0-.04.01-.06.02-.1.03-.19.08-.27.13-.03.02-.06.03-.09.05-.03.02-.07.05-.1.07,0,.01-.02.03-.02.04-.04.07-.07.13-.12.19-.02.02-.04.04-.05.07-.02.04-.03.07-.04.12,0,.02,0,.05,0,.08,0,0,0,.02,0,.02l.03.11.02.17.02.16s0,.06,0,.06c0,0,.01.15.02.16.02.03,0,.36,0,.37v.08s-.03.12-.03.12l-.02.1s0,.03,0,.03c0,.01,0,.24-.02.25v.03s-.01.04-.01.04c.02.02.02.03.03.05.06.07.07.13.13.2.19.17.14.3.12.49,0,.08-.06.12-.11.23l-.05.06h-.09s-.03.02-.03.02c-.07,0-.11-.03-.14-.07l-.11.45-.12-.31s-.13-.26-.13-.27c0,0-.1-.05-.1-.05,0,0-.11.21-.11.2,0,0-.17-.11-.17-.11,0,0-.02-.01-.02-.02-.04-.02-.12-.08-.12-.19,0-.07,0-.14-.01-.21,0-.03,0-.06,0-.09,0-.02,0-.05,0-.08,0-.02,0-.03,0-.05,0-.12,0-.24.02-.36.07-.28.06-.56-.02-.9-.02-.09-.06-.19-.08-.27-.07-.2-.14-.4-.14-.62-.03-.04-.05-.08-.06-.12-.06-.17-.08-.32-.07-.48v-.29c.02-.14.02-.32.03-.46,0-.01,0-.03,0-.05-.01,0-.02-.02-.03-.02-.05-.03-.09-.07-.14-.1-.04-.03-.08-.07-.12-.11-.03-.04-.06-.08-.08-.13,0,.03-.02.05-.03.08-.07.17-.15.32-.42.3-.03,0-.06,0-.09-.01-.1-.02-.2-.05-.3-.08-.02,0-.04-.01-.06-.02,0,0-.18.1-.18.09,0,0-.25.14-.25.13,0,0-.17.09-.17.09-.02.02-.06.04-.11.06,0,0-.02,0-.03,0-.12.03-.24.06-.35.1-.05.02-.11.05-.16.07-.05.03-.11.08-.16.13-.04.04-.08.08-.11.12,0,.01-.2.33-.19.34,0,0,.01.06.01.06,0,0,.08-.03.08-.03,0,.01.37.28.48.36.02.02.03.03.03.04,0,0-.08.07-.13.12-.03.03-.05.06-.05.06.03.04.05.08.07.12.02.04.03.07.04.11.03.12.02.25-.07.4-.01.02-.03.05-.04.07,0,0-.01.02-.02.02,0,0-.05.06-.05.06,0,0-.13,0-.14,0-.04,0-.08,0-.12,0-.06,0-.11,0-.17,0-.1,0-.19,0-.28-.02-.08-.02-.15-.04-.21-.07-.12-.05-.23-.1-.33-.15-.09-.04-.17-.09-.25-.13-.03-.02-.06-.03-.09-.05-.02-.02-.05-.03-.07-.04-.03-.02-.06-.04-.09-.06-.02-.01-.04-.02-.06-.03-.1-.05-.22-.09-.32-.14-.02-.01-.05-.02-.07-.03-.02,0-.05-.02-.07-.03-.01,0-.03-.02-.05-.02-.05-.03-.11-.06-.15-.09-.02-.02-.03-.04-.05-.06,0,0-.04-.06-.04-.06,0,0-.01-.05,0-.05-.03-.14-.01-.27.04-.4.02-.06.05-.12.09-.18.04-.06.1-.12.16-.17.04-.04.08-.07.12-.11,0,0,.02-.02.02-.02.05-.04.12-.09.17-.13.05-.04.09-.08.14-.11.03-.02.05-.03.08-.05,0,0,0,0,0,0,0,0,0,0,.01,0,.08-.05.16-.1.26-.12.03,0,.07-.01.1-.02,0,0,0,0,0,0,0,0,0,0,0,0,.02-.03.05-.05.08-.08.04-.04.1-.08.16-.1.07-.02.14-.05.21-.09.03-.02.07-.04.1-.06,0,0,.02-.01.03-.02.05-.04.13-.08.18-.12.02-.02.05-.04.06-.06,0,0,.06-.05.06-.06.05-.05.12-.11.17-.16.03-.04.07-.08.1-.12.04-.05.09-.1.13-.15.05-.06.08-.14.13-.21.04-.05.06-.12.11-.17,0,0-.02-.04-.02-.04h0s-.02-.03-.05-.06c-.05-.06-.13-.14-.13-.15,0,0-.1-.12-.11-.12,0,0,.05-.1.05-.1.06-.14.12-.28.16-.44.02-.07.04-.15.06-.22.04-.17.06-.35.07-.53,0-.07,0-.15,0-.22,0-.07,0-.15,0-.22,0-.07-.02-.15-.03-.22,0,0,0,0,0,0,0-.04-.02-.08-.02-.12-.02-.03-.05-.06-.08-.09-.08-.09-.16-.17-.25-.25-.03-.03-.06-.05-.09-.07-.04-.03-.07-.06-.11-.08-.04-.03-.09-.06-.13-.09-.02-.01-.04-.02-.05-.03-.02-.01-.04-.02-.05-.03-.02-.01-.04-.02-.06-.03,0,0-.02-.01-.03-.02-.03-.02-.07-.04-.1-.06-.06-.04-.12-.1-.16-.17,0,0,0-.01-.01-.02-.03-.05-.09-.1-.13-.14,0,0-.02-.02-.02-.02-.06-.05-.13-.1-.2-.15-.06-.04-.11-.08-.17-.12-.02-.01-.03-.02-.05-.04-.02-.02-.04-.03-.07-.05-.04-.03-.09-.06-.13-.09-.02-.02-.05-.03-.07-.05-.05-.03-.09-.07-.14-.1,0,0-.02-.01-.03-.02-.01-.01-.03-.02-.04-.03,0,0-.02-.01-.03-.02-.08-.06-.17-.13-.25-.21-.02-.02-.04-.03-.06-.05-.02-.02-.04-.04-.06-.06-.02-.02-.04-.04-.06-.06-.04-.05-.11-.13-.17-.18,0,0-.01-.02-.02-.02-.04-.04-.08-.1-.13-.14-.02-.02-.03-.03-.05-.05-.06-.06-.12-.14-.16-.23-.01-.03-.02-.05-.03-.08,0-.03-.02-.05-.02-.08-.01-.03,0-.05-.01-.08,0-.05,0-.1,0-.15,0-.09.02-.19.05-.29.02-.05.04-.09.07-.14.02-.04.05-.07.08-.11.02-.02.04-.05.07-.07.06-.06.1-.11.12-.17,0-.02.02-.04.03-.06.02-.06.03-.11.03-.18,0-.04,0-.08.01-.11.01-.06.03-.12.05-.18,0-.03.02-.06.03-.09,0-.03.02-.06.03-.09,0,0,.03-.09.04-.09.02-.06.04-.12.06-.18,0-.02.02-.04.02-.06.01-.04.03-.08.04-.11,0-.02.02-.05.03-.07,0-.02.01-.03.02-.05.01-.04.03-.08.04-.11,0,0,.01-.05.02-.04,0,0,0-.01,0-.01,0,0,.01-.04.01-.04l.03-.14v-.11s0-.05,0-.07c0-.02.02-.05.03-.08,0-.01.02-.03.02-.04.02-.05.03-.1.05-.14,0,0,0,0,0,0,0-.01,0-.02,0-.03,0-.05-.01-.14-.04-.2-.01-.03,0-.06-.02-.09,0,0,0,0,0,0-.03-.05-.06-.11-.1-.17h0c-.07-.03-.15-.07-.2-.11-.02,0-.05-.03-.07-.04-.11-.04-.24-.15-.33-.15-.07,0-.16-.02-.23.03,0,0-.01,0-.01,0l-.09.04h-.02s-.09-.09-.09-.09c0,0,0,0,0,0-.22-.16-.28-.51-.27-.69,0,0,0-.02,0-.02v-.03s.01-.03.01-.03c.08-.17.16-.39.35-.46Z"/>
  </g>
</svg>