<?xml version="1.0" encoding="UTF-8"?>
<svg id="Layer_2" data-name="Layer 2" xmlns="http://www.w3.org/2000/svg" viewBox="0 0 9.76 13.19">
  <defs>
    <style>
      .cls-1 {
        fill: none;
        fill-rule: evenodd;
        stroke: #000;
        stroke-miterlimit: 10;
        stroke-width: .25px;
      }
    </style>
  </defs>
  <g id="Layer_1-2" data-name="Layer 1">
    <path class="cls-1" d="M1.49.52s.14-.09.18-.11c.03-.01.1-.07.13-.08.02,0,.06-.03.08-.03.03,0,.19-.08.27-.08.13-.03.26-.06.28-.09,0,0,.02.01.03,0,.17.07.18.21.18.22,0,.01-.02.01-.03.01.05.03.08.06.11.1.04.05.08.09.13.14.02.02.03.03.05.05.02,0,.04,0,.06.02.05.03.13.05.2.07.07.01.14.01.19.05,0,0,0,0,0,0,.02,0,.05,0,.07,0,.06,0,.12,0,.18,0,.09-.01.18-.03.28-.05.09-.02.17-.03.26-.05.05,0,.1,0,.15,0,.02,0,.04,0,.05,0,.03-.02.24-.05.27-.07.11-.09.43.03.57-.06.03,0,.05,0,.07,0,.07-.04.22.05.3.01.15.01.31.04.47.07.03,0,.05.01.08.02,0,0,0,0,0,0,.14-.06.29-.11.44-.16.12-.04.24-.07.36-.1.03-.02.07-.03.11-.04.17-.05.38-.06.57-.03.05,0,.11,0,.16,0,.01,0,.04,0,.05,0,.04,0,.07,0,.11,0,.02,0,.04,0,.06,0,0,0,.03,0,.04,0,0,0,.04,0,.05.02.11.05.22.07.32.1.06.02.14.04.21.09.12.08.24.16.35.26,0,.02.05.03.06.05.03.05.06,0,.09.06.03.07.11.16.14.23.27.41.36.85.4,1.31,0,.02,0,.05,0,.07,0,.02,0,.05,0,.06,0,.37-.05.7-.16,1,0,.01-.01.03-.01.04-.02.07-.04.13-.07.2-.05.19-.08.42-.11.66,0,.07-.02.14-.02.21-.02.16-.04.32-.06.48-.05.31-.09.63-.16.95-.04.19-.13.36-.22.52-.02.05-.05.1-.07.16-.01.03-.02.05-.03.08-.03.07-.05.13-.07.19,0,.03-.03.12-.04.15-.03.13-.06.26-.09.39-.01.06-.02.12-.03.19-.01.1-.02.21-.03.31,0,.1-.02.2-.02.31,0,.05,0,.1,0,.16,0,.01,0,.03,0,.04.03.06.04.14.05.22,0,.08-.01.14-.04.2-.02.04-.03.07-.05.1,0,.02-.02.03-.03.05-.01.03-.03.06-.05.08,0,0,0,.01-.01.02-.02.09-.05.18-.08.27,0,.01-.01.05-.02.06,0,.01-.03.03-.04.04-.04.04-.08.09-.11.13-.09.11-.18.22-.3.3-.07.05-.15.12-.22.18-.02.02-.05.04-.07.05,0,0-.01.02-.02.03-.03.04-.06.08-.1.12-.05.05-.08.1-.1.16-.15.18-.33.89-.52,1.05,0,.01,0,.02,0,.04-.01.05-.03.1-.03.15-.02.17-.11.31-.28.51-.19.13-.39.29-.57.43,0,0-.04.02-.05.02,0,0-.01,0-.01,0-.03,0-.06,0-.08,0-.03.02-.1.19-.13.21-.04.03-.16-.12-.19-.09,0,0-.04,0-.05,0-.02.01-.06.09-.08.1-.01,0-.07-.01-.08,0,0,0-.01,0-.01,0-.02,0-.06,0-.07-.02,0-.01-.02-.03-.03-.04-.03-.04-.07-.07-.1-.11-.03-.06-.09-.12-.18-.22-.01-.01-.02-.02-.03-.03-.02-.02-.03-.03-.05-.04-.04-.03-.07-.07-.11-.1-.02-.02-.04-.05-.06-.08-.09-.06-.14-.13-.18-.19-.02,0-.03-.08-.05-.08-.03-.04-.05-.09-.08-.13,0,0,0,0-.01-.01,0,0-.01,0-.02,0-.02,0-.04-.01-.06-.02-.04-.01-.07-.02-.1-.04-.02-.01-.04-.02-.06-.03,0,0-.02.02-.03.03-.07.06-.13.11-.25.12-.02,0-.03,0-.05,0-.05,0-.11,0-.16-.01-.01,0-.02,0-.03,0-.03,0-.16.07-.19.07-.02,0-.12.05-.14.05-.02,0-.04.01-.06.02,0,0-.01,0-.01,0-.15.02-.29.04-.42.1-.03,0-.11.08-.14.08,0,0,0,.01,0,.01,0,0,.01-.01,0-.02-.04-.01.08.08.03.06-.02,0-.09.04-.11.03,0,.05-.03.08-.13.15,0,0-.02.02-.03.01,0,0-.06,0-.07-.01-.04,0-.09-.02-.13-.03-.08-.02-.16-.05-.22-.09-.15-.09-.28-.17-.39-.26-.05-.04-.11-.07-.17-.1-.05-.03-.11-.06-.16-.1-.02-.01-.03-.03-.05-.04,0,0-.04-.03-.05-.04,0,0-.02-.03-.02-.03-.13-.17-.2-.35-.23-.5,0-.03,0-.05-.02-.08-.04-.17-.06-.36-.06-.48h0s0,0,0-.01c0-.06-.01-.12-.01-.16,0-.1,0-.24-.01-.38,0-.01,0-.04,0-.05,0-.17-.02-.36-.02-.55,0-.05,0-.09,0-.14-.03-.08-.17-.27-.2-.35,0-.02,0-.07,0-.09,0-.26-.02-.54-.04-.83-.02-.29-.02-.59,0-.89-.04-.22-.07-.43-.1-.62,0-.03-.01-.05-.01-.08-.01-.09-.03-.18-.03-.3,0-.06,0-.11,0-.17,0-.06,0-.12-.01-.18,0-.04,0-.09,0-.14,0-.07,0-.13-.01-.19,0-.06,0-.12-.01-.18,0-.14-.01-.28-.01-.43,0-.09-.01-.17-.02-.26-.02-.18-.04-.39,0-.64,0-.05.01-.1.02-.15.02-.12.06-.23.12-.35.06-.11.09-.21.11-.33.02-.12.07-.25.11-.36,0-.02.02-.06.03-.08.06-.15.12-.3.18-.45.03-.04.07-.18.09-.22.01-.03.02-.06.04-.1.08-.15.12-.27.14-.43,0,0,0,0,0,0,0-.04,0-.09,0-.13,0-.05,0-.11,0-.15,0-.03,0-.05,0-.06.01-.02,0,0,0-.02.01-.01,0-.05,0-.07,0-.13.07-.29.15-.41,0,0,0-.01,0-.02,0,0,0-.01.01-.02.08-.11.18-.21.3-.29Z"/>
  </g>
</svg>