<?xml version="1.0" encoding="UTF-8"?>
<svg id="Layer_2" data-name="Layer 2" xmlns="http://www.w3.org/2000/svg" viewBox="0 0 9.84 13.51">
  <defs>
    <style>
      .cls-1 {
        fill: none;
        fill-rule: evenodd;
        stroke: #000;
        stroke-miterlimit: 10;
        stroke-width: .25px;
      }
    </style>
  </defs>
  <g id="Layer_1-2" data-name="Layer 1">
    <path class="cls-1" d="M2.34,1.65s.11-.09.13-.1c.01,0,.08-.06.09-.07,0,0,.04-.03.05-.03.01,0,.15-.1.18-.1.08-.04.16-.07.19-.11,0,0,.02,0,.02,0,.13-.02.18-.01.24-.06,0,0,.01-.01.02-.02.04,0,.08-.01.11-.02.05,0,.1-.02.15-.03.02,0,.04,0,.05,0,.01,0,.03,0,.04-.01.05,0,.1-.02.16-.04.05-.01.1-.03.14-.03h0s.03-.01.05-.02c.04-.01.08-.03.12-.05.06-.03.13-.06.19-.08.06-.03.12-.05.18-.08.04-.02.07-.02.11-.03.01,0,.03,0,.04-.01.04-.03.15-.06.19-.09.13-.1.37-.13.55-.23.02,0,.05-.01.07-.02.09-.05.21-.04.3-.08.15-.03.31-.05.48-.06.03,0,.05,0,.08,0,0,0,0,0,0,0,.14-.04.28-.07.43-.09.12-.02.24-.03.36-.03.04,0,.08,0,.13,0,.19,0,.38.03.56.09.05.02.1.03.16.05.01,0,.03,0,.05.02.04.01.07.03.11.04.02,0,.04.02.06.03.01,0,.03,0,.04.02.01,0,.03.01.04.02.1.06.2.12.29.19.06.04.12.09.19.16.1.1.19.21.29.33.01.02.03.04.04.06.03.06.07.08.1.15.04.09.1.18.13.26.23.47.36.94.43,1.4,0,.02,0,.05.01.07,0,.02,0,.05,0,.07.04.4.03.79-.02,1.15,0,.02,0,.03,0,.05-.01.08-.03.16-.04.24-.02.23-.03.47-.04.73,0,.08,0,.15,0,.23,0,.17-.01.35-.02.52-.02.34-.04.69-.09,1.03-.03.17-.08.34-.13.49-.02.05-.03.1-.05.15,0,.02-.01.05-.02.07-.02.06-.03.11-.05.17,0,.04-.02.1-.03.14-.03.12-.06.23-.08.35-.01.05-.02.11-.03.16-.02.09-.03.18-.05.27-.02.09-.03.18-.04.27,0,.05-.01.09-.02.14,0,.01,0,.02,0,.04,0,.07,0,.14,0,.21,0,.07-.04.13-.07.17-.02.03-.05.06-.07.08-.01.01-.03.03-.04.04-.02.02-.04.04-.07.06,0,0,0,0-.01.01-.03.08-.06.16-.09.23,0,.01-.01.04-.02.05,0,.01-.02.03-.03.04-.03.04-.06.09-.09.13-.07.1-.15.21-.23.3-.06.06-.11.12-.17.18-.02.02-.04.04-.05.06,0,0-.01.02-.02.02-.03.04-.06.07-.09.11-.04.04-.07.09-.1.14-.19.22-.4.67-.63.87,0,.01-.01.02-.02.03-.03.04-.06.09-.09.13-.09.14-.22.26-.39.42-.23.15-.46.34-.68.5,0,0-.03.01-.04.02,0,0,0,0-.01,0-.02,0-.04.01-.06.02-.03.03-.09.11-.12.14-.04.03-.12,0-.17.02,0,0-.03,0-.04.01-.02.01-.05.06-.07.07-.01,0-.05,0-.06.01,0,0,0,0,0,0-.02,0-.05.01-.06.01-.01,0-.02,0-.03,0-.04,0-.08,0-.12,0-.06,0-.13-.03-.22-.06-.01,0-.02,0-.03-.01-.02,0-.03-.01-.05-.02-.04-.01-.07-.03-.11-.05-.02-.01-.05-.02-.07-.03-.08-.03-.14-.06-.2-.09-.02,0-.05-.04-.07-.04-.04-.02-.07-.04-.11-.06,0,0,0,0-.01,0,0,0-.01,0-.02,0-.02,0-.03,0-.05,0-.03,0-.06-.01-.08-.02-.02,0-.03,0-.05-.01,0,0-.02,0-.03.01-.06.03-.13.05-.21.06-.01,0-.03,0-.04,0-.04,0-.08,0-.12,0,0,0-.02,0-.02,0-.04,0-.12.03-.15.03-.03,0-.09.02-.12.02-.01,0-.03,0-.05,0,0,0,0,0-.01,0-.12,0-.23,0-.34.02-.03,0-.09.03-.12.02,0,0,0,0-.01,0,0,0,0,0-.01-.01-.05-.02-.03.01-.08-.01-.02,0-.06,0-.08,0-.04,0-.09,0-.18,0,0,0-.02,0-.02,0,0,0-.04-.01-.05-.02-.03-.01-.07-.02-.1-.04-.06-.02-.11-.05-.16-.08-.11-.07-.2-.14-.29-.21-.04-.03-.08-.06-.12-.09-.04-.03-.08-.05-.12-.08-.02-.01-.03-.03-.05-.04-.01-.01-.03-.03-.04-.04,0,0-.02-.02-.03-.03-.14-.15-.24-.3-.33-.45-.01-.02-.03-.05-.04-.08-.1-.17-.16-.36-.25-.5,0,0,0,0,0,0,0,0,0,0,0,0-.02-.06-.05-.11-.07-.16-.04-.12-.1-.25-.14-.39,0-.01,0-.03-.02-.05-.06-.17-.11-.35-.16-.54-.01-.04-.02-.09-.03-.13-.04-.09-.12-.24-.16-.34,0-.03,0-.06-.02-.09-.05-.25-.1-.51-.15-.78-.05-.28-.06-.55-.04-.84,0-.21,0-.42.01-.61,0-.03,0-.05,0-.08,0-.1.02-.19.03-.3,0-.05.02-.11.03-.16,0-.06.02-.12.03-.18,0-.04.01-.09.02-.13.01-.07.02-.13.03-.2.01-.06.02-.12.03-.18.03-.14.06-.28.08-.42.02-.08.03-.17.04-.25.03-.19.06-.38.12-.6.01-.04.02-.09.03-.13.03-.11.07-.21.12-.32.05-.1.08-.2.12-.3.04-.11.08-.22.13-.33,0-.02.02-.05.03-.07.06-.14.13-.27.2-.4.03-.05.07-.14.1-.19.01-.03.03-.06.05-.09.08-.13.14-.25.2-.38,0,0,0,0,0,0,.02-.05.04-.09.06-.14.02-.05.05-.11.08-.16.02-.04.04-.07.06-.1.02-.02.02-.03.03-.05.02-.02.02-.05.03-.06.05-.12.14-.25.23-.36,0,0,0-.01,0-.01,0,0,0,0,.01-.01.08-.1.17-.19.26-.27Z"/>
  </g>
</svg>