<?xml version="1.0" encoding="UTF-8"?>
<svg id="Layer_2" data-name="Layer 2" xmlns="http://www.w3.org/2000/svg" viewBox="0 0 10.07 14.04">
  <defs>
    <style>
      .cls-1 {
        fill: none;
        fill-rule: evenodd;
        stroke: #000;
        stroke-miterlimit: 10;
        stroke-width: .25px;
      }
    </style>
  </defs>
  <g id="Layer_1-2" data-name="Layer 1">
    <path class="cls-1" d="M2.99,2.62s.16-.16.18-.18c0,0,.07-.07.07-.07,0,0,.05-.05.06-.05,0,0,.03-.03.03-.03.02-.02.07-.07.1-.09.04-.03.08-.06.11-.09,0,0,0,0,.01,0,.05-.03.09-.06.13-.1,0,0,.01-.01.02-.02.02-.01.04-.03.06-.04.03-.02.05-.04.08-.06,0,0,.02-.01.03-.02,0,0,.02-.01.02-.02.03-.02.06-.04.08-.06.03-.02.05-.04.08-.06,0,0,0,0,0,0,0,0,.02-.01.03-.02.02-.02.04-.03.07-.05.03-.03.07-.06.1-.08.03-.03.07-.05.1-.08.02-.02.04-.03.06-.04,0,0,.01-.01.02-.02.03-.03.07-.06.11-.08.09-.09.21-.16.31-.24.01,0,.03-.02.04-.03.05-.04.12-.08.17-.12.09-.06.18-.11.27-.16.02,0,.03-.02.05-.02,0,0,0,0,0,0,.18-.13.4-.28.66-.4.19-.09.39-.16.61-.21.07-.01.14-.03.22-.03.08,0,.16-.01.25-.01.15,0,.3.02.45.05.1.02.2.05.3.09.09.03.18.07.27.12.02.01.05.03.07.04.06.03.12.07.17.11.03.02.06.04.09.07.02.01.04.03.05.04.02.02.04.03.06.05.15.14.28.3.41.49.08.12.15.25.22.39.06.13.12.25.18.37,0,.02.02.05.03.07.02.06.05.11.07.16.03.09.07.18.1.26.17.48.27.93.33,1.38,0,.02,0,.05,0,.07,0,.02,0,.05,0,.07.04.38.03.76,0,1.13,0,.02,0,.03,0,.05,0,.08,0,.15,0,.23,0,.17,0,.34,0,.52,0,.06,0,.13,0,.19,0,.07,0,.14,0,.22,0,.17,0,.33,0,.5,0,.33-.02.66-.05.99-.02.18-.05.36-.09.53-.01.05-.02.11-.03.16,0,.03-.01.05-.02.08-.01.06-.03.12-.04.18-.01.05-.02.1-.03.14-.03.12-.06.25-.09.37-.01.06-.03.11-.04.17-.02.1-.05.19-.07.29-.02.09-.04.19-.06.28,0,.01,0,.03,0,.04,0,.04-.03.08-.05.11,0,.01-.02.02-.02.03-.03.03-.06.06-.08.09-.01.01-.02.02-.04.03-.01.01-.02.02-.03.03,0,0-.02.02-.03.03,0,0,0,0-.01.01-.02.04-.04.08-.06.12-.02.03-.04.07-.06.1,0,.02-.02.03-.03.05-.02.03-.03.05-.05.08,0,0,0,.01-.01.02-.04.08-.08.15-.12.22,0,.01-.02.03-.03.05,0,.01-.02.03-.03.04-.03.04-.06.09-.09.13-.08.11-.16.22-.24.32-.05.07-.11.13-.17.2-.02.02-.04.04-.05.06,0,0-.01.02-.02.02-.03.04-.06.07-.1.11-.04.04-.08.08-.12.13-.26.26-.55.54-.87.76,0,0-.01.01-.02.02-.03.02-.05.04-.08.07-.09.08-.19.15-.3.24-.16.11-.31.23-.46.34,0,0-.02.01-.03.02,0,0,0,0,0,0-.02.01-.03.02-.05.03-.04.03-.09.07-.13.11-.04.03-.09.05-.13.08,0,0-.02.01-.03.02-.02.02-.05.04-.07.06-.02.01-.03.02-.05.03,0,0,0,0,0,0-.02.01-.03.02-.05.03-.01,0-.02.01-.03.02-.03.02-.06.03-.1.04-.06.02-.13.04-.2.04-.01,0-.02,0-.03,0-.02,0-.03,0-.05,0-.02,0-.05,0-.07,0-.01,0-.02,0-.04,0-.02,0-.05,0-.07,0-.02,0-.04,0-.06,0-.04,0-.09,0-.13-.01-.03,0-.05,0-.08,0-.03,0-.05,0-.08,0-.01,0-.02,0-.04,0,0,0,0,0-.01,0,0,0,0,0-.01,0-.01,0-.03,0-.04,0-.03,0-.05,0-.08,0-.02,0-.03,0-.05,0-.01,0-.03,0-.04,0-.07,0-.13.01-.2.01-.01,0-.02,0-.04,0-.04,0-.07,0-.11,0,0,0-.01,0-.02,0-.05,0-.1.01-.14.02-.03,0-.07,0-.1,0-.02,0-.03,0-.05,0h-.01c-.1,0-.2-.01-.3-.02-.04,0-.08,0-.11-.02,0,0,0,0-.01,0,0,0-.01,0-.02,0-.03,0-.05-.01-.08-.02-.02,0-.05-.01-.07-.02-.05-.02-.1-.03-.16-.05,0,0-.01,0-.02,0-.01,0-.03-.01-.04-.02-.03-.01-.06-.03-.08-.04-.05-.02-.1-.05-.14-.08-.09-.06-.18-.12-.26-.18-.04-.03-.07-.05-.11-.08-.03-.03-.07-.05-.1-.08-.01-.01-.03-.02-.04-.04-.01-.01-.03-.02-.04-.03,0,0-.02-.02-.02-.02-.16-.15-.31-.3-.45-.46-.02-.02-.04-.05-.06-.07-.14-.17-.27-.34-.39-.52,0,0,0,0,0,0,0,0,0,0,0,0-.04-.06-.07-.11-.11-.17-.08-.13-.17-.28-.24-.42,0-.02-.02-.03-.03-.05-.1-.19-.19-.38-.27-.59-.02-.05-.04-.1-.06-.14-.05-.13-.11-.26-.16-.4-.01-.03-.02-.07-.03-.1-.06-.17-.11-.35-.15-.53-.03-.12-.05-.25-.07-.38-.03-.32,0-.64.07-.96.04-.18.08-.36.13-.54.01-.05.03-.09.04-.14,0-.03.02-.06.03-.09.03-.11.07-.22.11-.33.02-.06.04-.12.06-.18.02-.07.05-.13.07-.2.02-.05.03-.1.05-.15.02-.06.04-.11.06-.17.02-.05.04-.11.06-.16.04-.13.09-.25.13-.38.03-.08.05-.16.08-.25.06-.18.12-.36.19-.53.02-.04.03-.08.05-.12.04-.1.09-.19.13-.28.05-.09.09-.17.14-.26.05-.1.1-.19.16-.28.01-.02.03-.04.04-.06.07-.12.15-.23.23-.34.04-.05.08-.11.12-.17.02-.03.04-.05.06-.08.08-.11.16-.21.24-.31,0,0,0,0,0,0,.03-.04.06-.08.09-.12.03-.04.07-.09.1-.13.02-.03.05-.06.07-.08.01-.01.02-.03.04-.04.02-.02.03-.03.04-.05.08-.1.17-.19.25-.29,0,0,0,0,0-.01,0,0,0,0,.01-.01Z"/>
  </g>
</svg>