<?xml version="1.0" encoding="UTF-8"?>
<svg id="Layer_2" data-name="Layer 2" xmlns="http://www.w3.org/2000/svg" viewBox="0 0 11.56 12.78">
  <defs>
    <style>
      .cls-1 {
        fill: none;
        fill-rule: evenodd;
        stroke: #000;
        stroke-miterlimit: 10;
        stroke-width: .25px;
      }
    </style>
  </defs>
  <g id="Layer_1-2" data-name="Layer 1">
    <path class="cls-1" d="M5.62.15c.16-.13,1.15.42,1.47.42.06,0,.3.18.37.19.31.07,1.4,1.13,1.56,1.49.22.5,1.55,2.19,1.5,2.62,0,.1.28.48.28.58,0,.24.67,1.15.65,1.39-.02.22-1.01,1.33-1.06,1.54-.02.08-.39.49-.4.57-.01.04-.21.22-.23.24,0,0-.04.03-.04.04,0,0-.07.06-.08.06,0,0,0,0-.01,0-.18.37-2.23,2.38-2.61,2.63-.1.07-.73.65-.83.72-.07.05-.38-.11-.46-.06-.05.03-.26-.09-.32-.09-.02,0-.09-.04-.11-.04-.04,0-.17-.09-.2-.09-.04,0-.16-.09-.2-.09-.05,0-.21-.11-.26-.1-.03,0-.14-.07-.17-.07-.26,0-1.08-.73-1.25-.88-.39-.34-2.08-2.14-2.23-2.72-.07-.25-.68-1.15-.6-1.39.05-.15-.3-.67-.24-.81.05-.12.61-.77.65-.89.17-.51,2.41-2.84,2.69-3.12l.33-.34c.2-.21,1.58-1.62,1.81-1.81Z"/>
  </g>
</svg>