<?xml version="1.0" encoding="UTF-8"?>
<svg id="Layer_2" data-name="Layer 2" xmlns="http://www.w3.org/2000/svg" viewBox="0 0 13.05 12.83">
  <defs>
    <style>
      .cls-1 {
        fill: none;
        fill-rule: evenodd;
        stroke: #000;
        stroke-miterlimit: 10;
        stroke-width: .25px;
      }
    </style>
  </defs>
  <g id="Layer_1-2" data-name="Layer 1">
    <path class="cls-1" d="M6.38.22s.47.48.47.48c0,0,.6.61.6.62l.05.05h0s.12.12.12.12c0,0,.11.11.11.11l.02.02.02.02s.02.02.02.02c0,0,.02.02.02.02,0,0,.32.31.33.3l.23.21s.25.24.26.24c0,0,.2.19.2.19,0,0,.19.18.2.18,0,0,.16.15.16.15,0,0,.2.19.2.18,0,0,.12.11.12.11l.06.06.13.13.06.07h0s0,.01,0,.01l.11.12s.17.19.17.19c0,0,.18.19.18.2l.1.11s.12.13.12.13c0,0,.09.1.09.1,0,0,.09.09.08.09,0,0,.07.08.07.08,0,0,.04.04.04.04l.03.04s.19.2.19.21c0,0,.11.11.11.12v.02s.06.05.06.05c0,0,.22.22.23.22,0,0,.14.14.14.14,0,0,.13.12.13.12,0,0,.19.18.19.18,0,0,.14.13.14.13,0,0,.18.17.18.17,0,0,.15.15.15.15,0,0,.26.25.26.25l.19.18s.15.15.15.15c0,0-.02.03-.02.03h0s-.04.06-.04.06l-.06.06s-.13.12-.13.12h-.01s-1.3,1.18-1.3,1.18c0,0-.07.06-.07.06,0,0-.24.22-.24.22,0,0-.06.06-.06.05,0,0-.18.17-.18.18,0,0-.35.34-.35.35,0,0-.15.15-.15.15,0,0-.07.07-.07.07l-.05.05-.11.1-.02.02s-.13.12-.13.12c0,0-.17.17-.17.17,0,0-.14.14-.14.14,0,0-.03.03-.03.03l-.06.06-.13.13h-.01s-.23.23-.23.24c0,0-.15.15-.15.15,0,0-.21.21-.21.21,0,0-.07.07-.07.07,0,0-.02.02-.02.02,0,0,0,0,0,0l-.05.05-.09.08-.08.08s-.03.03-.03.03c0,0-.08.08-.08.08,0,0-.23.22-.23.22l-.04.04-.08.07-.06.05s-.01.01-.01.01c0,0-.16.15-.16.16h0s-.76.71-.76.71l-.23.21-.18.14s-.15-.15-.15-.15c0,0-.06-.06-.06-.06,0,0-.06-.06-.06-.06,0,0,0,0,0,0h0s0,0,0,0c0,0,0,0,0,0,0,0-.06-.06-.06-.06,0,0-.21-.2-.21-.2l-.03-.03s-.17-.16-.17-.16l-.08-.07-.18-.17-.04-.04s-.39-.38-.39-.38c0,0-.06-.06-.06-.06s-.08-.07-.08-.07c0,0-.09-.08-.09-.08l-.03-.03h-.02s-.09-.09-.09-.09c0,0-.16-.15-.17-.15h-.01s-.02-.03-.02-.03c0,0-.19-.18-.19-.18,0,0-.06-.06-.06-.06,0,0-.17-.16-.17-.15,0,0-.07-.06-.07-.06h0s-.21-.19-.21-.19l-.06-.06s-.21-.2-.2-.21c0,0-.12-.12-.12-.12h0s-.05-.05-.05-.05c0,0-.06-.06-.06-.06,0,0-.17-.17-.17-.17,0,0-.04-.04-.04-.04,0,0-.17-.16-.17-.17h0s-.04-.04-.04-.04l-.11-.11s-.32-.31-.32-.32c0,0,0,0,0,0h0s-.11-.1-.11-.1c0,0-.1-.09-.1-.09,0,0-.2-.19-.2-.19,0,0-.09-.08-.09-.08,0,0-.22-.21-.23-.21,0,0-.09-.08-.09-.08,0,0-.18-.17-.19-.17h0s-.09-.08-.09-.08c0,0-.23-.21-.23-.21,0,0-.07-.07-.07-.07,0,0-.05-.04-.05-.04h0s-.04-.04-.04-.04c0,0-.09-.09-.09-.09l-.1-.1s-.25-.23-.25-.23c0,0-.1-.1-.11-.1,0,0-.07-.07-.07-.07,0,0-.03-.02-.03-.02h0s-.15-.14-.15-.14c0,0-.02-.02-.02-.02,0,0-.05-.04-.05-.04l.02-.02.14-.15h0s.12-.13.12-.13l.07-.07s.3-.3.3-.3c0,0,.17-.17.17-.17l.07-.07s.4-.4.4-.4c0,0,.24-.24.24-.24,0,0,.24-.24.24-.24,0,0,.31-.31.32-.31,0,0,.15-.15.15-.15,0,0,.07-.07.07-.07,0,0,.16-.16.16-.16,0,0,.16-.16.16-.16,0,0,.04-.04.04-.04,0,0,.09-.09.09-.09,0,0,.06-.06.06-.06,0,0,.04-.03.04-.03,0,0,.14-.14.14-.14,0,0,0,0,0,0,0,0,.02-.02.02-.02l.09-.09.12-.13.04-.04s.02-.02.02-.02c0,0,.11-.12.12-.12h0s.02-.02.02-.02l.15-.16.09-.09h0s.14-.15.14-.15h0s.17-.18.17-.19l1.79-1.9.39-.39.03-.03Z"/>
  </g>
</svg>