<?xml version="1.0" encoding="UTF-8"?>
<svg id="Layer_2" data-name="Layer 2" xmlns="http://www.w3.org/2000/svg" viewBox="0 0 11.96 16.69">
  <defs>
    <style>
      .cls-1 {
        fill: none;
        fill-rule: evenodd;
        stroke: #000;
        stroke-miterlimit: 10;
        stroke-width: .25px;
      }
    </style>
  </defs>
  <g id="Layer_1-2" data-name="Layer 1">
    <path class="cls-1" d="M.58.53c.13-.05.26-.11.39-.16.09-.04.19-.08.28-.11.05-.02.11-.03.17-.04.09,0,.35-.02.59-.02.31,0,.63-.01.63-.02,0,0,.05.06.05.06.33.43.15,1.07-.03,1.3-.06.07-.13.12-.2.16.07.17.09.35.1.54.01.26.03.51.06.78,0,.09.02.18.02.28.04.03.08.07.11.13.07.18.22.31.38.45.13.11.27.22.36.38,0,0,0,0,0,0,.05.02.1.04.14.06.13.06.25.11.37.13.2.03.4.06.6.08.19.02.38.04.57.07.12.02.21.07.32.13.03.02.07.04.11.06,0,0,.57,0,.58-.01.02-.02.64.62.67.61.04.03.06.06.08.08.01,0,.27.38.29.38.14.19.29.38.43.58.02.03.05.06.08.09,0,0,0,0,0,0,.16-.13.32-.26.47-.4.13-.12.25-.24.36-.38.01-.07.03-.13.06-.18.12-.27.38-.4.63-.49.06-.02.12-.09.18-.15,0,0,.05-.06.05-.06.04-.04.08-.09.12-.15.02-.03.04-.06.06-.09,0,0,.04-.05.04-.05,0,0,.07-.01.07,0,.15-.02.28-.09.44-.24.07-.07.18-.15.31-.16.2-.01.4,0,.61,0,0,0,.1,0,.11,0,0,0,.06-.29.06-.28,0,.01.18.08.19.09.4.19.39.53.32.94,0,0,0,.05,0,.05,0,0-.03.04-.03.04-.15.23-.37.36-.67.42,0,0-.03,0-.03,0-.06.01-.11.03-.16.05-.15.07-.26.2-.37.37-.03.05-.06.09-.08.15-.06.11-.12.22-.2.33-.15.21-.3.41-.41.64-.13.26-.32.47-.54.63-.06.04-.11.12-.16.2-.02.03-.05.07-.07.1-.07.09-.11.18-.14.25,0,0-.05.21-.06.22-.05.19-.1.37-.14.56-.02.09-.03.18-.02.27.01.15.02.3.04.45.01.15.03.3.05.44.01.07.04.14.07.23,0,.02.01.04.02.06.13.06.21.15.26.25.05.1.08.21.09.29.01.06.02.12.03.18,0,.03,0,.06,0,.09,0,.05,0,.1,0,.15,0,.01,0,.02,0,.03,0,.13,0,.27-.03.41,0,0-.01.08-.01.09,0,0-.07.04-.07.04-.07.04-.14.1-.21.16-.15.12-.32.26-.55.31-.14.03-.27.09-.4.14-.04.02-.08.03-.12.05-.01.01-.02.03-.03.04-.04.06-.09.12-.15.17-.08.06-.11.13-.12.24-.03.03-.06,1.74-.1,1.77.02.02.03.04.05.06.06.08.12.16.19.23.28.29.29.47.11.88-.04.02-.1.13-.14.16,0,0-.1.02-.1.02,0,0-.03,0-.03,0-.07,0-.12-.03-.16-.06,0,0-.15.45-.15.46,0,0-.27-.52-.28-.52,0,0-.09-.04-.1-.04,0,0-.11.22-.12.23,0,0-.15-.09-.15-.09,0,0-.02-.01-.02-.01-.03-.01-.11-.06-.12-.15,0-.06,0-.13-.02-.19-.02-.17-.04-.35,0-.52.07-.24.06-.49-.02-.8,0-.04-.02-.07-.03-.11-.02-.05-.03-.1-.05-.14-.04-.11-.08-.21-.1-.33-.02-.07-.03-.15-.03-.23-.13-.19-.13-.4-.12-.59,0,0,.01-.26,0-.26,0-.14,0-.27.01-.41,0,0,0-.02,0-.04-.01,0-.02-.01-.04-.02-.03-.02-.07-.04-.1-.06-.06-.04-.11-.08-.16-.13-.03-.03-.06-.07-.08-.11,0,.03-.02.06-.03.08-.07.18-.15.33-.41.33-.03,0-.06,0-.09,0-.1,0-.2-.03-.3-.05-.02,0-.04,0-.06-.01,0,0-.34.2-.34.2,0,0-.25.15-.25.15-.02.02-.06.05-.1.06,0,0-.02,0-.02,0-.27.09-.53.17-.76.4,0,0-.2.3-.2.3,0,0,.01.05.01.05,0,0,.07-.03.07-.03,0,0,.49.33.48.32,0,0-.18.15-.19.15.17.22.21.4.03.7,0,0-.04.07-.04.07,0,0-.13,0-.13,0-.09,0-.18.01-.27.01-.18,0-.32-.04-.46-.11-.32-.17-.56-.32-.77-.48-.1-.07-.21-.12-.34-.17-.11-.05-.22-.09-.33-.16-.02-.01-.05-.03-.07-.05,0,0-.06-.05-.06-.05,0,0-.02-.05-.02-.05-.1-.27-.05-.52.14-.71.03-.03.06-.06.09-.1.17-.19.37-.4.67-.43,0,0,0,0,0,0,0,0,0,0,0,0,.05-.06.11-.14.21-.16.19-.04.33-.19.48-.34,0,0,.05-.05.05-.05.18-.18.34-.38.51-.59.04-.05.08-.1.12-.15,0-.01-.32-.37-.33-.39,0,0,.06-.11.06-.11.16-.31.29-.64.37-1,.08-.34.12-.71.13-1.1-.15-.26-.32-.47-.52-.64-.03-.02-.06-.05-.09-.07-.1-.07-.21-.15-.27-.3-.03-.07-.06-.13-.11-.19-.05-.06-.11-.12-.17-.18-.04-.04-.09-.09-.13-.14-.06-.07-.13-.13-.2-.19-.06-.06-.13-.12-.19-.18-.13-.14-.27-.29-.39-.46-.07-.1-.16-.19-.27-.28-.19-.16-.42-.39-.49-.77-.01-.06-.02-.13-.02-.2,0-.15.03-.31.15-.47.1-.14.13-.27.1-.44-.03-.17,0-.35.03-.51,0,0,.02-.1.02-.1.03-.22.07-.43.11-.65,0,0,.05-.31.06-.32,0-.03,0-.08.02-.13.09-.21.03-.36-.1-.61,0,0,0,0,0,0-.09-.03-.16-.07-.24-.11-.1-.05-.19-.1-.28-.1-.07,0-.12.01-.19.06,0,0-.09.06-.08.06,0,0-.09-.07-.09-.07-.21-.18-.2-.43-.17-.6,0,0,0-.02,0-.03,0,0,.01-.02.01-.02.08-.17.22-.3.42-.38Z"/>
  </g>
</svg>