<?xml version="1.0" encoding="UTF-8"?>
<svg id="Layer_2" data-name="Layer 2" xmlns="http://www.w3.org/2000/svg" viewBox="0 0 13.24 12.87">
  <defs>
    <style>
      .cls-1 {
        fill: none;
        fill-rule: evenodd;
        stroke: #000;
        stroke-miterlimit: 10;
        stroke-width: .25px;
      }
    </style>
  </defs>
  <g id="Layer_1-2" data-name="Layer 1">
    <path class="cls-1" d="M6.4.2s.45.5.46.54c.02.06.57.64.6.69l.07.05h0s.12.12.12.13c0,.01.1.11.12.12l.03.03v.03s.03.03.03.03c0,0,.03.02.03.02.03-.02.36.26.39.24l.28.17s.28.2.31.19c.02,0,.22.16.24.15.02,0,.21.16.23.15.02,0,.18.13.19.12.02,0,.22.16.24.15.01,0,.13.1.15.09l.08.05.14.13.06.08v.02s0,0,0,0l.08.15s.14.21.12.22c-.03.01.15.23.13.24l.07.14s.1.15.09.16c-.01,0,.08.12.06.12-.01,0,.07.11.06.11-.01,0,.06.09.05.1,0,0,.03.05.02.05l.02.05s.16.23.13.24c-.01,0,.09.13.08.14v.02s.05.05.06.05c.02,0,.23.2.25.2.01,0,.14.12.15.13.01,0,.13.11.14.12.02,0,.19.17.2.17.01,0,.14.12.15.13.02,0,.18.16.19.16.01,0,.15.14.17.14.02,0,.25.23.28.23l.2.17s.16.14.17.14c0,0,.01.03.02.03h0s.02.06.02.06l-.07.07s-.13.12-.14.13h-.02s-1.48,1.06-1.48,1.06c0,0-.08.06-.08.06-.02,0-.26.2-.28.19,0,0-.07.05-.07.05.01,0-.16.19-.16.21,0,.02-.32.37-.32.4,0,.01-.14.15-.14.17,0,0-.07.07-.07.08l-.05.06-.12.11-.03.02s-.15.11-.15.1c0,.01-.16.18-.15.2,0,.01-.13.15-.13.16,0,0-.03.03-.03.04l-.06.08-.12.14h-.02s-.23.24-.22.26c0,.01-.14.16-.13.17,0,.02-.2.22-.19.24,0,0-.06.07-.06.08,0,0-.02.02-.02.03,0,0,0,0,0,0l-.04.06-.1.08-.07.09s-.02.03-.02.03c0,0-.07.09-.07.09.01.02-.21.24-.21.24l-.05.05-.09.07-.06.06s-.02.02-.02.02c0,0-.14.16-.16.16h-.01s-.81.65-.81.65l-.25.17-.14-.06s-.15-.16-.15-.17c0,0-.06-.06-.07-.06,0,0-.06-.07-.07-.07,0,0-.01-.01-.01-.01h-.01s0-.02,0-.02c0,0,0,0,0,0,0,0-.06-.06-.07-.06,0-.01-.2-.2-.21-.21l-.03-.03s-.16-.16-.17-.17l-.1-.06-.17-.19-.03-.05s-.37-.39-.37-.42c0,0-.06-.06-.06-.07,0,0-.07-.08-.07-.08,0,0-.08-.09-.09-.09l-.04-.03s-.03-.01-.03-.01c0,.01-.1-.07-.1-.06,0,.02-.18-.13-.19-.12h-.02s-.03-.03-.03-.03c-.02,0-.19-.17-.2-.18,0,0-.06-.06-.06-.06-.01,0-.19-.14-.2-.13,0,0-.08-.06-.08-.05h-.01s-.23-.18-.23-.18l-.06-.08s-.18-.22-.17-.23c0,0-.11-.13-.1-.14h0s-.04-.06-.04-.06c0,0-.05-.06-.05-.06,0-.01-.16-.17-.15-.19,0,0-.03-.04-.03-.04,0-.01-.15-.18-.14-.19h0s-.03-.05-.03-.05l-.09-.13s-.29-.32-.29-.34c0,0,0,0,0-.01h0s-.11-.09-.12-.09c0,0-.1-.09-.11-.09-.01,0-.2-.17-.21-.17,0,0-.09-.07-.1-.08-.01,0-.22-.19-.24-.19,0,0-.09-.07-.09-.07-.01,0-.18-.15-.2-.16h0s-.1-.07-.1-.07c-.02,0-.23-.19-.24-.19,0,0-.08-.06-.08-.06,0,0-.05-.04-.05-.04,0,0,0,0,0,0,0,0-.04-.03-.04-.03,0,0-.09-.08-.1-.08l-.11-.09s-.24-.2-.26-.2c0,0-.1-.08-.11-.08,0,0-.07-.06-.07-.06,0,0-.03-.02-.03-.02h0s-.14-.12-.15-.13c0,0-.02-.02-.02-.02,0,0-.04-.03-.04-.03v-.02s.11-.17.11-.17h.01s.11-.15.11-.15l.08-.06s.31-.28.33-.28c.01,0,.18-.16.19-.16l.08-.07s.41-.37.43-.37c.01,0,.25-.22.26-.22.01,0,.25-.22.26-.22.02,0,.32-.29.34-.29,0,0,.16-.14.17-.14,0,0,.08-.07.08-.07,0,0,.17-.15.18-.15,0,0,.16-.14.17-.14,0,0,.05-.04.05-.04,0,0,.1-.09.1-.09,0,0,.06-.05.06-.05,0,0,.04-.03.04-.03,0,0,.15-.13.16-.13,0,0,0,0,0,0s.03-.02.03-.02l.09-.1.11-.14.05-.04s.03-.03.03-.03c0,0,.11-.11.12-.11h0s.03-.02.03-.02l.14-.17.1-.09h0s.13-.16.12-.16h0s.15-.19.16-.2l1.58-2.01.41-.35.04-.03Z"/>
  </g>
</svg>