<?xml version="1.0" encoding="UTF-8"?>
<svg id="Layer_2" data-name="Layer 2" xmlns="http://www.w3.org/2000/svg" viewBox="0 0 13.91 13.22">
  <defs>
    <style>
      .cls-1 {
        fill: none;
        fill-rule: evenodd;
        stroke: #000;
        stroke-miterlimit: 10;
        stroke-width: .25px;
      }
    </style>
  </defs>
  <g id="Layer_1-2" data-name="Layer 1">
    <path class="cls-1" d="M6.5.16c.06.13.44.59.49.72.07.16.56.75.63.91l.1.04h0s.14.15.15.17c0,.03.11.13.14.16l.04.04v.05s.01.03.02.05c0,0,.04.01.04,0,.1-.04.44.16.54.12l.39.08c.08-.04.35.13.43.09.06-.03.27.1.33.07.06-.03.26.1.32.07.05-.02.22.08.26.06.06-.03.27.1.33.07.04-.02.17.06.2.05l.12.02.19.14.05.11v.02h-.02l-.02.19c-.07.03.04.24-.02.28-.07.03.05.26-.02.29v.17c-.06.02.02.18-.03.2-.04.02.02.13-.01.15-.04.01.02.12-.01.14-.03.01.02.1-.01.12-.02,0,0,.06-.01.07v.06c-.08.03.04.26-.03.29-.04.02.03.15-.01.17v.03s.04.06.05.07c.06.01.26.18.32.19.03.01.16.12.19.13.03.01.14.11.18.12.05.02.22.15.26.17.03.01.16.11.19.12.04.01.21.15.25.16.04.01.17.13.21.14.06.02.28.2.34.22l.25.17s.18.13.22.14c.01,0,.05.03.06.04h.02s.08.08.08.08l-.08.08s-.13.13-.17.15l-.03.02-1.84.73s-.09.04-.1.04c-.05-.01-.3.16-.34.14-.01,0-.08.04-.09.03.03.02-.11.21-.09.26.02.07-.25.42-.26.5,0,.03-.13.18-.13.21,0,.01-.06.08-.07.1l-.05.08-.14.13h-.05s-.17.08-.18.06c.01.04-.13.21-.12.25,0,.03-.11.17-.11.2,0,0-.03.04-.03.05l-.03.1-.11.18-.02.02s-.22.25-.21.3c0,.03-.11.18-.1.21,0,.04-.16.25-.15.3,0,.02-.05.09-.06.1,0,0-.02.03-.02.04,0,0,0,.01,0,.01v.06s-.09.03-.09.03l-.04.11s-.02.04-.01.04c.01.01-.05.1-.04.11.03.05-.18.27-.19.29l-.05.06-.11.05-.08.06s-.02.02-.02.03c0,.02-.12.17-.15.19l-.02.02-.95.53-.28.07-.02-.22s-.14-.19-.14-.22c-.01,0-.07-.06-.08-.07-.01-.01-.07-.08-.07-.09,0,0-.01-.02-.02-.02v-.02s-.02-.02-.02-.02c0,0,0,0,0,0,0,0-.07-.06-.08-.08-.02-.04-.19-.22-.22-.25l-.04-.04s-.17-.18-.19-.21l-.13-.04-.17-.23v-.06c-.04-.08-.35-.43-.36-.52,0-.01-.06-.07-.06-.09,0-.02-.07-.09-.08-.11,0-.02-.08-.1-.09-.12l-.05-.02s-.03,0-.03,0c0,.03-.1-.03-.1,0,0,.05-.18-.06-.21-.02h-.03s-.04-.02-.04-.02c-.05,0-.21-.17-.23-.2,0-.01-.06-.07-.07-.07-.04.01-.21-.09-.24-.06-.01.01-.09-.03-.1-.02h-.02s-.29-.15-.29-.15l-.04-.1s-.12-.25-.09-.29c.02-.02-.07-.15-.05-.18h0s-.01-.08-.01-.08c0-.01-.04-.07-.04-.08,0-.03-.14-.2-.12-.24,0,0-.02-.05-.02-.06,0-.03-.12-.2-.08-.23h0s0-.06,0-.06l-.04-.16c-.02-.06-.26-.35-.26-.42,0,0,0-.02,0-.02h0s-.12-.08-.14-.08c-.02,0-.11-.07-.14-.08-.04,0-.22-.14-.25-.15-.02,0-.1-.06-.12-.06-.04,0-.25-.15-.29-.16-.02,0-.1-.06-.12-.06-.03,0-.2-.13-.23-.14h0s-.12-.06-.12-.06c-.04,0-.25-.16-.29-.16-.02,0-.09-.06-.1-.06,0,0-.05-.04-.06-.04,0,0,0,0-.01,0,0,0-.05-.03-.06-.03-.01,0-.1-.06-.11-.07l-.13-.07s-.25-.16-.29-.17c-.02,0-.1-.07-.12-.07-.01,0-.07-.05-.08-.05,0,0-.03-.02-.04-.02h-.01s-.14-.1-.17-.11c0,0-.03-.01-.03-.01,0,0-.04-.02-.05-.02l-.04-.02.08-.21v-.02s.11-.16.11-.16l.1-.05s.34-.23.39-.23c.03,0,.19-.13.22-.13l.1-.06c.06,0,.44-.31.51-.3.04,0,.27-.19.31-.18.04,0,.27-.19.31-.18.05,0,.35-.24.4-.24.03,0,.17-.12.2-.12.01,0,.09-.06.1-.06.03,0,.18-.13.21-.12.02,0,.17-.12.2-.12,0,0,.06-.04.07-.04.02,0,.11-.07.12-.07.01,0,.07-.05.08-.04,0,0,.05-.03.05-.03.02,0,.16-.11.18-.1,0,0,.01,0,.02,0,0,0,.03-.02.04-.02l.09-.12.09-.16.05-.05s.03-.03.04-.03c.01-.01.12-.11.14-.11h0s.03-.02.04-.03l.13-.19.12-.07h0s.1-.17.09-.19v-.02s.12-.19.14-.22L6,.45l.46-.28h.04Z"/>
  </g>
</svg>