<?xml version="1.0" encoding="UTF-8"?>
<svg id="Layer_2" data-name="Layer 2" xmlns="http://www.w3.org/2000/svg" viewBox="0 0 14.36 13.44">
  <defs>
    <style>
      .cls-1 {
        fill: none;
        fill-rule: evenodd;
        stroke: #000;
        stroke-miterlimit: 10;
        stroke-width: .25px;
      }
    </style>
  </defs>
  <g id="Layer_1-2" data-name="Layer 1">
    <path class="cls-1" d="M6.56.13c.08.19.46.68.54.88.1.24.58.87.69,1.12l.13.04h.01c.06.04.16.17.17.21.01.04.11.15.16.19l.05.05v.06s0,.04,0,.06c.01,0,.04,0,.06,0,.15-.07.51.08.66.02h.47c.12-.04.41.08.52.02.09-.04.31.05.4.01.09-.04.31.05.39.01.07-.03.25.04.32,0,.09-.04.31.05.41,0,.06-.03.19.03.25,0h.14s.23.16.23.16l.04.14-.03.02h-.01l-.11.21c-.1.05-.05.26-.15.3-.11.05-.05.27-.16.32l-.1.19c-.07.03-.03.18-.11.21-.06.02-.03.14-.09.16-.05.02-.03.12-.08.15-.05.02-.02.11-.07.13-.03.01-.02.06-.04.07l-.04.07c-.11.05-.04.27-.15.32-.06.03-.03.16-.09.18l-.03.04s.05.07.07.08c.09.02.31.17.39.2.05.02.19.12.24.14.05.02.17.11.21.13.07.02.25.16.32.18.05.02.18.11.23.13.07.02.24.15.31.17.06.02.2.13.26.15.09.03.33.21.42.23l.31.17c.06.02.21.13.27.15.02,0,.05.03.07.04l.02.02.1.07-.09.09s-.13.13-.19.16l-.03.02-2.11.46s-.1.03-.12.02c-.08-.02-.33.11-.4.09-.02,0-.09.03-.11.02.04.04-.06.23-.04.3.04.11-.18.47-.2.59,0,.05-.12.2-.13.24,0,.02-.06.09-.07.12l-.05.09-.16.14h-.05s-.18.04-.2,0c.02.05-.1.23-.08.29.01.05-.09.19-.1.24,0,.01-.03.05-.03.06v.12s-.1.21-.1.21l-.02.03c-.05.05-.22.26-.2.35.01.05-.09.2-.08.25.01.07-.13.28-.11.34,0,.03-.05.1-.05.12,0,.01-.02.04-.02.04s0,.01,0,.02l.02.05-.05-.02v.13s-.02.04-.01.05c.02.02-.03.1-.01.13.05.08-.16.3-.18.33l-.05.06-.13.03-.09.07s-.01.03-.01.03c0,.03-.11.18-.15.21l-.02.02-1.08.47-.27-.04.09-.22c-.03-.06-.13-.21-.13-.27-.02-.01-.08-.06-.1-.09-.02-.02-.07-.09-.08-.11,0,0-.01-.02-.02-.03l-.02-.03v-.02s0,0,0,0c-.02,0-.08-.06-.09-.09-.02-.06-.2-.24-.24-.3l-.05-.05s-.17-.19-.2-.24h-.15s-.18-.29-.18-.29v-.07c-.03-.12-.32-.48-.34-.61,0-.02-.05-.08-.06-.11-.01-.02-.07-.1-.08-.13,0-.03-.08-.11-.09-.14l-.06-.02s-.03.02-.03.02c0,.05-.09.01-.09.06,0,.08-.16,0-.21.07h-.03s-.05,0-.05,0c-.07-.01-.23-.18-.26-.22-.01-.02-.07-.07-.08-.09-.06.02-.23-.05-.28,0-.02.02-.1-.01-.12,0h-.02s-.34-.12-.34-.12l-.02-.12c.03-.07-.07-.28-.03-.34.03-.04-.03-.16,0-.21h0s.02-.09.02-.09c0-.02-.04-.08-.04-.1,0-.05-.12-.22-.09-.28,0-.01-.02-.05-.01-.07.01-.05-.1-.22-.02-.26h0s.03-.05.03-.05v-.18c-.02-.1-.23-.39-.23-.49,0,0,0-.02,0-.02h0s-.14-.07-.17-.08c-.03,0-.13-.07-.16-.07-.06,0-.24-.13-.3-.14-.03,0-.12-.06-.14-.06-.07,0-.27-.14-.34-.15-.03,0-.11-.06-.14-.06-.05,0-.22-.11-.27-.13h0s-.14-.06-.14-.06c-.07,0-.27-.14-.34-.15-.02,0-.1-.05-.12-.06-.01,0-.06-.03-.07-.04,0,0-.01,0-.01,0,0,0-.06-.02-.06-.02-.02,0-.1-.06-.13-.07l-.15-.06c-.06,0-.28-.15-.34-.15-.03,0-.11-.06-.14-.07-.02,0-.08-.04-.1-.05,0,0-.04-.02-.05-.02h-.02s-.15-.09-.19-.11c-.01,0-.03-.01-.04-.01-.01,0-.04-.02-.05-.02l-.05-.02.04-.23v-.03s.09-.18.09-.18l.11-.04c.08.01.36-.2.44-.19.04,0,.21-.11.25-.11l.12-.05c.1.01.47-.26.57-.25.06,0,.29-.16.35-.15.06,0,.29-.16.35-.15.08,0,.37-.21.45-.2.04,0,.19-.1.23-.1.02,0,.09-.05.11-.05.04,0,.19-.11.23-.1.04,0,.18-.1.23-.1.01,0,.06-.03.08-.03.03,0,.12-.06.14-.06.02,0,.07-.04.09-.04.01,0,.05-.03.06-.03.03,0,.17-.1.2-.08,0,0,.01,0,.02,0,0,0,.03-.02.04-.02l.09-.13.07-.18.06-.05s.03-.03.04-.03c.02-.02.12-.11.15-.11h0s.03-.02.04-.02l.13-.21.13-.07h0s.07-.18.06-.21v-.02s.09-.2.11-.25l.77-2.52.51-.23h.04Z"/>
  </g>
</svg>