<?xml version="1.0" encoding="UTF-8"?>
<svg id="Layer_2" data-name="Layer 2" xmlns="http://www.w3.org/2000/svg" viewBox="0 0 14.61 13.65">
  <defs>
    <style>
      .cls-1 {
        fill: none;
        fill-rule: evenodd;
        stroke: #000;
        stroke-miterlimit: 10;
        stroke-width: .25px;
      }
    </style>
  </defs>
  <g id="Layer_1-2" data-name="Layer 1">
    <path class="cls-1" d="M6.59.14c.1.23.47.73.57.97.12.29.59.94.72,1.23l.14.03h.01c.07.05.17.18.19.23.02.05.11.16.18.21l.06.05-.02.06s0,.04,0,.07c.02,0,.05,0,.06,0,.17-.08.55.04.73-.04l.52-.03c.14-.06.44.03.57-.03.11-.05.33.03.44-.02.1-.05.33.03.43-.02.09-.04.27.02.36-.02.11-.05.34.02.45-.03.07-.03.21.02.28-.01h.16s.26.15.26.15l.04.16-.04.02h-.01l-.16.22c-.12.06-.1.26-.23.32-.13.06-.11.28-.24.34l-.14.2c-.09.04-.07.19-.16.22-.07.03-.06.14-.13.17-.07.02-.06.13-.12.15-.05.02-.04.11-.1.14-.03.02-.03.06-.06.08l-.06.08c-.13.06-.1.27-.23.33-.08.03-.06.16-.14.19l-.04.04s.05.08.07.09c.11.02.33.17.43.2.06.02.2.12.26.14.06.02.18.11.23.13.08.03.27.16.35.18.06.02.2.11.26.13.08.03.26.15.34.18.07.02.21.13.28.15.11.04.35.21.46.24l.34.18c.07.02.22.13.29.15.02,0,.06.04.08.05l.03.02.11.07-.09.1c-.04.05-.13.13-.2.17l-.03.02-2.27.3s-.1.02-.13.02c-.09-.03-.34.09-.43.06-.03,0-.09.02-.12.01.05.04-.04.23,0,.32.04.13-.15.49-.17.63,0,.06-.11.21-.12.26,0,.03-.06.1-.07.13l-.05.1-.17.15h-.06c-.06-.03-.19.02-.22-.03.02.07-.08.24-.07.31.01.06-.08.2-.09.25,0,.02-.02.05-.02.07v.12s-.08.23-.08.23l-.03.03c-.06.07-.22.27-.2.37.01.06-.08.21-.06.27.01.08-.11.29-.09.37,0,.03-.04.1-.05.13,0,.01-.02.04-.02.05,0,0,0,.02,0,.02l.04.05-.03-.05v.14s0,.04,0,.05c.02.03-.02.11,0,.14.06.1-.15.32-.17.35l-.06.07-.14.02-.09.07s-.01.03-.01.04c0,.04-.1.19-.16.23l-.02.02-1.16.43-.27-.1.15-.21c-.03-.07-.13-.23-.13-.29-.02-.01-.08-.07-.1-.09-.02-.03-.07-.09-.08-.12,0,0-.02-.03-.02-.03l-.02-.03v-.02s0,0,0,0c-.02,0-.08-.06-.09-.09-.03-.08-.2-.25-.26-.32l-.05-.06c-.04-.05-.18-.2-.21-.26h-.17s-.18-.3-.18-.3l.03-.08c-.05-.15-.33-.51-.35-.67,0-.02-.05-.09-.07-.12-.01-.03-.07-.1-.08-.14,0-.04-.08-.12-.1-.15l-.07-.02s-.02.03-.02.03c0,.06-.09.04-.08.09,0,.09-.15.05-.21.12l-.04.02-.05-.02c-.09-.02-.24-.18-.28-.23-.02-.02-.07-.08-.08-.09-.07.02-.24-.03-.3.03-.02.03-.1,0-.13.02h-.02s-.37-.11-.37-.11v-.13c.03-.09-.06-.29,0-.36.03-.04-.02-.17.01-.22h0s.03-.1.03-.1c0-.02-.04-.08-.04-.11,0-.06-.11-.23-.08-.3,0-.01-.01-.06,0-.08.01-.05-.08-.24,0-.28h.01s.04-.05.04-.05l.03-.19c-.04-.11-.23-.41-.23-.54,0,0,0-.02,0-.03h0s-.14-.07-.18-.08c-.04,0-.13-.06-.17-.07-.07,0-.25-.12-.32-.14-.04,0-.12-.05-.16-.05-.08,0-.29-.13-.37-.14-.03,0-.12-.06-.15-.06-.06,0-.23-.11-.29-.13h0s-.15-.05-.15-.05c-.08,0-.29-.13-.37-.14-.03,0-.1-.05-.13-.05-.02,0-.06-.03-.08-.03,0,0-.01,0-.02,0,0,0-.06-.02-.07-.02-.02,0-.11-.05-.14-.07l-.16-.06c-.08,0-.29-.14-.37-.14-.03,0-.12-.06-.15-.06-.02,0-.08-.04-.1-.04-.01,0-.04-.02-.05-.02h-.02s-.16-.08-.2-.1c-.01,0-.03-.01-.04,0-.01,0-.04-.02-.06-.02l-.05-.02.02-.24v-.03s.09-.2.09-.2l.12-.04c.09.01.38-.18.47-.17.05,0,.21-.1.26-.1l.12-.04c.12.01.49-.24.61-.23.07,0,.3-.14.37-.14.07,0,.3-.14.37-.14.09,0,.39-.19.48-.18.05,0,.19-.09.24-.09.02,0,.1-.05.12-.04.05,0,.2-.1.25-.09.05.01.19-.09.24-.09.02,0,.06-.03.08-.03.03,0,.12-.06.15-.05.02,0,.08-.03.1-.03.01,0,.05-.02.06-.02.04,0,.17-.09.22-.07,0,0,.01,0,.02,0,0,0,.04-.02.05-.02l.09-.14.06-.19.07-.05s.03-.03.04-.04c.02-.02.13-.11.16-.11h0s.03-.02.04-.02l.13-.22.14-.06h0s.05-.18.04-.22v-.02s.07-.2.1-.26l.58-2.64.54-.21h.04Z"/>
  </g>
</svg>