<?xml version="1.0" encoding="UTF-8"?>
<svg id="Layer_2" data-name="Layer 2" xmlns="http://www.w3.org/2000/svg" viewBox="0 0 15.15 14.06">
  <defs>
    <style>
      .cls-1 {
        fill: none;
        fill-rule: evenodd;
        stroke: #000;
        stroke-miterlimit: 10;
        stroke-width: .25px;
      }
    </style>
  </defs>
  <g id="Layer_1-2" data-name="Layer 1">
    <path class="cls-1" d="M6.69.15c.13.31.49.84.62,1.15.16.39.62,1.07.79,1.46l.17.03h.02c.1.07.19.21.21.27.02.07.12.18.2.25l.07.06-.03.07s-.01.05,0,.08c.02,0,.06,0,.08-.01.23-.11.63-.05.86-.15l.62-.11c.18-.09.5-.04.68-.12.14-.06.38-.03.52-.09.14-.06.38-.03.51-.09.11-.05.31-.02.42-.08.14-.07.39-.03.53-.1.09-.04.24-.02.33-.05l.19-.03.31.18.03.19-.06.02s-.02,0-.02,0l-.26.24c-.16.08-.21.27-.37.35-.17.08-.22.29-.39.37l-.23.21c-.12.05-.14.2-.26.24-.09.04-.12.14-.21.18-.09.03-.11.13-.2.16-.07.03-.09.12-.16.15-.04.02-.06.07-.1.09l-.1.08c-.17.08-.21.29-.38.36-.1.05-.13.16-.23.21l-.06.04s.05.09.08.11c.14.03.38.16.51.21.08.03.23.12.31.15.07.03.2.12.28.14.11.04.3.16.41.19.08.03.22.11.31.14.11.04.29.15.4.19.09.03.24.13.33.16.14.05.4.21.54.25l.39.18c.09.03.25.13.34.16.03,0,.07.04.09.05l.03.02.13.07-.1.11c-.06.07-.14.14-.22.18l-.04.02h-2.57s-.11,0-.15,0c-.12-.03-.37.05-.49,0-.03-.01-.1,0-.14,0,.07.06.02.25.05.36.06.17-.08.53-.1.73,0,.08-.1.23-.11.3,0,.04-.05.11-.07.15l-.05.12-.18.16h-.07c-.07-.05-.2-.03-.24-.09.03.09-.05.27-.03.36.02.07-.06.22-.07.29,0,.02-.02.06-.02.08l.04.14-.07.27-.03.03c-.08.09-.22.29-.19.42.02.07-.05.23-.04.3.02.11-.08.32-.05.42.01.04-.03.11-.04.15,0,.02-.02.05-.02.05,0,0,0,.02,0,.02l.08.04v-.12s.04.16.04.16c.01.02,0,.05.02.06.03.03,0,.12.03.16.07.13-.12.36-.15.4l-.06.08h-.16s-.1.08-.1.08c0,.01-.01.03-.01.04,0,.05-.08.2-.16.26l-.03.02-1.31.36-.27-.21.28-.21c-.04-.09-.12-.26-.12-.34-.03-.02-.09-.07-.12-.1-.03-.03-.07-.1-.09-.14,0-.01-.02-.03-.02-.04l-.02-.04v-.03s0,0,0,0c-.02-.01-.09-.06-.11-.11-.04-.1-.21-.28-.28-.37l-.06-.06c-.06-.07-.18-.22-.23-.3l-.19.03-.19-.35.05-.09c-.07-.2-.32-.57-.35-.77,0-.03-.05-.1-.07-.14-.02-.04-.07-.12-.08-.16-.01-.05-.08-.13-.1-.18l-.08-.02s-.02.06-.02.06c0,.08-.07.09-.07.16,0,.12-.14.12-.21.22l-.04.03-.06-.02c-.11-.02-.26-.19-.31-.26-.02-.03-.07-.09-.1-.11-.09.03-.26.01-.34.09-.03.03-.11.03-.14.06h-.03s-.43-.08-.43-.08v-.15c.06-.11.02-.32.09-.41.04-.06.02-.19.06-.25v-.02s.07-.1.07-.1c0-.03-.03-.1-.03-.13,0-.08-.1-.26-.05-.35,0-.02,0-.06,0-.09.02-.07-.05-.26.06-.32h.02s.08-.04.08-.04l.08-.21c-.05-.15-.21-.46-.21-.62,0,0,0-.02,0-.03h0c-.05,0-.16-.06-.21-.07-.05,0-.15-.06-.2-.06-.09,0-.28-.1-.37-.13-.05,0-.14-.04-.18-.05-.1,0-.32-.11-.42-.13-.04,0-.13-.05-.17-.05-.08,0-.25-.09-.34-.12h0s-.17-.05-.17-.05c-.11,0-.32-.12-.42-.12-.04,0-.11-.04-.15-.05-.02,0-.07-.03-.09-.03,0,0-.01,0-.02,0,0,0-.07-.02-.08-.02-.03,0-.12-.04-.16-.07l-.18-.05c-.1,0-.32-.12-.42-.13-.04,0-.13-.05-.17-.06-.03,0-.09-.04-.12-.04-.01,0-.04-.01-.06-.01h-.02c-.05,0-.17-.07-.23-.1-.02,0-.04,0-.05,0-.02,0-.05-.01-.06-.01l-.06-.02-.03-.26v-.03s.07-.22.07-.22l.13-.03c.12.02.4-.14.52-.13.07,0,.23-.08.3-.07l.14-.03c.16.02.52-.18.68-.17.09,0,.32-.11.41-.1.09.01.32-.11.41-.1.12,0,.41-.15.54-.13.06,0,.21-.07.27-.06.03,0,.1-.04.13-.03.06,0,.21-.08.28-.07.06.01.2-.07.27-.06.02,0,.07-.02.09-.02.04,0,.13-.04.17-.04.03,0,.08-.02.11-.02.02,0,.06-.02.07-.02.05,0,.18-.08.24-.05,0,0,.01,0,.03,0,.01,0,.04-.02.05-.02l.09-.15.04-.22.07-.05s.04-.03.05-.04c.03-.03.13-.11.18-.11h0s.04-.02.05-.02l.12-.25.16-.05h0c-.03-.06.02-.19,0-.24v-.02s.03-.21.07-.29l.18-2.9.6-.15.04.02Z"/>
  </g>
</svg>