<?xml version="1.0" encoding="UTF-8"?>
<svg id="Layer_2" data-name="Layer 2" xmlns="http://www.w3.org/2000/svg" viewBox="0 0 15.49 14.3">
  <defs>
    <style>
      .cls-1 {
        fill: none;
        fill-rule: evenodd;
        stroke: #000;
        stroke-miterlimit: 10;
        stroke-width: .25px;
      }
    </style>
  </defs>
  <g id="Layer_1-2" data-name="Layer 1">
    <path class="cls-1" d="M6.77.16c.15.35.5.9.65,1.26.19.44.63,1.15.83,1.6l.19.02h.02c.11.08.2.22.23.3.03.08.12.19.22.27l.08.07-.04.08s-.02.05,0,.09c.03,0,.06,0,.09-.02.26-.12.68-.1.94-.22l.67-.16c.21-.1.54-.08.75-.18.16-.07.41-.06.57-.13.16-.07.4-.06.56-.13.13-.06.33-.05.46-.11.16-.08.42-.06.58-.14.1-.05.26-.03.36-.08l.21-.05.33.19.03.21-.08.02s-.02,0-.02,0l-.32.26c-.19.09-.27.28-.46.37-.2.09-.28.3-.48.39l-.28.23c-.13.06-.19.2-.32.26-.11.04-.15.15-.26.19-.1.04-.14.13-.24.17-.08.03-.12.12-.2.16-.05.02-.07.07-.12.09l-.12.09c-.19.09-.27.29-.47.38-.12.05-.17.17-.28.22l-.07.05s.05.1.09.12c.16.04.4.16.56.21.1.03.24.12.33.16.08.03.22.12.3.15.13.04.33.16.45.2.09.03.24.11.33.15.12.04.31.15.44.2.1.04.26.13.36.17.16.06.42.21.59.26l.43.19c.1.03.27.13.38.16.03.01.07.04.1.05l.04.02.14.08-.11.12c-.07.08-.14.14-.24.19l-.04.02-2.76-.19s-.12,0-.16-.01c-.14-.04-.39.02-.52-.03-.04-.01-.11,0-.15-.01.08.07.05.25.09.38.07.2-.04.56-.07.78,0,.09-.09.24-.11.33,0,.04-.05.11-.06.16l-.05.13-.2.17-.07-.02c-.08-.04-.21-.04-.25-.11.03.1-.03.28,0,.38.02.08-.05.23-.06.32,0,.02-.02.06-.02.09l.06.15-.06.29-.03.03c-.09.1-.22.3-.19.46.02.09-.04.24-.02.33.02.12-.06.34-.02.45.01.05-.03.12-.03.16,0,.02-.02.05-.01.06,0,0,0,.02,0,.03l.1.03.03-.15.05.17s.01.05.02.07c.03.04.02.12.05.17.08.15-.11.38-.14.43l-.06.08h-.17s-.11.07-.11.07c0,.01,0,.03,0,.05,0,.06-.07.21-.16.27l-.03.02-1.4.31-.27-.28.35-.21c-.05-.1-.12-.27-.12-.37-.03-.02-.1-.07-.13-.11-.03-.04-.08-.11-.09-.15,0-.01-.02-.03-.02-.05l-.02-.04v-.03s0,0-.01-.01c-.03-.02-.1-.07-.11-.11-.04-.12-.21-.29-.29-.39l-.06-.07c-.06-.08-.19-.23-.24-.32l-.21.04-.2-.38.07-.09c-.08-.23-.32-.6-.35-.84,0-.04-.05-.1-.07-.15-.02-.04-.07-.12-.08-.17-.01-.06-.08-.14-.11-.19h-.09s-.02.05-.02.05c0,.09-.06.12-.06.21,0,.14-.13.17-.22.28l-.05.03-.07-.02c-.13-.03-.28-.2-.33-.27-.03-.04-.07-.09-.1-.12-.11.04-.27.04-.36.13-.04.04-.11.04-.15.08l-.03.02-.46-.09.02-.16c.06-.13.04-.34.12-.44.05-.07.04-.2.09-.27v-.02s.09-.1.09-.1c0-.04-.03-.1-.03-.14,0-.09-.09-.27-.04-.38.01-.02,0-.07,0-.1.02-.08-.03-.27.1-.34h.02s.1-.04.1-.04l.11-.22c-.06-.17-.19-.48-.19-.67,0-.01,0-.03,0-.04h0c-.06,0-.17-.06-.23-.07-.06,0-.16-.05-.21-.06-.1,0-.29-.09-.4-.13-.06,0-.15-.04-.2-.04-.12,0-.33-.1-.45-.12-.05,0-.13-.05-.19-.05-.09,0-.27-.08-.36-.12h0s-.19-.04-.19-.04c-.12,0-.34-.1-.46-.11-.04,0-.12-.04-.16-.05-.03,0-.07-.03-.1-.03,0,0-.02,0-.02,0-.01,0-.07-.01-.09-.01-.04,0-.12-.04-.17-.07l-.19-.05c-.12,0-.33-.11-.45-.12-.05,0-.13-.05-.18-.06-.03,0-.09-.04-.13-.04-.02,0-.05-.01-.06-.01h-.02c-.06,0-.18-.06-.24-.1-.02,0-.04,0-.05,0-.02,0-.05-.01-.07-.01h-.06s-.06-.29-.06-.29v-.04s.06-.23.06-.23l.14-.02c.14.02.42-.11.55-.1.08,0,.24-.07.32-.06l.15-.02c.18.02.54-.15.72-.14.11,0,.33-.09.44-.08.11.01.33-.09.44-.08.14.01.43-.12.57-.11.07,0,.22-.06.29-.05.04,0,.11-.03.14-.03.07,0,.22-.07.3-.05.07.02.21-.06.28-.05.03,0,.07-.02.1-.02.05,0,.14-.04.18-.03.03,0,.09-.02.12-.02.02,0,.06-.02.08-.02.06,0,.19-.07.26-.04,0,0,.01,0,.03,0,.01,0,.04-.01.06-.01l.09-.16.02-.23.08-.06s.04-.03.05-.04c.04-.03.13-.11.19-.11h0s.04-.01.05-.02l.12-.26.17-.05h0c-.03-.07,0-.2-.02-.25v-.03s.01-.22.06-.31l-.06-3.05.64-.12.04.03Z"/>
  </g>
</svg>