<?xml version="1.0" encoding="UTF-8"?>
<svg id="Layer_2" data-name="Layer 2" xmlns="http://www.w3.org/2000/svg" viewBox="0 0 15.78 14.5">
  <defs>
    <style>
      .cls-1 {
        fill: none;
        fill-rule: evenodd;
        stroke: #000;
        stroke-miterlimit: 10;
        stroke-width: .25px;
      }
    </style>
  </defs>
  <g id="Layer_1-2" data-name="Layer 1">
    <path class="cls-1" d="M6.83.17c.17.39.51.96.67,1.35.21.49.64,1.22.86,1.71l.2.02h.02c.13.09.22.24.24.32.03.09.12.2.23.29l.08.07-.05.09s-.02.05,0,.1c.03,0,.07,0,.09-.02.29-.14.72-.14,1.01-.28l.72-.2c.23-.11.57-.11.8-.22.18-.08.43-.08.61-.17.17-.08.43-.08.6-.16.14-.07.35-.07.5-.14.18-.08.44-.09.62-.17.11-.05.27-.05.39-.1l.22-.06.36.2.03.22-.09.02s-.02,0-.02,0l-.37.27c-.21.1-.32.29-.53.39-.22.1-.34.3-.56.4l-.33.23c-.15.07-.23.2-.38.27-.12.05-.18.15-.3.19-.11.04-.17.13-.28.18-.09.04-.14.12-.23.16-.05.03-.08.07-.14.1l-.14.09c-.21.1-.33.3-.54.39-.13.06-.2.17-.33.22l-.08.05c.02.05.05.1.09.13.18.04.43.16.6.21.11.04.26.12.36.17.09.04.23.12.32.15.14.05.34.16.48.2.1.03.25.11.36.15.14.05.33.16.47.2.11.04.28.13.39.17.18.06.45.21.63.26l.46.19c.12.04.29.13.4.17.03.01.08.04.11.06l.04.02.15.08-.11.13c-.07.09-.14.15-.25.2l-.05.03-2.91-.34s-.12,0-.17-.02c-.15-.04-.41,0-.55-.06-.04-.02-.11,0-.15-.02.09.07.07.26.12.4.07.22,0,.58-.03.83-.01.1-.09.25-.1.35,0,.04-.05.12-.06.17l-.05.13-.21.18-.07-.02c-.09-.05-.22-.06-.26-.14.03.11-.01.29.01.4.02.09-.04.24-.05.33,0,.03-.02.07-.02.09l.07.15-.06.31-.03.04c-.1.11-.22.31-.18.48.02.09-.02.25,0,.35.02.14-.04.35,0,.48.02.05-.02.13-.03.17,0,.02-.02.06-.01.06,0,0,0,.02.01.03l.12.03.05-.18.07.18s.02.05.03.07c.03.04.03.12.06.17.09.16-.1.4-.13.45l-.06.09-.18-.02-.11.08s0,.03,0,.05c0,.06-.06.22-.16.29l-.03.02-1.48.28-.27-.34.41-.21c-.05-.11-.11-.29-.11-.39-.03-.02-.1-.08-.13-.12-.03-.04-.08-.12-.09-.16,0-.01-.02-.04-.02-.05l-.02-.04v-.04s0,0-.01-.01c-.03-.02-.1-.07-.12-.12-.05-.13-.21-.31-.3-.42l-.06-.07c-.07-.09-.19-.24-.25-.34l-.22.05-.2-.4.08-.1c-.08-.25-.31-.63-.35-.89,0-.04-.05-.11-.07-.16-.02-.05-.07-.13-.08-.19-.01-.06-.08-.14-.11-.2h-.09s-.02.07-.02.07c0,.1-.06.14-.05.24,0,.16-.12.21-.22.33l-.05.04-.07-.02c-.14-.03-.29-.2-.35-.29-.03-.04-.08-.1-.11-.12-.12.04-.28.06-.38.16-.04.04-.12.05-.16.09l-.03.02-.49-.08.03-.17c.06-.15.06-.35.15-.47.06-.07.06-.2.11-.29v-.02s.1-.11.1-.11c0-.04-.02-.11-.02-.15,0-.1-.08-.29-.02-.4.01-.02,0-.07.01-.1.02-.09-.02-.28.13-.36h.02s.12-.04.12-.04l.14-.23c-.06-.19-.19-.51-.18-.71,0-.01,0-.03,0-.04h0c-.07,0-.18-.06-.24-.07-.06,0-.16-.05-.23-.06-.11,0-.3-.09-.42-.12-.07,0-.15-.04-.21-.04-.13,0-.35-.09-.48-.11-.05,0-.14-.04-.2-.05-.1,0-.28-.08-.39-.12h0s-.2-.04-.2-.04c-.13,0-.35-.1-.48-.11-.05,0-.12-.04-.17-.05-.03,0-.08-.03-.11-.03,0,0-.02,0-.02,0-.01,0-.08-.01-.09-.01-.04,0-.13-.04-.18-.07l-.21-.05c-.13,0-.35-.1-.48-.11-.05,0-.14-.05-.19-.05-.04,0-.1-.03-.13-.04-.02,0-.05-.01-.07-.01h-.02c-.06,0-.18-.06-.26-.09-.02,0-.04,0-.06,0-.02,0-.05,0-.07,0h-.07s-.08-.3-.08-.3v-.04s.06-.24.06-.24h.15c.15,0,.43-.11.58-.09.09,0,.24-.06.33-.05l.16-.02c.2.02.56-.12.76-.11.12,0,.34-.08.46-.07.12.01.34-.08.46-.07.16.01.44-.1.6-.08.08,0,.22-.05.3-.04.04,0,.11-.03.15-.02.08,0,.23-.06.31-.04.08.02.22-.04.3-.04.03,0,.08-.02.1-.02.05,0,.14-.03.19-.02.03,0,.09-.01.12-.01.02,0,.06-.01.08-.01.06,0,.19-.06.27-.02,0,0,.01,0,.03,0,.02,0,.04-.01.06-.01l.09-.17v-.24s.09-.06.09-.06c.01,0,.04-.03.05-.04.04-.03.14-.12.2-.12h0s.04-.01.06-.02l.11-.27.18-.04h0c-.04-.08,0-.2-.04-.27v-.03c-.03-.05,0-.22.04-.32l-.26-3.18.67-.09.04.04Z"/>
  </g>
</svg>