<?xml version="1.0" encoding="UTF-8"?>
<svg id="Layer_2" data-name="Layer 2" xmlns="http://www.w3.org/2000/svg" viewBox="0 0 16.59 16.25">
  <defs>
    <style>
      .cls-1 {
        fill: none;
        fill-rule: evenodd;
        stroke: #000;
        stroke-miterlimit: 10;
        stroke-width: .25px;
      }
    </style>
  </defs>
  <g id="Layer_1-2" data-name="Layer 1">
    <path class="cls-1" d="M3.71.25c.06-.02.13-.04.18-.06.04-.02.09-.03.13-.05.02,0,.05-.01.08-.01.09,0,.59,0,.59,0l.02.03c.14.19.16.49.07.59-.03.03-.04.05-.08.07.03.07.07.16.07.24,0,.12.07.24.07.36,0,.04.02.08.02.13.02.01.04.03.05.06.03.08.14.15.2.21.05.05.15.11.19.18,0,0,0,0,0,0,.02,0,.05.02.07.03.05.03.14.05.19.06.08.02.21.03.29.05.08.01.21.03.29.04.02,0,.05.01.07.02.02.01.05.03.07.05.01,0,.03.02.05.03l.27.05c.18.42.62,1.13.8,1.55.03.06.06.12.09.18.09.21.28.59.37.8.17.36.34.71.51,1.07,0,0,.12.02.13.03,0,0,.09.01.1.02,0,0,.04.03.04.04,0,0,0,0,.01,0,.15.05.23.14.28.21.06.07.14.13.27.2,0,0,.09.05.1.04,0,0-.05.07-.04.06,0,.01-.02.03,0,.07.04-.02.07-.03.11-.05.17-.1.34-.2.51-.31.18-.15.37-.28.58-.4.05-.06.79-.42.85-.45.04-.02.07-.03.11-.05.13-.06.25-.14.38-.22.03-.02.09-.06.13-.08.1-.06.2-.12.3-.19.06-.04.11-.07.17-.11.03-.01.07-.05.1-.06.03-.01.09-.03.11-.05.11-.05.22-.1.33-.15.16-.08.33-.17.5-.27.06-.04.13-.07.2-.11.13-.07.26-.14.4-.19.07-.03.14-.05.21-.08.26-.1.51-.2.78-.29.01,0,.03,0,.04-.01.04-.02.13-.04.18-.06.07-.03.14-.12.21-.15l.22-.16.38.18.03.22s-.1.01-.09.01c0,0-.02,0-.02,0,.03.01-.42.24-.4.26-.2.13-.41.27-.63.4-.23.14-.47.29-.72.43,0,.02-.43.23-.43.25-.04.02-.07.04-.11.06-.04.02-.08.05-.12.07-.04.02-.09.05-.13.07-.05.02-.1.05-.15.07-.14.07-.28.13-.43.19-.13.05-.27.11-.4.16-.11.05-.22.1-.33.15-.06.03-.13.06-.19.09,0,0-.19.08-.19.08-.26.11-.53.22-.8.32-.03.01-.08.03-.11.04-.13.05-.25.09-.38.14,0,0-.11.04-.11.04.01.06.03.09.06.12.16.05.33.11.49.19.1.05.2.1.3.16.09.05.18.1.27.15.14.07.27.14.41.2.01,0,.02.01.03.02.09.04.18.09.27.13.13.07.26.14.4.21.06.03.12.06.18.1.05.03.1.05.14.08.17.09.35.17.52.26-.01.02.4.17.38.18.11.05.23.11.34.16.03.02.07.04.1.06,0,0,.04.02.04.03,0,0,.13.07.12.08,0,.01-.11.14-.12.16-.1.12-.13.15-.27.24,0,0-.05.03-.05.03-.04.05-.59-.1-.64-.07-.02.02-.33-.06-.36-.03,0,.01-.15-.02-.16,0-.03.04-.36-.05-.37-.02h-.27c-.02.07-.68-.09-.7-.01,0,.04-.3-.04-.3,0,0,.01-.12-.02-.12,0-.05,0-.1,0-.15,0-.16.01-.31,0-.46,0-.04,0-.09,0-.13,0,.03.04.06.08.09.13.06.1.12.21.17.35.01.03.02.06.03.09.16.24.26.54.26.84,0,.06,0,.13,0,.19,0,.07,0,.15-.01.22,0,.07-.01.13-.03.2,0,.01-.03.15-.03.16,0,.02-.17.19-.17.22,0,0-.07-.02-.07-.01-.1-.02-.17-.06-.22-.1,0,.03.01.1.02.13,0,.03-.01.08,0,.12,0,.06,0,.13,0,.19,0,.06-.01.12-.02.18-.01.06-.03.12-.04.17,0,.03-.02.07-.03.1-.01.01.08.15.07.16-.03.01-.05.3-.08.31,0,0-.04.04-.04.04-.03.02-.05.04-.07.06-.11.11-.16.23-.17.4,0,.05,0,.09-.01.14,0,.07-.01.13-.02.2,0,.03,0,.05,0,.07,0,.11,0,.23,0,.33,0,.04,0,.08,0,.12,0,.07,0,.13-.02.19,0,.03-.01.07,0,.09,0,0,.01.03.02.03l.16.05.12-.16.11.21s.03.06.05.08c.04.05.08.16.11.21.1.17,0,.48-.05.54l-.05.1h-.16s-.1.11-.1.11c0,.01,0,.04,0,.06,0,.07,0,.27-.11.34l-.03.03-.05.02s-.07.02-.07.02c.03.03-.31.06-.28.09.09.08-.65.14-.66.23,0,.04-.15-.3-.17-.24l-.05-.07h0s0,0,0,0c-.03,0,.03-.03.02-.05l.18.14.11-.17s-.09-.2-.09-.25c0-.02-.05-.06-.05-.07,0-.06-.05-.01-.05-.07-.04-.02-.15-.1-.18-.14,0,0-.02-.01-.02-.02-.04-.05-.1-.12-.11-.2,0-.04-.01-.09-.02-.13,0-.01-.02-.07-.02-.08,0-.01.01-.06.01-.07,0-.01-.01-.02-.02-.03-.04-.06-.08-.14-.09-.25-.02-.25-.11-.47-.24-.72,0-.04-.08-.14-.09-.18-.09-.16-.17-.32-.22-.5-.02-.03-.04-.07-.06-.1-.03-.07-.22-.05-.22-.11l-.05-.25c0-.06-.08-.34-.07-.4,0,0,.02-.02.01-.03,0,0,0-.02,0-.02-.02-.01.03-.08.01-.1-.03-.04-.05-.08-.07-.12-.02-.04-.04-.08-.05-.12,0,0-.02,0-.02,0-.06-.02-.13-.04-.26-.14-.02-.01-.03-.03-.05-.05-.06-.05-.11-.11-.16-.17-.01-.01-.02-.02-.03-.04,0-.03-.09-.02-.09-.05,0-.05-.13-.03-.15-.08-.01-.03-.09-.02-.11-.05-.02-.02-.04-.03-.07-.05,0,0-.01,0-.01,0-.06-.04-.14-.08-.22-.12-.02,0-.13.02-.15.03-.02.02-.05.13-.07.15-.02.04-.03.08-.05.13,0,.06-.08.26-.08.32,0,.01,0,.05,0,.07,0,.02.03.02.03.03,0,.11.19.36.14.45-.02.03-.12.13-.14.16.01.02-.02.08,0,.1,0,.02-.05.02-.04.03-.08.04-.16.05-.27.07-.01-.01-.04,0-.05,0-.01-.02-.08-.03-.09-.05-.07-.04-.13-.08-.21-.1-.15.03-.28.06-.39.08-.09.02-.17.04-.26.06-.09.02-.18.04-.27.05,0,0-.05.02-.06,0-.01,0-.07-.02-.08-.02-.04-.03-.29-.05-.34-.07-.05-.02-.28-.04-.33-.07,0,0,0-.08,0-.08l.02-.11s0-.04.01-.06c.04-.22.14-.42.27-.6.05-.07.1-.13.16-.2.04-.05.08-.1.12-.16,0,0,.02-.03.02-.03.02-.02.17-.12.19-.14.02-.06.04-.12.06-.18.05-.15.1-.29.24-.42,0,0,0,0,0,0,0,0,0,0,0-.01.02-.03.04-.07.05-.11.03-.06.06-.11.11-.16.07-.07.16-.15.3-.22,0,0,.03-.02.03-.02.02-.02.2-.03.22-.05,0,0,.06-.06.07-.06l.07-.06s.16-.15.18-.17c.01-.2.06-.4.11-.61.02-.08.04-.17.06-.26,0-.01-.01-.04-.01-.05h0c-.07-.01-.22-.1-.3-.12-.04,0-.13-.06-.17-.06-.03,0-.03-.05-.05-.05-.09-.07-.18-.14-.28-.24-.06-.03-.1-.07-.15-.1-.11-.08-.24-.16-.36-.26-.05-.04-.11-.07-.16-.11-.1-.06-.21-.13-.32-.24,0,0,0,0,0,0,0-.02-.1-.04-.1-.06,0-.01-.1-.03-.1-.04-.19-.08-.39-.14-.59-.2-.05-.02-.1-.03-.16-.05-.02,0-.04-.01-.07-.02-.02,0-.04-.01-.06-.02-.02,0-.05-.01-.07-.02-.01,0-.02,0-.04,0-.02,0-.09-.01-.12-.02-.06-.02-.14-.04-.22-.11-.01-.03-.21-.07-.24-.09-.08-.03-.16-.05-.24-.07-.07-.02-.14-.04-.2-.06-.05-.01-.09-.03-.14-.04-.05-.02-.11-.03-.16-.05-.03,0-.05-.02-.08-.03-.06-.02-.11-.04-.17-.06-.01,0-.02,0-.03,0-.02,0-.04,0-.05-.01,0,0-.03,0-.03,0-.1-.03-.2-.06-.31-.13-.03,0-.05-.01-.07-.02-.03,0-.06-.01-.08-.02,0,0-.07-.02-.08-.02-.02-.02-.2-.27-.22-.29,0,0,0-.04,0-.04-.02-.01-.04-.24-.06-.25-.01,0,.11,0,.1,0,.12,0,.25-.02.38-.05.08-.01.15-.03.23-.05,0-.01.12,0,.12-.02.07-.01.14-.03.21-.04.13-.03.26-.06.4-.09.13-.03.27-.05.42-.07.05,0,.1-.01.14-.02.11-.01.21-.03.3-.05.12-.02.24-.05.34-.07.05-.01.1-.02.15-.03.08-.02.17-.03.26-.05.04,0,.09-.02.13-.03.04,0,.08-.02.12-.03.05,0,.1-.03.15-.02.08,0,.17-.03.26-.05.03,0,.06-.02.09-.02.06-.01.11-.02.17-.03.04,0,.07,0,.11-.02.03,0,.05-.01.08-.02.05-.02.11-.03.16-.04.02,0,.05,0,.07,0,0,0,.01,0,.03,0,.02,0,.04-.02.06-.02l.06-.19-.02-.16s-.02-.1-.02-.11c0,0,.07-.06.07-.07.02-.01.04-.03.05-.05.05-.05.11-.1.17-.13,0,0,0,0,0,0,.02,0,.03-.01.05-.03,0-.02.05-.27.04-.29,0-.01.14-.03.13-.05,0,0,0-.01,0-.01-.05-.09-.1-.18-.14-.27v-.03c-.07-.06-.15-.18-.12-.29,0,0-.06-.09-.07-.1-.05-.02-.26-.43-.3-.43-.03,0-.18-.26-.21-.24l-.1-.11-.1-.17c-.1-.07-.45-.98-.44-1.05v-.04s-.02-.04-.02-.04c.03-.07-.21-.8-.12-.84Z"/>
  </g>
</svg>