<?xml version="1.0" encoding="UTF-8"?>
<svg id="Layer_2" data-name="Layer 2" xmlns="http://www.w3.org/2000/svg" viewBox="0 0 13.77 16.58">
  <defs>
    <style>
      .cls-1 {
        fill: none;
        fill-rule: evenodd;
        stroke: #000;
        stroke-miterlimit: 10;
        stroke-width: .25px;
      }
    </style>
  </defs>
  <g id="Layer_1-2" data-name="Layer 1">
    <path class="cls-1" d="M1.36.35c.1-.04.21-.08.31-.12.07-.03.15-.06.22-.08.04-.02.09-.02.13-.02.17,0,.97,0,.97,0l.04.05c.25.34.15.86,0,1.05-.05.06-.1.1-.16.13.05.13.08.28.08.43,0,.21.05.42.06.63,0,.07.02.15.02.22.03.02.07.05.08.1.05.15.19.26.31.37.1.09.21.19.29.31,0,0,0,0,0,0,.04.02.08.03.11.05.1.05.21.09.3.11.15.03.32.06.47.08.14.02.31.04.46.07.04,0,.08.02.12.04.04.02.09.05.13.08.03.02.06.04.09.05l.45.02c.09.22.65.95.75,1.17.04.05.06.1.09.14.04.11.28.53.33.63.15.28.3.57.45.85,0,.02.08.03.09.05,0,.01.06.02.07.04,0,.01.03.03.04.05,0,0,0,0,.01,0,.11,0,.18.01.24.02.06,0,.13,0,.23.01.01-.01.07,0,.08,0,.01-.01,0,.02,0,0,0,0,0,0,.03,0,.03-.02.05-.04.08-.05.13-.1.25-.2.37-.3.1-.16.23-.29.38-.41.08-.11.55-.35.67-.4.03-.01.06-.03.09-.04.09-.04.19-.13.29-.2.02,0,.07-.07.09-.07.07-.05.14-.12.21-.18.04-.04.08-.07.12-.11.01,0,.06-.06.07-.06.01,0,.08-.02.09-.03.09-.03.18-.07.27-.12.13-.07.25-.15.38-.25.05-.03.1-.07.15-.1.1-.06.21-.12.32-.16.06-.02.11-.03.17-.05.21-.06.43-.12.65-.17.01,0,.02,0,.03,0,.02-.01.12-.03.15-.04.03-.02.09-.15.12-.16l.13-.17.26.11.05.13s-.03.01-.02.02c0,0,0,0,0,0,.05.02-.15.16-.13.19-.07.1-.16.21-.27.32-.11.12-.24.24-.38.36,0,.04-.23.17-.24.21-.02.02-.04.04-.06.05-.02,0-.05.05-.07.06-.02,0-.06.04-.08.05-.03.02-.06.04-.09.05-.09.05-.18.1-.28.14-.09.04-.18.08-.27.12-.07.03-.15.06-.22.09-.04.02-.09.04-.13.05-.01,0-.12.05-.13.05-.18.07-.36.13-.55.18-.02,0-.06.01-.08.02-.09.02-.18.05-.26.08,0,0-.07.02-.08.03,0,.03,0,.05,0,.07.05.04.1.08.16.15.04.04.07.08.11.13.03.04.07.08.1.12.05.06.11.11.16.17,0,0,0,0,.01.01.04.04.07.08.11.11.05.06.1.12.15.17.02.03.04.05.07.08.02.02.03.04.05.06.06.07.13.14.19.22-.03.03.17.13.15.16.04.05.09.09.13.14.01.01.03.03.04.05,0,0,.02.02.01.02,0,.01.06.05.05.07-.01.03-.08.11-.1.14-.07.1-.11.14-.21.22,0,0-.04.03-.04.03-.07.08-.42.06-.51.12-.04.03-.23.03-.27.09-.02.02-.1.02-.12.05-.05.07-.25.07-.27.12l-.17.11c-.04.14-.4.15-.43.28-.01.06-.17.07-.16.14,0,.03-.06.03-.06.05-.02.02-.05.04-.07.07-.07.08-.15.15-.21.22-.02.02-.04.04-.06.06.02.04.04.08.06.12.04.09.09.18.13.3.01.02.02.05.03.07.2.17.3.41.32.65,0,.05.01.11.02.16,0,.06,0,.12.01.18,0,.06,0,.11,0,.17,0,.02,0,.11,0,.14,0,.04-.08.16-.08.21,0,.01-.03.01-.03.03-.05.04-.09.06-.13.09,0,.02,0,.1,0,.11,0,.02-.05.06-.04.08-.02.04-.04.09-.06.14-.02.04-.04.09-.07.13-.02.04-.04.08-.07.13-.01.02-.03.05-.04.07-.03.02,0,.1-.03.12-.05.03-.1.19-.15.21,0,0-.03.02-.04.02-.02.01-.05.03-.07.04-.11.07-.19.15-.25.25-.02.03-.04.06-.06.09-.03.04-.05.08-.07.13,0,.02-.01.04-.02.06-.02.09-.05.18-.08.26-.01.03-.02.06-.03.09,0,.05-.02.1-.03.16,0,.03,0,.06,0,.09,0,0,0,.02,0,.03l.08.1.06.04.06.19s.02.06.02.07c.02.02.04.16.06.19.05.09,0,.43-.02.47l-.03.09-.08.08-.05.11s0,.04,0,.05c0,.04,0,.26-.05.3l-.02.03-.02.03s-.02.03,0,.04c.05.06-.09.11-.03.17.16.15-.17.25-.19.41,0,.07-.1-.05-.14.05h-.04s-.05.02-.05.02h-.02c-.05,0-.05-.03-.07-.06v.32s0-.25,0-.25c-.01-.02-.11-.24-.11-.26,0,0-.07-.05-.08-.06,0-.03-.09.12-.09.09-.02-.01-.16-.1-.18-.13,0,0-.02-.01-.02-.02-.04-.03-.11-.09-.12-.19,0-.06-.01-.12-.02-.18,0-.02-.01-.06-.01-.09,0-.02,0-.05,0-.07,0-.01,0-.03-.01-.04-.02-.1-.04-.2-.02-.32.03-.27-.01-.52-.11-.83-.01-.07-.06-.17-.08-.23-.08-.18-.15-.36-.17-.57-.02-.04-.04-.07-.06-.11-.05-.13-.14-.21-.13-.32v-.27c0-.11-.04-.33-.03-.43,0,0,0-.03,0-.04,0,0,0-.02-.02-.02-.04-.02-.04-.07-.07-.1-.03-.04-.07-.07-.1-.12-.03-.04-.05-.08-.07-.12,0,.01-.02.03-.03.04-.06.09-.14.17-.35.11-.02,0-.05-.02-.07-.03-.08-.03-.16-.08-.24-.12-.02,0-.03-.02-.05-.03,0-.02-.14.05-.14.03,0-.02-.2.07-.21.04,0-.02-.14.05-.14.03-.02,0-.05.01-.09.01,0,0-.02,0-.02,0-.09,0-.19,0-.29,0-.04.02-.12.03-.15.06-.04.03-.08.1-.12.13-.03.04-.06.08-.09.12,0,.03-.15.3-.15.33,0,0,.01.06.01.06,0,0,.06,0,.06,0,0,.06.38.37.35.42,0,.02-.16.15-.17.17.02.03.02.08.04.11.02.03,0,.05,0,.08-.01.1-.06.19-.18.32,0,0-.04.04-.05.04,0,0-.11,0-.12-.02-.08-.02-.17-.03-.25-.04-.18.01-.32.01-.45-.01-.11-.02-.2-.04-.3-.06-.11-.02-.21-.05-.31-.08-.02-.01-.05,0-.07-.02-.02-.01-.07-.03-.09-.04-.07-.06-.27-.09-.36-.13-.08-.03-.27-.07-.35-.12-.02-.01-.02-.06-.03-.07l-.02-.08s0-.05,0-.05c-.01-.22.05-.42.17-.59.04-.06.1-.12.16-.18.04-.04.08-.09.12-.13,0,0,.02-.02.02-.02.03-.03.14-.11.17-.14.04-.05.07-.1.1-.15.09-.12.2-.23.37-.29,0,0,0,0,0,0,0,0,0,0,0-.01.02-.03.04-.06.07-.1.04-.05.08-.1.14-.12.1-.04.19-.11.31-.18,0,0,.03-.02.03-.02.04-.03.16-.06.2-.09.01-.01.05-.05.07-.06l.07-.06s.14-.13.18-.16c.08-.17.18-.34.27-.53.04-.07.07-.14.1-.21,0,0-.02-.04-.02-.04h0s-.21-.16-.25-.17c-.02,0-.12-.09-.15-.1-.01,0,.02-.08,0-.08,0-.11,0-.22-.02-.35-.01-.06-.02-.11-.03-.17-.02-.13-.06-.27-.11-.42-.02-.06-.04-.12-.06-.18-.04-.11-.09-.23-.14-.36h0s-.05-.07-.05-.1c-.02-.02-.07-.05-.09-.07-.16-.12-.33-.23-.51-.32-.05-.02-.09-.05-.14-.07-.02,0-.04-.02-.06-.03-.02,0-.04-.02-.06-.02-.02,0-.04-.02-.07-.03-.01,0-.02,0-.03-.01-.03-.01-.08-.03-.11-.04-.06-.03-.13-.07-.18-.14-.03-.05-.15-.1-.19-.15-.07-.04-.14-.08-.22-.12-.06-.03-.12-.06-.18-.1-.04-.02-.08-.05-.13-.07-.05-.02-.1-.05-.14-.07-.02-.01-.05-.03-.07-.04-.05-.03-.1-.05-.15-.08,0,0-.02-.01-.03-.02-.02,0-.03-.02-.05-.02,0,0-.02-.01-.03-.01-.09-.05-.18-.1-.28-.17-.02-.01-.04-.02-.06-.03-.02-.01-.05-.03-.07-.04-.01-.01-.06-.03-.07-.04-.03-.04-.15-.19-.19-.23,0,0-.01-.03-.02-.03-.03-.03-.07-.16-.1-.18-.02-.01.03-.02,0-.03.02-.04.03-.09.06-.16.02-.04.04-.07.06-.12-.01-.02.05-.04.04-.06.02-.03.05-.07.08-.11.05-.06.11-.13.2-.2.07-.06.16-.12.27-.18.03-.02.07-.03.1-.05.08-.04.15-.08.21-.12.08-.05.13-.11.18-.17.02-.03.05-.05.07-.08.04-.04.09-.09.14-.13.02-.02.05-.04.08-.07.02-.02.05-.04.07-.06.03,0,.06-.07.09-.06.05-.04.1-.08.15-.13.02-.02.04-.03.05-.05.03-.03.06-.05.1-.08.02-.02.04-.03.06-.05.01-.01.03-.03.04-.04.03-.03.06-.06.09-.08.01,0,.03-.03.04-.02,0,0,0,0,.02,0,0,0,.02-.03.03-.03l.04-.16v-.13s-.01-.07-.01-.08c0-.02.04-.06.05-.08.01-.01.02-.03.03-.04.04-.05.07-.1.1-.13,0,0,0,0,0,0,0,0,.02-.02.02-.03,0-.04.01-.2,0-.24-.01-.02.06-.05.04-.07,0,0,0,0,0,0-.04-.07-.08-.14-.11-.21v-.02c-.07-.04-.15-.11-.17-.18-.02,0-.05-.06-.07-.07-.08-.03-.24-.27-.32-.27-.05,0-.17-.12-.22-.08l-.1-.02-.1-.13c-.18-.13-.36-.73-.34-.86v-.03s0-.03,0-.03c.06-.13,0-.57.15-.62Z"/>
  </g>
</svg>