<?xml version="1.0" encoding="UTF-8"?>
<svg id="Layer_2" data-name="Layer 2" xmlns="http://www.w3.org/2000/svg" viewBox="0 0 9.71 13.09">
  <defs>
    <style>
      .cls-1 {
        fill: none;
        fill-rule: evenodd;
        stroke: #000;
        stroke-miterlimit: 10;
        stroke-width: .25px;
      }
    </style>
  </defs>
  <g id="Layer_1-2" data-name="Layer 1">
    <path class="cls-1" d="M1.55.54s.14-.09.18-.11c.03-.01.1-.07.12-.08.01,0,.06-.03.07-.03.03,0,.18-.09.26-.09.12-.03.24-.06.27-.09,0,0,.02.01.03,0,.16.06.18.18.19.18,0,0-.01,0-.02,0,.05.02.08.05.11.08.04.04.09.08.13.12.02.01.03.03.05.04.02,0,.04,0,.06.01.05.03.12.04.2.05.06.01.13,0,.18.04,0,0,0,0,0,0,.02,0,.04,0,.07,0,.06,0,.11,0,.17-.01.09-.02.18-.03.26-.05.08-.02.17-.04.25-.05.05,0,.1,0,.14,0,.02,0,.03,0,.05,0,.03-.03.23-.05.26-.08.11-.09.42,0,.57-.08.03,0,.05,0,.07,0,.07-.04.22.04.3,0,.15,0,.31.02.47.05.03,0,.05.01.08.02,0,0,0,0,0,0,.14-.06.29-.11.44-.15.12-.03.24-.07.36-.09.04-.01.07-.03.11-.04.18-.05.38-.05.57-.01.05.01.11.01.16.01.01,0,.04,0,.05,0,.04,0,.07,0,.11,0,.02,0,.04,0,.06,0,0,0,.03,0,.04,0,0,0,.04,0,.04.02.11.05.21.08.32.11.06.02.13.05.21.1.12.08.23.17.35.27,0,.02.05.03.06.05.03.05.06.02.09.07.03.07.11.16.14.23.26.42.36.86.41,1.32,0,.02,0,.05,0,.07,0,.02,0,.05,0,.06,0,.37-.04.71-.14,1.02,0,.01-.01.03-.01.04-.02.07-.04.14-.06.21-.04.2-.07.42-.1.67,0,.07-.01.14-.02.21-.02.16-.03.32-.05.48-.05.32-.08.64-.15.96-.04.19-.12.36-.2.52-.02.05-.04.1-.07.16,0,.03-.02.05-.03.08-.03.06-.05.13-.06.18,0,.03-.03.12-.03.15-.03.13-.06.26-.09.39-.01.06-.02.12-.03.18-.01.1-.02.2-.03.31-.01.1-.02.2-.03.3,0,.05,0,.1,0,.16,0,.01,0,.03,0,.04.03.07.04.14.04.22,0,.08-.02.14-.04.19-.02.04-.04.07-.05.1,0,.02-.02.03-.03.05-.01.03-.03.05-.05.08,0,0,0,.01-.01.02-.02.09-.05.18-.08.27,0,.01-.01.04-.02.05,0,.01-.03.03-.04.04-.04.04-.07.09-.11.13-.09.11-.18.21-.29.3-.07.05-.14.12-.21.18-.02.02-.04.04-.07.05,0,0-.01.02-.02.03-.03.04-.06.08-.1.12-.05.05-.08.09-.1.16-.16.19-.34.86-.53,1.03,0,.01,0,.02-.01.04-.01.05-.03.1-.04.15-.03.17-.13.3-.3.5-.2.13-.4.3-.59.44,0,0-.04.01-.05.02,0,0-.01,0-.01,0-.03,0-.06,0-.08,0-.03.02-.1.18-.13.2-.04.03-.15-.1-.19-.07,0,0-.04,0-.05,0-.02.01-.06.09-.08.1-.01,0-.07-.01-.08,0,0,0,0,0-.01,0-.02,0-.06,0-.07-.02,0-.01-.02-.03-.03-.04-.03-.03-.07-.06-.1-.1-.04-.05-.1-.11-.18-.19-.01-.01-.02-.02-.03-.03-.02-.01-.03-.03-.05-.04-.04-.03-.07-.06-.11-.1-.02-.02-.04-.04-.06-.07-.09-.06-.14-.12-.18-.18-.02,0-.04-.08-.06-.08-.03-.04-.05-.09-.09-.12,0,0,0,0-.01-.01,0,0-.01,0-.02,0-.02,0-.04-.01-.06-.02-.03-.01-.07-.02-.1-.04-.02-.01-.04-.02-.06-.03,0,0-.02.02-.03.03-.07.05-.13.1-.25.11-.02,0-.03,0-.05,0-.05,0-.1,0-.15,0-.01,0-.02,0-.03,0-.03,0-.16.06-.19.06-.02,0-.12.04-.14.04-.02,0-.04.01-.06.02,0,0-.01,0-.01,0-.15.02-.28.03-.41.09-.03,0-.11.08-.14.07,0,0,0,.01,0,.01,0,0,.01-.01,0-.02-.04-.01.06.07.02.05-.02,0-.09.03-.1.02,0,.04-.04.07-.14.13,0,0-.02.01-.03.01,0,0-.05,0-.06-.01-.04,0-.09-.02-.13-.03-.08-.02-.15-.05-.22-.09-.14-.09-.27-.17-.38-.26-.05-.04-.1-.07-.16-.1-.05-.03-.1-.06-.16-.1-.02-.01-.03-.03-.05-.04,0,0-.04-.03-.05-.04,0,0-.02-.03-.02-.03-.13-.17-.21-.34-.25-.5,0-.03-.01-.05-.02-.08-.05-.17-.07-.35-.09-.49,0,0,0,0,0,0,0,0,0,0,0,0-.01-.06-.02-.12-.02-.16,0-.1-.02-.24-.03-.38,0-.01,0-.04,0-.05-.01-.17-.03-.36-.04-.55,0-.05,0-.09,0-.14-.03-.08-.16-.26-.19-.35,0-.02,0-.07,0-.09-.01-.26-.03-.54-.06-.82-.03-.29-.03-.58,0-.88-.03-.22-.06-.43-.08-.62,0-.03,0-.05-.01-.08-.01-.09-.03-.18-.02-.3,0-.06,0-.11,0-.16,0-.06,0-.12,0-.18,0-.04,0-.09,0-.14,0-.07,0-.13,0-.19,0-.06,0-.12,0-.18,0-.14,0-.28,0-.43,0-.09,0-.17-.01-.26-.02-.18-.03-.39,0-.63,0-.05.01-.1.02-.15.02-.12.06-.23.12-.35.06-.11.09-.21.11-.32.02-.12.07-.24.11-.36,0-.02.02-.06.03-.08.06-.15.12-.3.18-.45.03-.04.07-.17.1-.22.01-.03.02-.06.04-.09.08-.14.12-.27.14-.42,0,0,0,0,0,0,0-.04,0-.09,0-.14,0-.05,0-.11.01-.15,0-.03.01-.05.02-.07.01-.02,0-.01.01-.03.01-.02,0-.05.01-.07,0-.13.08-.28.16-.4,0,0,0-.01,0-.02,0,0,0-.01.01-.02.08-.11.18-.21.29-.29Z"/>
  </g>
</svg>