<?xml version="1.0" encoding="UTF-8"?>
<svg id="Layer_2" data-name="Layer 2" xmlns="http://www.w3.org/2000/svg" viewBox="0 0 9.7 13.2">
  <defs>
    <style>
      .cls-1 {
        fill: none;
        fill-rule: evenodd;
        stroke: #000;
        stroke-miterlimit: 10;
        stroke-width: .25px;
      }
    </style>
  </defs>
  <g id="Layer_1-2" data-name="Layer 1">
    <path class="cls-1" d="M1.77.88s.13-.09.16-.1c.02,0,.09-.07.11-.07.01,0,.05-.03.07-.03.02,0,.17-.09.23-.09.11-.03.21-.06.24-.1,0,0,.02,0,.02,0,.15.03.18.12.2.1,0,0,0,0,0,0,.05.01.08.03.11.05.04.02.09.05.14.07.02,0,.03.02.05.02.02,0,.04,0,.05,0,.05.02.12.02.19.02.06,0,.12,0,.17.02,0,0,0,0,0,0,.02,0,.04,0,.06,0,.05,0,.1-.01.15-.02.08-.02.16-.04.24-.06.07-.02.15-.04.23-.06.05-.01.09-.01.13-.01.02,0,.03,0,.05,0,.03-.03.2-.05.23-.08.12-.09.4-.04.56-.13.02,0,.05,0,.07,0,.08-.04.22.01.3-.03.15,0,.31,0,.48.02.03,0,.05,0,.08,0,0,0,0,0,0,0,.14-.05.29-.09.44-.13.12-.03.24-.05.36-.07.04-.01.08-.02.12-.03.18-.03.38-.02.57.02.05.01.11.02.16.02.01,0,.04,0,.05,0,.04,0,.07.01.11.02.02,0,.04,0,.06.01,0,0,.03,0,.04,0,0,0,.03.01.04.02.11.05.21.09.31.14.06.03.13.07.2.12.11.09.22.18.33.29,0,.02.04.03.05.05.03.06.07.04.09.1.03.08.11.17.14.24.25.44.36.89.41,1.35,0,.02,0,.05,0,.07,0,.02,0,.05,0,.07.02.38-.01.74-.1,1.06,0,.02,0,.03-.01.05-.02.07-.04.15-.06.22-.03.21-.06.44-.08.69,0,.07-.01.14-.02.22-.01.17-.03.33-.04.5-.04.33-.07.65-.13.98-.04.18-.11.35-.18.51-.02.05-.04.1-.06.16,0,.03-.02.05-.03.08-.02.06-.04.12-.06.18,0,.03-.03.11-.03.15-.03.13-.06.25-.09.38-.01.06-.02.12-.03.18-.01.1-.03.2-.04.3-.01.1-.02.19-.03.29,0,.05,0,.1,0,.15,0,.01,0,.03,0,.04.02.07.03.14.03.22,0,.08-.02.14-.05.19-.02.03-.04.07-.06.09-.01.01-.02.03-.03.04-.02.03-.04.05-.06.08,0,0,0,0-.01.01-.02.08-.05.17-.08.25,0,.01-.01.04-.02.05,0,.01-.03.03-.03.04-.03.04-.07.09-.1.13-.08.1-.17.21-.27.3-.07.06-.13.12-.2.18-.02.02-.04.04-.06.06,0,0-.01.02-.02.03-.03.04-.06.08-.1.12-.04.04-.08.09-.1.15-.17.2-.36.8-.57.97,0,.01,0,.02-.01.03-.02.05-.04.09-.06.14-.05.16-.16.29-.33.47-.21.14-.42.31-.62.46,0,0-.04.01-.04.02,0,0-.01,0-.01,0-.03,0-.05.01-.07.01-.03.02-.1.16-.13.18-.04.03-.14-.07-.18-.04,0,0-.04,0-.04,0-.02.01-.06.08-.08.09-.01,0-.06,0-.07,0,0,0,0,0-.01,0-.02,0-.05,0-.07,0,0,0-.02-.02-.03-.03-.03-.02-.08-.04-.11-.07-.04-.04-.11-.08-.2-.15-.01,0-.02-.02-.03-.02-.02-.01-.03-.02-.05-.03-.04-.03-.07-.05-.11-.08-.02-.02-.04-.04-.06-.06-.09-.05-.14-.1-.19-.15-.02,0-.04-.06-.06-.06-.03-.03-.06-.07-.09-.1,0,0,0,0-.01-.01,0,0-.01,0-.02,0-.02,0-.04-.01-.05-.02-.03,0-.06-.02-.09-.03-.02,0-.04-.02-.05-.03,0,0-.02.01-.03.02-.07.04-.13.08-.24.09-.01,0-.03,0-.05,0-.05,0-.1,0-.14,0,0,0-.02,0-.03,0-.03,0-.14.05-.18.05-.03,0-.11.04-.13.03-.02,0-.03.01-.05.01,0,0,0,0-.01,0-.14.02-.27.02-.39.07-.03,0-.1.06-.13.05,0,0,0,.01,0,0,0,0,0-.01,0-.01-.05-.02.03.05-.02.03-.02,0-.08.02-.1.01-.01.03-.06.04-.15.09,0,0-.02.01-.03,0,0,0-.05,0-.06-.01-.04,0-.08-.02-.12-.03-.07-.02-.14-.05-.2-.09-.13-.08-.25-.16-.35-.24-.05-.04-.1-.07-.15-.1-.05-.03-.1-.06-.14-.09-.02-.01-.03-.03-.05-.04-.01,0-.03-.03-.04-.04,0,0-.02-.02-.02-.03-.13-.16-.22-.33-.27-.48,0-.03-.02-.05-.03-.08-.06-.17-.1-.35-.14-.49,0,0,0,0,0,0,0,0,0,0,0,0-.01-.06-.03-.12-.04-.16-.01-.11-.05-.24-.07-.39,0-.01,0-.04,0-.05-.03-.17-.06-.35-.08-.54,0-.04,0-.09-.01-.14-.04-.09-.15-.26-.18-.34,0-.02,0-.07,0-.09-.03-.26-.06-.53-.09-.81-.03-.28-.04-.57-.02-.87-.03-.22-.04-.42-.05-.61,0-.03,0-.05,0-.08,0-.09-.01-.19,0-.3,0-.06,0-.11.01-.16,0-.06,0-.12,0-.18,0-.04,0-.09,0-.14,0-.07,0-.13,0-.19,0-.06,0-.12,0-.18,0-.14.02-.28.03-.43,0-.09,0-.17,0-.25,0-.18,0-.38.04-.62,0-.05.02-.09.03-.14.02-.11.06-.23.12-.34.05-.1.09-.21.12-.32.03-.12.07-.23.12-.35,0-.02.02-.06.03-.07.06-.15.12-.29.19-.43.03-.05.07-.16.1-.21.01-.03.03-.06.05-.09.08-.14.13-.26.16-.41,0,0,0,0,0,0,0-.04.02-.09.03-.14.01-.05.02-.11.03-.15,0-.03.02-.06.03-.08.01-.02,0-.02.02-.03.01-.02,0-.05.02-.06.02-.13.1-.27.18-.39,0,0,0-.01,0-.01,0,0,0-.01.01-.01.08-.11.18-.2.28-.28Z"/>
  </g>
</svg>