<?xml version="1.0" encoding="UTF-8"?>
<svg id="Layer_2" data-name="Layer 2" xmlns="http://www.w3.org/2000/svg" viewBox="0 0 10.46 13.42">
  <defs>
    <style>
      .cls-1 {
        fill: none;
        fill-rule: evenodd;
        stroke: #000;
        stroke-miterlimit: 10;
        stroke-width: .25px;
      }
    </style>
  </defs>
  <g id="Layer_1-2" data-name="Layer 1">
    <path class="cls-1" d="M5.13.45c.32-.26,1.11-.33,1.74-.33.13,0,.32.08.45.11.62.13,1.4.86,1.69,1.55.43.99,1.06,2.33.97,3.17,0,.19.11.5.11.71,0,.47.27,1.21.23,1.7-.04.44-.51,1.2-.61,1.62-.04.16-.21.44-.25.6-.02.09-.15.19-.2.22-.01,0-.03.02-.04.03-.02.01-.06.04-.08.06,0,0-.01,0-.01,0-.34.74-1.56,1.99-2.3,2.48-.2.13-.6.48-.8.62-.15.11-.38.13-.53.24-.09.06-.27.05-.39.05-.04,0-.1-.02-.14-.02-.07,0-.18-.04-.25-.04-.07,0-.18-.04-.25-.04-.11,0-.24-.04-.32-.03-.06,0-.15-.02-.21-.02-.51,0-1.14-.5-1.49-.8-.77-.67-1.86-2.09-2.16-3.22-.13-.5-.27-1.25-.11-1.72.09-.29.05-.72.16-1,.09-.24.38-.68.47-.92.34-1,1.74-2.51,2.29-3.07l.31-.31c.4-.41,1.26-1.29,1.71-1.65Z"/>
  </g>
</svg>