<?xml version="1.0" encoding="UTF-8"?>
<svg id="Layer_2" data-name="Layer 2" xmlns="http://www.w3.org/2000/svg" viewBox="0 0 11.1 12.88">
  <defs>
    <style>
      .cls-1 {
        fill: none;
        fill-rule: evenodd;
        stroke: #000;
        stroke-miterlimit: 10;
        stroke-width: .25px;
      }
    </style>
  </defs>
  <g id="Layer_1-2" data-name="Layer 1">
    <path class="cls-1" d="M5.37.18c.22-.18,1.14.16,1.57.16.09,0,.31.14.39.16.42.09,1.4,1.04,1.6,1.51.29.68,1.38,2.24,1.32,2.81,0,.13.22.49.22.63,0,.32.53,1.17.5,1.5-.03.3-.83,1.28-.9,1.57-.03.11-.32.47-.35.58-.01.06-.19.21-.22.23,0,0-.04.03-.04.03-.01,0-.06.05-.08.06,0,0,0,0-.01,0-.24.5-2,2.24-2.5,2.58-.14.09-.69.59-.82.68-.1.07-.38-.03-.48.05-.06.04-.26-.04-.34-.04-.03,0-.09-.03-.12-.03-.05,0-.17-.07-.22-.07-.05,0-.17-.07-.21-.07-.07,0-.22-.08-.28-.08-.04,0-.14-.05-.18-.05-.35,0-1.1-.65-1.34-.85-.53-.45-2-2.13-2.21-2.9-.09-.34-.53-1.19-.43-1.51.06-.2-.17-.69-.1-.88.06-.16.53-.74.58-.9.23-.68,2.18-2.72,2.55-3.1l.32-.33c.27-.28,1.47-1.5,1.78-1.75Z"/>
  </g>
</svg>