<?xml version="1.0" encoding="UTF-8"?>
<svg id="Layer_2" data-name="Layer 2" xmlns="http://www.w3.org/2000/svg" viewBox="0 0 12.23 12.73">
  <defs>
    <style>
      .cls-1 {
        fill: none;
        fill-rule: evenodd;
        stroke: #000;
        stroke-miterlimit: 10;
        stroke-width: .25px;
      }
    </style>
  </defs>
  <g id="Layer_1-2" data-name="Layer 1">
    <path class="cls-1" d="M5.96.13c.08-.07,1.17.8,1.34.8.03,0,.29.23.33.24.16.03,1.41,1.27,1.49,1.45.11.26,1.79,2.12,1.77,2.34,0,.05.36.46.36.52,0,.12.87,1.11.85,1.24-.01.11-1.26,1.39-1.29,1.5-.01.04-.47.51-.48.55,0,.02-.23.23-.25.24,0,0-.04.04-.04.04,0,0-.07.06-.08.07,0,0,0,0-.01,0-.09.19-2.57,2.58-2.77,2.71-.05.04-.8.73-.85.77-.04.03-.38-.23-.42-.21-.02.02-.25-.16-.28-.16-.01,0-.08-.06-.09-.06-.02,0-.16-.11-.18-.12-.02,0-.15-.11-.17-.11-.03,0-.2-.14-.22-.14-.02,0-.13-.09-.14-.09-.13,0-1.05-.84-1.14-.92-.2-.17-2.19-2.17-2.27-2.47-.03-.13-.88-1.1-.84-1.22.02-.08-.47-.65-.45-.72.02-.06.72-.81.74-.88.09-.26,2.75-3,2.89-3.15l.34-.35c.1-.11,1.75-1.79,1.86-1.88Z"/>
  </g>
</svg>