<?xml version="1.0" encoding="UTF-8"?>
<svg id="Layer_2" data-name="Layer 2" xmlns="http://www.w3.org/2000/svg" viewBox="0 0 13.4 12.97">
  <defs>
    <style>
      .cls-1 {
        fill: none;
        fill-rule: evenodd;
        stroke: #000;
        stroke-miterlimit: 10;
        stroke-width: .25px;
      }
    </style>
  </defs>
  <g id="Layer_1-2" data-name="Layer 1">
    <path class="cls-1" d="M6.43.19c.03.06.44.51.46.57.03.08.56.65.59.72l.07.05h0s.12.13.13.14c0,.01.1.12.12.13l.03.03v.03s.03.03.03.03c0,0,.03.02.03.01.04-.02.37.24.42.22l.3.16s.29.19.33.17c.03-.01.23.15.25.13.03-.01.22.15.25.13.02-.01.18.12.21.11.03-.01.23.15.26.13.02,0,.14.09.16.08l.09.04.15.13.05.08v.02s0,0,0,0l.07.16s.13.22.1.24c-.03.02.14.24.11.25l.06.15s.1.16.07.17c-.02,0,.07.12.05.13-.02,0,.07.11.05.12-.01,0,.06.1.04.1,0,0,.03.05.02.06l.02.05s.14.24.11.25c-.02,0,.08.14.06.15v.03s.05.05.06.05c.03,0,.23.19.26.2.02,0,.14.12.16.13.01,0,.13.11.14.11.02,0,.19.16.21.17.02,0,.14.12.15.12.02,0,.18.15.2.16.02,0,.15.13.17.14.03,0,.25.22.28.22l.21.17s.16.14.18.14c0,0,.03.03.03.03h.01s.05.07.05.07l-.07.07s-.13.12-.15.13l-.02.02-1.55,1s-.08.06-.09.05c-.02,0-.27.19-.29.19,0,0-.07.05-.08.05.01.01-.15.2-.15.22.01.03-.31.38-.31.42,0,.01-.14.16-.14.17,0,0-.07.08-.07.08l-.05.06-.12.11-.04.02s-.15.1-.16.09c0,.02-.15.19-.15.21,0,.01-.13.15-.13.17,0,0-.03.04-.03.04l-.05.09-.12.15-.02.02s-.23.23-.22.26c0,.01-.13.16-.13.18,0,.02-.19.23-.18.25,0,0-.06.08-.06.08,0,0-.02.03-.02.03,0,0,0,0,0,.01l-.04.06-.1.08-.06.1s-.02.03-.02.03c0,0-.07.09-.06.1.01.02-.2.24-.21.25l-.05.05-.1.06-.06.06s-.02.02-.02.02c0,0-.14.16-.15.17h-.01s-.82.62-.82.62l-.26.16-.13-.14s-.14-.16-.14-.18c0,0-.06-.06-.07-.06,0,0-.06-.07-.07-.07,0,0-.01-.02-.01-.02h-.01s0-.02,0-.02c0,0,0,0,0,0,0,0-.06-.06-.07-.06,0-.02-.19-.2-.21-.22l-.04-.04s-.16-.16-.17-.18l-.11-.06-.17-.2-.03-.05s-.36-.39-.36-.43c0,0-.06-.06-.06-.07s-.07-.08-.07-.09c0,0-.08-.09-.09-.1l-.04-.03s-.03-.01-.03-.01c0,.02-.11-.07-.11-.06,0,.02-.18-.12-.2-.1h-.02s-.03-.03-.03-.03c-.02,0-.19-.17-.2-.18,0,0-.06-.06-.06-.06-.02,0-.19-.13-.2-.11,0,0-.08-.05-.09-.05h-.01s-.24-.17-.24-.17l-.05-.08s-.17-.23-.16-.24c0-.01-.1-.14-.09-.15h0s-.03-.07-.03-.07c0,0-.05-.06-.05-.07,0-.02-.15-.18-.14-.2,0,0-.03-.04-.03-.05,0-.01-.15-.18-.13-.19h0s-.03-.06-.03-.06l-.08-.13s-.28-.32-.28-.35c0,0,0-.01,0-.01h0s-.11-.09-.12-.09c0,0-.1-.08-.11-.08-.02,0-.2-.16-.22-.16,0,0-.09-.07-.1-.07-.02,0-.22-.18-.25-.18,0,0-.09-.07-.1-.07-.02,0-.18-.14-.2-.15h0s-.1-.07-.1-.07c-.02,0-.23-.18-.25-.18,0,0-.08-.06-.08-.06,0,0-.05-.04-.05-.04,0,0,0,0,0,0,0,0-.04-.03-.05-.03,0,0-.09-.07-.1-.08l-.11-.08s-.24-.19-.26-.19c0,0-.1-.08-.11-.08,0,0-.07-.05-.07-.05,0,0-.03-.02-.03-.02h0s-.14-.12-.15-.12c0,0-.02-.02-.02-.02,0,0-.04-.03-.04-.03l-.03-.03.12-.18v-.02s.12-.14.12-.14l.08-.06s.32-.27.34-.27c.01,0,.18-.15.19-.15l.09-.07s.42-.36.45-.35c.02,0,.25-.22.27-.21.02,0,.25-.22.27-.22.02,0,.33-.28.35-.28.01,0,.16-.14.17-.14,0,0,.08-.07.08-.07.01,0,.17-.15.18-.14.01,0,.16-.14.18-.14,0,0,.05-.04.06-.04,0,0,.1-.08.11-.08,0,0,.06-.05.07-.05,0,0,.04-.03.04-.03,0,0,.15-.13.16-.12,0,0,0,0,.01,0s.03-.02.03-.02l.09-.1.11-.14.05-.05s.03-.03.03-.03c0,0,.12-.11.12-.11h0s.03-.02.03-.02l.14-.17.1-.08h0s.12-.16.12-.17h0s.15-.19.15-.21l1.49-2.06.41-.33.04-.03Z"/>
  </g>
</svg>