<?xml version="1.0" encoding="UTF-8"?>
<svg id="Layer_2" data-name="Layer 2" xmlns="http://www.w3.org/2000/svg" viewBox="0 0 13.6 13.09">
  <defs>
    <style>
      .cls-1 {
        fill: none;
        fill-rule: evenodd;
        stroke: #000;
        stroke-miterlimit: 10;
        stroke-width: .25px;
      }
    </style>
  </defs>
  <g id="Layer_1-2" data-name="Layer 1">
    <path class="cls-1" d="M6.46.18c.04.08.43.52.46.61.04.1.55.67.59.78l.08.04h0s.13.13.13.15c0,.02.1.12.12.14l.04.03v.04s.02.03.03.04c0,0,.03.02.04.01.06-.03.4.22.46.19l.33.13s.31.17.36.15c.04-.02.24.13.28.11.04-.02.24.13.27.11.03-.01.19.1.22.09.04-.02.24.13.28.11.02-.01.15.08.17.07l.1.04.16.13.05.09v.03s0,0,0,0l.04.18s.11.24.06.26c-.05.02.12.25.07.27l.04.16s.08.17.05.18c-.03.01.06.13.03.14-.02,0,.05.12.03.13-.02,0,.05.1.03.11-.01,0,.02.06.01.06v.06s.13.25.08.27c-.03.01.07.15.04.16v.03s.05.05.06.06c.04,0,.24.18.27.19.02,0,.14.12.16.12.02,0,.13.11.15.11.03.01.19.15.22.16.02,0,.14.11.16.12.03,0,.18.15.21.16.02,0,.16.13.18.13.04.01.26.2.29.22l.22.16s.17.13.19.14c0,0,.04.03.05.04h.02s.07.07.07.07l-.07.07s-.13.12-.15.14l-.02.02-1.65.92s-.08.05-.09.05c-.03,0-.28.18-.31.17,0,0-.08.05-.08.04.02.02-.14.21-.13.23.02.05-.29.4-.29.45,0,.02-.14.16-.14.18,0,0-.07.08-.07.09l-.05.07-.13.12-.04.02s-.16.1-.17.08c0,.02-.14.2-.14.22,0,.02-.12.16-.12.18,0,0-.03.04-.03.05l-.05.09-.11.16-.02.02s-.22.23-.22.27c0,.02-.12.17-.12.19,0,.03-.18.24-.17.26,0,.01-.06.08-.06.09,0,0-.02.03-.02.03,0,0,0,.01,0,.01l-.04.06-.1.07-.06.1s-.02.03-.02.04c0,0-.06.09-.06.1.02.03-.19.25-.2.26l-.05.05-.1.06-.07.06s-.02.02-.02.02c0,.01-.13.16-.15.17h-.02s-.86.59-.86.59l-.28.14-.1-.22s-.14-.17-.14-.19c0,0-.07-.06-.07-.07,0,0-.07-.07-.07-.08,0,0-.01-.02-.02-.02v-.02s-.02-.01-.02-.01c0,0,0,0,0,0,0,0-.07-.06-.07-.07,0-.03-.19-.2-.21-.23l-.04-.04s-.16-.16-.17-.19l-.12-.05-.17-.21-.02-.06c-.02-.05-.35-.4-.35-.45,0,0-.06-.07-.06-.08s-.07-.08-.07-.09c0-.01-.08-.09-.09-.1l-.04-.03s-.03,0-.03,0c0,.02-.11-.07-.11-.04,0,.03-.19-.11-.21-.08h-.03s-.03-.03-.03-.03c-.03,0-.19-.17-.21-.19,0,0-.06-.06-.06-.07-.03,0-.2-.12-.22-.1,0,0-.09-.05-.1-.04h-.02s-.25-.16-.25-.16l-.05-.09s-.16-.23-.14-.26c.01-.02-.09-.14-.08-.16h0s-.03-.07-.03-.07c0,0-.05-.06-.05-.07,0-.02-.15-.18-.13-.21,0,0-.03-.04-.03-.05,0-.02-.14-.19-.11-.21h0s-.03-.06-.03-.06l-.07-.14s-.27-.32-.27-.37c0,0,0-.01,0-.02h0s-.11-.08-.13-.09c-.01,0-.11-.08-.12-.08-.02,0-.2-.15-.23-.16-.01,0-.1-.07-.11-.07-.03,0-.23-.17-.26-.17-.01,0-.09-.07-.1-.07-.02,0-.18-.14-.21-.14h0s-.1-.07-.1-.07c-.03,0-.23-.17-.26-.17-.01,0-.08-.06-.09-.06,0,0-.05-.04-.06-.04,0,0,0,0,0,0,0,0-.05-.03-.05-.03,0,0-.09-.07-.1-.07l-.11-.08s-.24-.18-.26-.18c-.01,0-.1-.07-.11-.07,0,0-.07-.05-.07-.05,0,0-.03-.02-.03-.02h0s-.14-.11-.15-.12c0,0-.02-.01-.03-.01,0,0-.04-.03-.04-.03l-.04-.03.11-.19v-.02s.12-.15.12-.15l.09-.06s.33-.26.36-.26c.02,0,.18-.15.2-.14l.09-.07s.42-.34.47-.34c.03,0,.26-.21.28-.2.03,0,.26-.21.28-.2.03,0,.34-.27.37-.27.02,0,.17-.13.18-.13,0,0,.08-.06.09-.06.02,0,.17-.14.19-.14.02,0,.17-.13.18-.13,0,0,.05-.04.06-.04.01,0,.1-.08.11-.08,0,0,.07-.05.07-.05,0,0,.04-.03.05-.03.01,0,.15-.12.17-.12,0,0,.01,0,.01,0,0,0,.03-.02.03-.02l.09-.11.1-.15.05-.05s.03-.03.03-.03c0,0,.12-.11.13-.11h0s.03-.02.03-.03l.14-.17.11-.08h0s.11-.16.11-.17h0s.14-.2.15-.22l1.37-2.14.43-.31.04-.02Z"/>
  </g>
</svg>