<?xml version="1.0" encoding="UTF-8"?>
<svg id="Layer_2" data-name="Layer 2" xmlns="http://www.w3.org/2000/svg" viewBox="0 0 13.75 13.16">
  <defs>
    <style>
      .cls-1 {
        fill: none;
        fill-rule: evenodd;
        stroke: #000;
        stroke-miterlimit: 10;
        stroke-width: .25px;
      }
    </style>
  </defs>
  <g id="Layer_1-2" data-name="Layer 1">
    <path class="cls-1" d="M6.48.17c.05.1.43.56.48.66.06.13.56.71.61.84l.09.04h0s.13.14.14.16c0,.02.1.13.13.15l.04.04v.04s.02.03.02.04c0,0,.03.01.04.01.08-.04.42.19.5.15l.36.11c.06-.03.33.15.39.12.05-.02.25.11.3.09.05-.02.25.11.3.09.04-.02.21.09.24.07.05-.02.26.11.31.09.03-.01.16.07.19.06l.11.03.18.13.05.1v.02h-.01v.19s.09.24.03.27c-.06.03.08.26.02.28v.16s.07.17.03.19c-.03.01.04.13,0,.14-.03.01.04.12,0,.13-.02.01.03.1,0,.11-.01,0,.01.06,0,.06v.06c-.06.03.09.25.03.28-.03.02.05.15.02.16v.03s.04.06.05.06c.05.01.25.18.3.19.03,0,.15.12.18.13.03.01.14.11.16.12.04.01.2.15.24.17.03,0,.15.11.18.12.04.01.2.15.23.16.03.01.16.13.19.14.05.02.27.2.32.22l.24.16s.17.13.2.14c0,0,.04.03.05.04h.02s.08.07.08.07l-.08.08s-.13.13-.16.14l-.02.02-1.75.83s-.09.05-.1.04c-.04-.01-.29.17-.33.15-.01,0-.08.04-.09.04.02.02-.13.21-.11.25.02.06-.27.41-.28.48,0,.03-.13.17-.14.2,0,.01-.07.08-.07.1l-.05.07-.13.12-.04.02s-.16.08-.18.06c0,.03-.14.2-.13.23,0,.03-.12.17-.12.19,0,0-.03.04-.03.05l-.04.1-.11.17-.02.02s-.22.24-.21.29c0,.03-.12.17-.11.2,0,.04-.17.25-.16.28,0,.01-.06.08-.06.09,0,0-.02.03-.02.03,0,0,0,.01,0,.01l-.02.06-.09.05-.05.11s-.02.04-.02.04c0,.01-.06.1-.05.11.03.04-.19.26-.2.27l-.05.05-.11.05-.07.06s-.02.02-.02.03c0,.02-.12.16-.15.18h-.02s-.9.57-.9.57l-.28.1-.06-.22s-.14-.18-.14-.21c0,0-.07-.06-.08-.07,0-.01-.07-.07-.07-.09,0,0-.01-.02-.02-.02v-.02s-.02-.01-.02-.01c0,0,0,0,0,0,0,0-.07-.06-.07-.07-.01-.03-.19-.21-.22-.24l-.04-.04s-.16-.17-.18-.2l-.12-.05-.17-.22-.02-.06c-.02-.07-.34-.42-.35-.49,0-.01-.06-.07-.06-.08,0-.01-.07-.08-.07-.1,0-.02-.08-.09-.09-.11l-.05-.02s-.03,0-.03,0c0,.03-.11-.05-.11-.02,0,.04-.18-.08-.21-.05h-.03s-.03-.02-.03-.02c-.04,0-.2-.17-.22-.19,0-.01-.06-.06-.07-.07-.03.01-.2-.1-.23-.08-.01.01-.09-.04-.1-.03h-.02s-.27-.16-.27-.16l-.04-.1s-.14-.24-.12-.27c.02-.02-.08-.15-.06-.17h0s-.02-.08-.02-.08c0-.01-.05-.07-.05-.08,0-.03-.14-.19-.13-.22,0,0-.03-.05-.03-.05,0-.02-.13-.2-.09-.22h0s-.02-.06-.02-.06l-.05-.15c-.02-.05-.26-.34-.26-.39,0,0,0-.01,0-.02h0s-.12-.08-.14-.09c-.02,0-.11-.08-.13-.08-.03,0-.21-.14-.24-.15-.02,0-.1-.06-.11-.07-.03,0-.24-.16-.27-.17-.01,0-.09-.07-.11-.07-.03,0-.19-.13-.22-.14h0s-.11-.07-.11-.07c-.04,0-.24-.16-.28-.17-.01,0-.08-.06-.09-.06,0,0-.05-.04-.06-.04,0,0,0,0,0,0,0,0-.05-.03-.05-.03-.01,0-.09-.06-.11-.07l-.12-.07s-.24-.17-.28-.17c-.01,0-.1-.07-.11-.07,0,0-.07-.05-.08-.05,0,0-.03-.02-.04-.02h-.01s-.14-.11-.16-.12c0,0-.02-.01-.03-.01,0,0-.04-.03-.04-.03l-.04-.02.1-.2v-.02s.11-.16.11-.16l.09-.06s.33-.25.37-.24c.02,0,.19-.14.21-.14l.1-.06c.05,0,.43-.32.49-.32.03,0,.26-.2.29-.19.03,0,.26-.2.3-.19.04,0,.34-.26.39-.25.02,0,.17-.13.19-.12.01,0,.08-.06.09-.06.02,0,.18-.13.2-.13.02,0,.17-.13.19-.12,0,0,.06-.04.06-.04.01,0,.11-.08.12-.08,0,0,.07-.05.08-.05,0,0,.04-.03.05-.03.02,0,.15-.12.17-.11,0,0,.01,0,.02,0,0,0,.03-.02.03-.02l.09-.11.09-.16.05-.05s.03-.03.03-.03c.01,0,.12-.11.13-.11h0s.03-.02.03-.03l.14-.18.11-.08h0s.1-.16.1-.18h0s.13-.2.14-.23L6,.49l.44-.3.04-.02Z"/>
  </g>
</svg>