<?xml version="1.0" encoding="UTF-8"?>
<svg id="Layer_2" data-name="Layer 2" xmlns="http://www.w3.org/2000/svg" viewBox="0 0 14.11 13.29">
  <defs>
    <style>
      .cls-1 {
        fill: none;
        fill-rule: evenodd;
        stroke: #000;
        stroke-miterlimit: 10;
        stroke-width: .25px;
      }
    </style>
  </defs>
  <g id="Layer_1-2" data-name="Layer 1">
    <path class="cls-1" d="M6.53.14c.07.16.45.63.52.79.08.2.57.8.66,1l.11.04h.01c.05.03.15.16.16.19.01.04.11.14.15.18l.05.04v.05s0,.04.01.05c.01,0,.04,0,.05,0,.12-.05.47.13.59.07l.42.05c.09-.04.37.1.47.06.07-.03.29.08.36.05.07-.03.28.08.35.04.06-.03.23.06.29.03.07-.03.29.08.36.04.04-.02.18.05.23.03h.13s.21.16.21.16l.05.13-.02.02h0l-.06.2c-.08.04,0,.25-.08.29-.09.04,0,.26-.08.31l-.05.18c-.06.03,0,.18-.06.2-.05.02,0,.13-.05.15-.04.02,0,.12-.04.14-.04.02,0,.11-.04.12-.02.01,0,.06-.02.07l-.02.07c-.09.04,0,.26-.08.3-.05.02,0,.15-.05.18l-.02.04s.05.06.06.08c.07.02.28.17.35.2.04.01.17.12.21.13.04.02.15.11.19.12.06.02.23.16.29.17.04.01.17.11.21.13.06.02.22.15.27.17.05.02.18.13.23.14.07.02.3.2.38.23l.28.17s.19.13.24.15c.01,0,.05.03.06.04h.02s.09.08.09.08l-.08.09s-.13.13-.18.15l-.03.02-1.96.61s-.09.04-.11.03c-.06-.02-.31.14-.37.11-.02,0-.08.03-.1.03.04.03-.09.22-.07.27.03.09-.22.44-.23.54,0,.04-.12.19-.13.22,0,.02-.06.09-.07.11l-.05.09-.15.13h-.05s-.17.07-.19.04c.01.04-.11.22-.1.27,0,.04-.1.18-.1.22,0,.01-.03.05-.03.06l-.02.11-.1.2-.02.02s-.22.25-.21.32c0,.04-.1.19-.09.23,0,.05-.15.27-.13.32,0,.02-.05.09-.05.11,0,0-.02.04-.02.04,0,0,0,.01,0,.02v.06s-.06,0-.06,0l-.03.12s-.01.04,0,.05c.01.02-.04.1-.03.12.04.07-.17.28-.18.31l-.05.06-.12.04-.08.06s-.01.02-.01.03c0,.03-.11.17-.15.2l-.02.02-1.01.5-.27.02.03-.22s-.13-.2-.13-.24c-.01,0-.08-.06-.09-.08-.01-.02-.07-.08-.07-.1,0,0-.01-.02-.02-.03l-.02-.02v-.02s0,0,0,0c-.01,0-.07-.06-.08-.08-.02-.05-.2-.23-.23-.27l-.04-.05s-.17-.18-.19-.22l-.14-.03-.18-.25v-.07c-.03-.1-.34-.46-.35-.56,0-.02-.06-.08-.06-.1,0-.02-.07-.09-.08-.11,0-.02-.08-.1-.09-.13l-.06-.02s-.03.01-.03.01c0,.04-.1-.01-.1.02,0,.06-.17-.03-.21.02h-.03s-.04-.01-.04-.01c-.06-.01-.22-.18-.24-.21-.01-.02-.06-.07-.07-.08-.05.02-.22-.07-.26-.03-.02.02-.09-.02-.11,0h-.02s-.31-.14-.31-.14l-.03-.11c.03-.06-.1-.26-.07-.31.02-.03-.05-.16-.03-.19h0s0-.09,0-.09c0-.02-.04-.07-.04-.09,0-.04-.13-.21-.11-.26,0,0-.02-.05-.02-.06,0-.04-.11-.21-.05-.24h0s0-.06,0-.06l-.02-.17c-.03-.08-.25-.37-.25-.45,0,0,0-.02,0-.02h0s-.13-.08-.16-.08c-.03,0-.12-.07-.15-.07-.05,0-.23-.13-.27-.15-.03,0-.11-.06-.13-.06-.05,0-.26-.15-.31-.16-.02,0-.1-.06-.13-.06-.04,0-.21-.12-.25-.14h0s-.13-.06-.13-.06c-.05,0-.26-.15-.31-.16-.02,0-.09-.05-.11-.06-.01,0-.06-.03-.07-.04,0,0,0,0-.01,0,0,0-.05-.03-.06-.03-.02,0-.1-.06-.12-.07l-.14-.07c-.05,0-.26-.16-.32-.16-.02,0-.11-.07-.13-.07-.01,0-.07-.05-.09-.05,0,0-.03-.02-.04-.02h-.01s-.15-.1-.18-.11c0,0-.03-.01-.03-.01,0,0-.04-.02-.05-.02l-.05-.02.07-.22v-.02s.1-.17.1-.17l.1-.05c.06,0,.35-.22.41-.21.04,0,.2-.12.23-.12l.11-.05c.08,0,.46-.29.54-.28.05,0,.28-.17.32-.17.05,0,.28-.18.33-.17.06,0,.36-.23.42-.22.03,0,.18-.11.21-.11.02,0,.09-.05.1-.05.03,0,.19-.12.22-.11.03,0,.18-.11.21-.11.01,0,.06-.04.07-.04.02,0,.11-.07.13-.07.01,0,.07-.04.08-.04,0,0,.05-.03.06-.03.02,0,.16-.11.19-.09,0,0,.01,0,.02,0,0,0,.03-.02.04-.02l.09-.12.08-.17.06-.05s.03-.03.04-.03c.02-.01.12-.11.15-.11h0s.03-.02.04-.02l.13-.2.12-.07h0s.08-.17.07-.2v-.02s.11-.19.12-.23l.97-2.39.49-.26h.04Z"/>
  </g>
</svg>