<?xml version="1.0" encoding="UTF-8"?>
<svg id="Layer_2" data-name="Layer 2" xmlns="http://www.w3.org/2000/svg" viewBox="0 0 11.64 15.97">
  <defs>
    <style>
      .cls-1 {
        fill: none;
        fill-rule: evenodd;
        stroke: #000;
        stroke-miterlimit: 10;
        stroke-width: .25px;
      }
    </style>
  </defs>
  <g id="Layer_1-2" data-name="Layer 1">
    <path class="cls-1" d="M.91.54c.11-.04.24-.11.35-.15.08-.03.17-.08.24-.11.04-.02.1-.03.15-.04.08,0,.32-.03.52-.03.27-.01.55-.02.56-.03,0,0,.04.05.04.05.3.35.16.89.02,1.07-.05.06-.11.09-.17.13.07.14.09.29.1.44.02.21.05.43.07.65,0,.08.02.15.03.23.03.02.07.05.1.1.07.15.2.26.34.37.11.09.23.18.32.31,0,0,0,0,0,0,.04.01.09.03.13.05.11.04.22.08.33.1.17.02.35.04.53.05.16.01.33.03.5.05.1.01.19.06.28.11.03.02.06.03.1.05.01,0,.5-.02.51-.03.04-.03.6.5.65.47.03.03.06.04.08.06.02-.01.26.31.29.3.14.15.29.31.44.47.02.03.05.05.08.08,0,0,0,0,0,0,.15-.11.31-.23.46-.35.13-.1.25-.21.36-.32.02-.06.04-.11.07-.15.14-.22.38-.33.62-.39.06-.02.12-.07.18-.12,0,0,.05-.05.05-.05.04-.03.07-.07.12-.11.02-.02.04-.04.06-.07,0,0,.04-.04.04-.04,0,0,.06,0,.06,0,.14,0,.26-.06.41-.17.07-.05.17-.11.29-.11.19,0,.37.03.56.05,0,0,.09,0,.1.01,0,.02.06-.23.07-.21.01.02.17.1.18.12.37.23.38.6.33,1.02,0,0,0,.05,0,.05,0,0-.02.04-.02.04-.12.26-.3.43-.56.54,0,0-.03,0-.03.01-.05.02-.1.05-.14.09-.13.1-.22.24-.31.43-.02.05-.05.1-.07.16-.05.12-.1.24-.17.36-.13.23-.25.45-.36.71-.11.25-.28.45-.48.61-.05.04-.1.11-.14.19-.02.03-.04.07-.06.1-.06.09-.1.17-.12.24,0,.01-.05.19-.05.2-.04.18-.09.35-.13.53-.02.08-.03.17-.02.25,0,.14.01.28.02.42,0,.14.02.28.04.41,0,.07.03.13.06.21,0,.02.01.04.02.05.11.06.18.15.22.25.04.1.06.2.07.27,0,.06.01.11.01.17,0,.03,0,.05,0,.08,0,.05,0,.09,0,.14,0,0,0,.02,0,.03,0,.12-.01.25-.04.38,0,0-.01.08-.01.08,0,0-.06.04-.07.04-.06.04-.13.1-.19.15-.14.12-.29.25-.5.31-.12.04-.25.09-.36.15-.04.02-.07.03-.11.05,0,.01-.02.02-.03.04-.04.06-.08.11-.14.16-.07.06-.11.12-.11.23-.05.06-.12,1.56-.18,1.62.01.02.02.03.03.05.05.07.09.14.15.21.21.27.21.43.03.81-.07.04-.16.16-.23.21,0,0-.09.02-.09.02,0,0-.03,0-.03,0-.06,0-.11-.02-.14-.05-.01,0-.14.4-.15.41-.01,0-.25-.44-.26-.43,0,0-.08-.03-.09-.03,0,0-.1.2-.11.2,0,0-.13-.08-.14-.07,0,0-.02-.01-.02,0-.03-.01-.1-.04-.11-.13,0-.05-.01-.11-.02-.16-.02-.14-.05-.29-.01-.44.05-.21.03-.42-.05-.68,0-.03-.02-.06-.03-.09-.02-.04-.03-.08-.05-.12-.04-.09-.08-.18-.1-.28-.02-.06-.03-.13-.03-.2-.12-.17-.13-.35-.14-.51,0,0,0-.22,0-.22,0-.12,0-.23,0-.35,0,0,0-.02,0-.04-.01,0-.02-.01-.03-.02-.03-.02-.06-.03-.09-.05-.05-.03-.1-.07-.15-.11-.03-.03-.05-.06-.07-.1,0,.02-.02.05-.03.07-.07.15-.15.29-.38.29-.03,0-.05,0-.08,0-.09,0-.18-.03-.27-.04-.02,0-.04,0-.05-.01-.01,0-.3.18-.31.18,0,0-.22.13-.23.13-.02.02-.05.04-.09.06,0,0-.02,0-.02,0-.25.07-.48.14-.69.34,0,0-.18.25-.19.25,0,0,0,.05,0,.05,0,0,.06-.03.06-.03-.02,0,.4.28.39.27,0,0-.16.13-.17.12.14.18.16.33,0,.59,0,0-.04.06-.04.06,0,0-.12,0-.12,0-.08,0-.16,0-.25,0-.16,0-.29-.04-.41-.1-.28-.15-.5-.29-.69-.43-.09-.07-.19-.11-.3-.16-.1-.04-.2-.09-.29-.15-.02-.01-.04-.03-.06-.05,0,0-.05-.04-.06-.05,0,0-.02-.04-.02-.04-.11-.25-.08-.48.06-.67.02-.03.05-.06.07-.09.13-.18.28-.39.52-.44,0,0,0,0,0,0,0,0,0,0,0,0,.04-.06.08-.14.16-.16.15-.05.26-.2.38-.35,0,0,.04-.05.04-.05.14-.18.26-.38.4-.58.03-.05.07-.1.1-.15-.01-.03-.29-.35-.3-.38,0,0,.05-.1.05-.11.13-.3.22-.62.28-.97.06-.33.09-.69.1-1.06-.13-.25-.27-.46-.43-.64-.02-.02-.05-.05-.07-.07-.08-.07-.18-.16-.22-.3-.02-.07-.05-.13-.09-.18-.04-.06-.09-.12-.14-.18-.04-.04-.07-.09-.1-.14-.05-.07-.1-.13-.16-.19-.05-.06-.1-.12-.15-.18-.11-.14-.22-.29-.31-.45-.06-.1-.13-.19-.22-.28-.16-.16-.34-.39-.39-.74,0-.06-.01-.12,0-.19,0-.14.04-.29.14-.44.09-.13.12-.26.1-.42-.02-.16.01-.32.05-.48,0,0,.02-.09.02-.1.04-.2.08-.41.13-.61,0-.02.06-.28.07-.3,0-.03,0-.08.03-.13.09-.19.05-.34-.05-.58,0,0,0,0,0,0-.07-.03-.13-.07-.19-.11-.08-.05-.15-.1-.22-.11-.05-.01-.1,0-.15.03,0,0-.07.05-.06.04,0,0-.07-.07-.07-.07-.17-.17-.14-.4-.1-.56,0,0,0-.02,0-.02,0,0,.01-.02.01-.02.08-.16.21-.28.39-.36Z"/>
  </g>
</svg>