<?xml version="1.0" encoding="UTF-8"?>
<svg id="Layer_2" data-name="Layer 2" xmlns="http://www.w3.org/2000/svg" viewBox="0 0 16.06 14.7">
  <defs>
    <style>
      .cls-1 {
        fill: none;
        fill-rule: evenodd;
        stroke: #000;
        stroke-miterlimit: 10;
        stroke-width: .25px;
      }
    </style>
  </defs>
  <g id="Layer_1-2" data-name="Layer 1">
    <path class="cls-1" d="M6.89.18c.19.43.52,1.01.7,1.44.23.54.65,1.28.89,1.83l.22.02.03.02c.14.08.23.23.26.33.03.1.13.21.24.31l.09.08-.05.09s-.03.06,0,.11c.03,0,.07-.01.1-.02.32-.15.75-.19,1.07-.34l.77-.24c.25-.12.6-.15.85-.27.19-.09.46-.11.65-.2.19-.09.45-.11.64-.2.16-.07.37-.09.53-.17.2-.09.46-.12.66-.21.12-.06.29-.07.41-.12l.24-.07.38.21.02.24-.1.02s-.03,0-.03,0l-.42.28c-.23.11-.37.3-.6.4-.24.11-.4.31-.64.42l-.37.24c-.16.07-.26.21-.43.28-.13.05-.21.15-.34.2-.12.05-.2.13-.32.18-.1.04-.16.12-.26.17-.06.03-.1.07-.15.1l-.15.1c-.24.11-.38.3-.62.41-.14.06-.23.17-.38.23l-.09.05c.02.06.06.11.1.13.19.04.45.16.64.22.12.04.27.13.38.17.1.04.24.12.34.16.15.05.36.16.52.21.11.04.27.11.38.15.15.05.35.16.5.21.12.04.29.13.42.18.2.07.47.21.67.27l.49.19c.13.04.3.13.43.17.04.01.08.04.12.06l.04.02.15.08-.12.14c-.08.1-.14.15-.26.21l-.05.03-3.06-.49c-.05-.02-.13-.01-.18-.03-.17-.05-.42-.03-.58-.09-.05-.02-.12-.01-.16-.03.1.08.1.27.15.42.08.24.03.61,0,.88-.01.1-.08.26-.1.37,0,.05-.05.12-.06.18l-.05.14-.22.18-.08-.03c-.1-.05-.22-.08-.28-.17.04.12,0,.3.03.43.02.1-.03.25-.04.35,0,.03-.02.07-.02.1l.09.16-.05.32-.04.04c-.11.12-.22.32-.18.51.03.1-.01.26,0,.37.03.15-.03.37.02.5.02.06-.02.13-.03.18,0,.02-.02.06-.01.07,0,0,0,.02.01.03l.13.03.07-.22.08.18s.02.05.04.07c.04.05.04.13.08.18.1.18-.09.41-.13.48l-.07.09-.19-.03-.12.09s0,.04,0,.05c0,.07-.05.22-.16.3l-.03.03-1.55.24-.27-.4.48-.21c-.06-.12-.11-.3-.11-.42-.04-.03-.1-.08-.14-.12-.04-.05-.08-.12-.1-.17,0-.02-.02-.04-.02-.05l-.02-.05v-.04s0,0-.01-.01c-.03-.02-.1-.07-.13-.13-.05-.14-.21-.32-.32-.44l-.07-.08c-.08-.1-.2-.25-.26-.36l-.23.07-.2-.42.09-.1c-.09-.27-.31-.66-.35-.94,0-.05-.05-.12-.07-.17-.02-.05-.07-.13-.09-.2-.01-.07-.08-.15-.11-.21h-.1s-.01.08-.01.08c0,.11-.05.17-.04.27.01.17-.11.25-.22.38l-.05.05-.07-.02c-.16-.03-.3-.2-.37-.3-.03-.04-.08-.1-.11-.13-.13.04-.29.08-.4.19-.05.05-.12.07-.17.11l-.04.02-.52-.07.04-.18c.07-.16.09-.37.19-.49.06-.08.08-.21.14-.3v-.02s.12-.11.12-.11c0-.05-.02-.11-.02-.16,0-.11-.07-.3,0-.43.01-.03,0-.07.02-.11.03-.1,0-.29.16-.37h.02s.14-.04.14-.04l.17-.24c-.07-.21-.18-.53-.17-.75,0-.01,0-.03,0-.04h0c-.07-.01-.18-.05-.26-.06-.07-.01-.17-.05-.24-.05-.12,0-.32-.08-.45-.12-.07,0-.16-.03-.22-.03-.14,0-.36-.08-.51-.11-.06-.01-.15-.04-.21-.04-.11,0-.29-.07-.41-.11h0s-.21-.04-.21-.04c-.15,0-.37-.09-.51-.1-.05,0-.13-.04-.18-.05-.03,0-.08-.03-.11-.03,0,0-.02,0-.03,0-.01,0-.08,0-.1,0-.04,0-.13-.03-.19-.07l-.22-.04c-.14,0-.36-.09-.5-.1-.06,0-.14-.04-.2-.05-.04,0-.1-.03-.14-.04-.02,0-.05-.01-.07-.01h-.03c-.07,0-.19-.05-.27-.09-.02,0-.04,0-.06,0-.02,0-.06,0-.07,0h-.07s-.11-.31-.11-.31v-.04s.05-.26.05-.26h.16c.16.02.44-.08.61-.06.1,0,.25-.05.35-.04h.17c.22.01.57-.11.79-.09.13.01.35-.06.48-.05.13.01.35-.06.48-.05.17.01.45-.08.63-.06.09,0,.23-.04.32-.03.04,0,.11-.02.16-.02.09,0,.24-.05.32-.03.08.02.22-.03.31-.03.03,0,.08-.01.11-.01.06,0,.14-.02.2-.01.04,0,.09-.01.13,0,.02,0,.06-.01.09-.01.07,0,.2-.05.28-.01,0,0,.01,0,.03,0,.02,0,.05-.01.06-.01l.09-.18v-.25s.09-.06.09-.06c.02-.01.04-.03.06-.04.05-.03.14-.12.21-.12h0s.04-.01.06-.02l.11-.28.19-.04h0c-.04-.09-.02-.21-.05-.28v-.03c-.04-.06-.02-.23.03-.33l-.46-3.31.7-.07.04.05Z"/>
  </g>
</svg>