<?xml version="1.0" encoding="UTF-8"?>
<svg id="Layer_2" data-name="Layer 2" xmlns="http://www.w3.org/2000/svg" viewBox="0 0 17.71 15.44">
  <defs>
    <style>
      .cls-1 {
        fill: none;
        fill-rule: evenodd;
        stroke: #000;
        stroke-miterlimit: 10;
        stroke-width: .25px;
      }
    </style>
  </defs>
  <g id="Layer_1-2" data-name="Layer 1">
    <path class="cls-1" d="M7.12.23c.24.56.55,1.2.79,1.77.3.71.69,1.52,1.01,2.24h.27s.03.03.03.03c.18.1.26.27.3.4.04.13.14.25.29.38l.11.09-.08.12s-.04.07-.01.13c.04-.01.09-.02.12-.04.42-.2.89-.34,1.32-.54l.94-.39c.33-.16.71-.27,1.04-.43.26-.12.54-.2.8-.32.25-.12.53-.2.78-.32.21-.1.44-.17.65-.27.26-.12.55-.21.81-.33.16-.07.34-.12.51-.19l.29-.11.47.24v.29s-.13.02-.13.02c0,0-.03,0-.03,0l-.6.32c-.3.14-.56.32-.86.46-.32.15-.6.33-.91.47l-.54.28c-.21.1-.4.22-.61.31-.17.07-.32.16-.49.22-.16.06-.3.14-.45.2-.13.05-.24.13-.37.19-.08.04-.14.08-.22.12l-.22.11c-.31.14-.58.32-.89.46-.19.08-.35.18-.54.26l-.13.06c.02.07.06.13.11.16.25.06.54.15.79.23.15.05.32.13.46.19.13.05.28.13.42.17.2.07.43.16.63.22.15.05.32.12.47.16.2.06.41.16.61.23.16.06.34.14.51.19.26.09.56.21.82.29l.59.21c.17.05.35.13.52.18.05.02.1.04.15.07l.05.03.19.09-.14.16c-.11.13-.14.16-.3.24l-.06.03-3.61-1.05c-.07-.03-.15-.04-.22-.06-.22-.06-.48-.11-.69-.19-.06-.02-.13-.04-.19-.06.13.11.2.29.26.49.11.31.15.69.11,1.04-.02.14-.06.3-.08.44-.01.06-.04.14-.06.22l-.05.17-.25.21-.09-.04c-.13-.07-.25-.15-.32-.26.05.16.06.35.1.51.03.13,0,.29,0,.42,0,.04,0,.08-.01.12l.14.19-.02.39-.04.05c-.15.16-.22.36-.16.6.03.14.03.3.06.44.04.2.03.42.09.6.02.07,0,.15-.01.21,0,.03-.02.07,0,.08,0,.01.01.03.02.04h.2s.14-.31.14-.31l.14.22s.04.06.06.09c.05.06.09.14.13.21.14.23-.04.48-.1.56l-.07.11-.22-.07-.14.1s0,.04,0,.06c0,.09-.02.25-.17.35l-.04.03-1.83.11-.27-.6.7-.2c-.08-.16-.1-.35-.1-.51-.05-.03-.12-.08-.17-.14-.05-.06-.08-.14-.11-.2,0-.02-.02-.04-.03-.07l-.03-.06.02-.05s-.02-.01-.03-.02c-.04-.03-.12-.07-.15-.15-.07-.18-.22-.36-.36-.52l-.08-.09c-.1-.13-.21-.29-.3-.43l-.28.12-.22-.51.13-.12c-.12-.36-.29-.76-.35-1.13,0-.06-.05-.13-.08-.2-.03-.07-.07-.16-.09-.24-.02-.09-.07-.18-.12-.26h-.12s0,.12,0,.12c0,.15-.03.26-.02.4.01.22-.08.38-.22.56l-.06.07-.09-.02c-.21-.04-.34-.22-.43-.34-.04-.06-.09-.12-.13-.16-.17.06-.33.16-.47.31-.06.06-.13.11-.19.17l-.04.04-.63-.03.08-.22c.09-.21.19-.42.32-.58.08-.11.14-.24.22-.36l.02-.03.16-.13c0-.06,0-.13-.01-.2,0-.15-.04-.34.04-.51.02-.03.02-.08.03-.13.03-.13.05-.34.26-.44l.03-.02h.2s.26-.29.26-.29c-.09-.28-.14-.61-.13-.9,0-.02,0-.03,0-.05h0c-.1-.01-.21-.04-.31-.06-.09-.01-.2-.04-.29-.04-.16-.01-.36-.05-.53-.1-.1,0-.19-.02-.27-.02-.19,0-.41-.05-.61-.08-.08-.01-.17-.03-.25-.03-.15,0-.33-.04-.48-.1h0s-.25-.02-.25-.02c-.19-.01-.42-.06-.61-.07-.07,0-.15-.03-.22-.04-.04,0-.09-.02-.13-.03-.01,0-.02,0-.03,0-.02,0-.1,0-.12,0-.06,0-.15-.02-.23-.07l-.26-.03c-.19-.01-.41-.06-.59-.07-.08,0-.16-.03-.24-.04-.05,0-.11-.03-.17-.03-.03,0-.06,0-.08,0h-.03c-.09,0-.21-.03-.32-.08-.03,0-.05,0-.07,0-.03,0-.06,0-.09,0h-.08s-.19-.34-.19-.34v-.05s.02-.3.02-.3h.18c.22.05.49.02.71.03.13.01.28,0,.4,0h.19c.28.04.63,0,.92.03.17.01.38,0,.56.01.17.02.39,0,.56.01.23.02.5,0,.73.02.11.01.25,0,.37.01.06,0,.13,0,.19,0,.11,0,.26-.01.38.01.11.03.25,0,.36.01.04,0,.09,0,.13,0,.07,0,.16,0,.23.01.05,0,.1,0,.15.01.03,0,.07,0,.1,0,.09,0,.21-.02.32.03,0,0,.01,0,.04,0,.02,0,.05,0,.08,0l.09-.2-.04-.29.1-.06s.05-.03.06-.05c.06-.05.15-.12.24-.12h0s.05,0,.07-.02l.1-.33.22-.02h0c-.05-.12-.08-.23-.12-.32v-.03c-.05-.08-.09-.24-.02-.38L6.28.13l.8.03.04.07Z"/>
  </g>
</svg>