<?xml version="1.0" encoding="UTF-8"?>
<svg id="Layer_2" data-name="Layer 2" xmlns="http://www.w3.org/2000/svg" viewBox="0 0 13.88 20.18">
  <defs>
    <style>
      .cls-1 {
        fill: none;
        fill-rule: evenodd;
        stroke: #000;
        stroke-miterlimit: 10;
        stroke-width: .25px;
      }
    </style>
  </defs>
  <g id="Layer_1-2" data-name="Layer 1">
    <path class="cls-1" d="M4,.19s.06-.02.08-.03c.01,0,.04-.02.05-.03,0,0,.02,0,.03,0,.03,0,.26.01.26.01v.02c.06.11.13.3.1.36,0,.02,0,.03-.02.05.01.04.04.1.05.15,0,.07.06.15.06.22,0,.02.02.05.02.08,0,0,.02.02.02.03.01.05.08.09.1.13.02.03.08.07.09.11,0,0,0,0,0,0,0,0,.02.01.03.02.02.01.07.04.09.04.03.01.1.03.13.03.03,0,.11.02.14.03,0,0,.03,0,.03.01,0,0,.02.03.03.04,0,0,.01.02.02.02l.11.08c.19.69.46,1.56.65,2.26.03.09.05.18.07.26.09.34.22.79.31,1.13.14.51.28,1.02.42,1.52,0,0,.12.01.12.02,0,0,.09,0,.09.01,0,0,.03.03.03.04,0,0,0,0,.01,0,.14.11.2.28.23.42.04.14.11.26.23.4,0,0,.09.1.09.1,0,0-.06.13-.05.13-.01.03-.03.07,0,.15.03-.02.07-.04.1-.06.16-.13.31-.26.47-.39.18-.17.36-.34.55-.5.02-.04.73-.59.75-.6.03-.02.06-.05.09-.07.11-.09.23-.18.34-.28.04-.03.08-.07.11-.1.09-.08.18-.16.28-.24.05-.04.1-.09.15-.13.03-.02.06-.06.09-.08.03-.02.07-.05.1-.07.1-.07.19-.14.29-.21.15-.11.29-.23.44-.36.06-.05.12-.1.18-.15.11-.09.23-.18.35-.27.06-.04.12-.08.18-.12.22-.16.44-.31.66-.46.01,0,.02-.01.03-.02.04-.03.11-.07.15-.1.07-.05.14-.13.21-.18l.22-.19.36.28v.36s-.1.02-.09.02c0,0-.02,0-.02,0,0,0-.46.38-.45.39-.22.19-.44.38-.67.57-.24.2-.48.4-.73.6,0,.01-.43.34-.43.35-.04.03-.07.06-.11.09-.04.03-.08.07-.12.1-.04.03-.09.07-.13.1-.05.03-.09.07-.14.1-.13.09-.27.18-.41.27-.13.08-.25.16-.38.24-.1.07-.21.15-.31.23-.06.05-.12.09-.18.14,0,0-.18.13-.18.13-.25.18-.5.36-.75.53-.03.02-.07.05-.1.07-.12.08-.23.15-.35.22,0,0-.1.07-.11.07.02.09.04.15.07.2.18.07.37.15.55.27.11.07.22.15.33.23.1.07.2.15.3.21.15.09.3.18.45.28.01,0,.02.02.04.02.1.06.2.12.29.18.14.09.29.19.43.29.07.04.13.09.2.13.05.04.11.07.16.11.19.12.38.24.57.35,0,0,.42.24.42.25.12.07.24.15.37.22.04.02.07.05.11.09,0,0,.04.04.04.04,0,0,.13.11.13.11,0,0-.1.2-.11.21-.09.17-.11.2-.24.31,0,0-.05.04-.05.04-.01.03-.54-.26-.56-.24,0,0-.31-.15-.32-.13,0,0-.14-.07-.15-.06-.01.02-.34-.15-.34-.13l-.26-.1s-.67-.3-.67-.26c0,.02-.3-.14-.3-.12,0,0-.12-.06-.12-.05-.05-.02-.1-.04-.15-.05-.17-.04-.33-.11-.49-.18-.05-.02-.09-.04-.14-.06.03.05.06.11.09.17.06.13.11.29.15.48,0,.04.02.08.03.12.11.37.18.77.16,1.21,0,.09,0,.18-.01.26,0,.1-.01.2-.02.31,0,.09-.02.18-.03.28,0,0-.03.22-.03.22,0,.01-.18.27-.18.28,0,0-.07-.05-.07-.04-.1-.07-.17-.17-.23-.28,0,.05.02.13.03.18,0,.05,0,.12.02.17,0,.09.02.19.02.28,0,.09,0,.18,0,.27,0,.09-.01.17-.02.26,0,.05,0,.1-.01.15,0,0,.1.23.1.23,0,0-.02.47-.03.47,0,0-.03.05-.04.06-.02.03-.04.07-.06.1-.09.17-.11.36-.09.62,0,.07,0,.15.01.22,0,.1.01.21.02.31,0,.04,0,.07,0,.11.01.16.02.32.03.48,0,.06.01.12.02.18.01.1,0,.19,0,.27,0,.04-.01.09,0,.11,0,.02.01.03.02.05l.16.03.12-.37.11.29s.03.08.05.11c.04.08.08.19.11.28.1.29,0,.64-.05.73l-.05.14-.16-.06-.1.13s0,.06,0,.08c0,.11,0,.34-.11.47l-.03.04h-.05s-.08.02-.08.02c.01.02-.36.04-.35.05.03.05-.74.08-.74.13,0,.02-.14-.58-.15-.55l-.04-.15h.03s0-.02,0-.02c-.01,0,.07-.04.06-.05l.22.03.16-.14c-.02-.08-.05-.22-.06-.3,0-.03-.02-.07-.02-.1,0-.09-.02-.13-.02-.21-.04-.04-.11-.12-.14-.19,0,0,0-.02-.01-.02-.04-.08-.07-.16-.08-.26,0-.04-.01-.09-.02-.13,0,0-.02-.08-.02-.09,0,0,.01-.07.01-.08,0-.01-.01-.02-.02-.03-.04-.06-.08-.13-.1-.26-.04-.29-.13-.54-.25-.82,0-.02-.06-.15-.07-.17-.08-.18-.14-.36-.19-.56-.01-.04-.03-.08-.04-.11,0-.04-.21.08-.21.04l-.05-.29s-.09-.44-.08-.47c0,0,.02-.03.02-.03,0,0,.01-.02.01-.03,0,0,.06-.11.05-.12-.01-.05-.03-.1-.04-.15-.01-.05-.02-.09-.03-.14,0-.02-.01-.04-.02-.05-.04-.11-.09-.23-.15-.39,0-.02-.02-.05-.03-.08-.03-.08-.05-.17-.08-.26,0-.02-.01-.04-.02-.05,0-.05-.04-.08-.04-.14,0-.07-.07-.12-.09-.2-.01-.05-.05-.07-.06-.13-.01-.04-.03-.07-.04-.11,0,0,0-.01,0-.02-.03-.09-.08-.17-.13-.25,0,0-.1.01-.11.02,0,.02-.02.18-.03.19,0,.05-.01.11-.02.16,0,.11-.03.29-.03.39,0,.02,0,.06,0,.08,0,.03.01.04.01.07,0,.18.05.43,0,.58-.02.05-.07.14-.09.19,0,0-.03.1-.03.11,0,0-.06,0-.06,0-.1,0-.18-.06-.25-.11-.01-.02-.03-.02-.04-.04-.01-.03-.05-.05-.06-.08-.04-.07-.09-.13-.13-.18-.1.04-.19.11-.27.18-.06.05-.12.11-.18.17-.06.06-.12.12-.19.17,0,0-.04.04-.04.03,0,0-.06,0-.06-.01-.01-.02-.24-.03-.26-.04-.02-.01-.23-.02-.25-.04,0,0,.02-.11.02-.11l.03-.17s0-.05.01-.07c.06-.28.15-.52.26-.75.04-.08.08-.17.12-.26.03-.07.07-.15.1-.22,0,0,.01-.04.02-.04,0,0,.15-.17.15-.18.01-.08.01-.17.02-.26.01-.2.03-.43.12-.63,0,0,0,0,0,0,0,0,0-.01,0-.02.01-.04.02-.1.04-.15.02-.07.04-.16.07-.23.05-.11.11-.23.22-.32,0,0,.03-.02.03-.02,0,0,.18-.02.19-.03,0,0,.05-.08.05-.08l.05-.08s.14-.21.15-.22c-.03-.27-.02-.55,0-.83,0-.12.01-.24.02-.36,0-.02,0-.05,0-.07h0c-.08-.02-.18-.08-.25-.1-.04-.01-.1-.05-.14-.05-.03,0-.05-.03-.07-.04-.11-.05-.23-.1-.35-.2-.07-.02-.12-.05-.18-.07-.13-.05-.27-.1-.41-.19-.06-.03-.11-.06-.18-.08-.11-.04-.23-.09-.34-.2,0,0,0,0,0,0,0,0-.1-.03-.1-.04,0,0-.09-.02-.09-.03-.16-.05-.33-.1-.5-.15-.04-.01-.09-.03-.13-.05-.02,0-.04-.01-.05-.02-.02,0-.03-.01-.05-.02-.02,0-.04-.01-.06-.02,0,0-.02,0-.03,0-.02,0-.08,0-.1-.01-.05-.01-.12-.03-.19-.11,0-.02-.2-.05-.2-.06-.07-.02-.13-.04-.2-.06-.06-.02-.11-.03-.17-.05-.04-.01-.08-.02-.12-.03-.04-.01-.09-.03-.13-.04-.02,0-.04-.02-.07-.03-.05-.02-.09-.03-.14-.05,0,0-.02,0-.03,0-.01,0-.03,0-.04,0,0,0-.03,0-.03,0-.08-.02-.17-.04-.26-.12-.03,0-.04,0-.06,0-.02,0-.05,0-.07,0,0,0-.06,0-.07-.01,0-.01-.18-.41-.19-.42,0,0,0-.06,0-.07,0,0-.01-.36-.02-.37,0,0,.12.02.12.02.15.02.31.03.46.03.09,0,.18,0,.27,0,0,0,.13.01.13,0,.07,0,.15,0,.22,0,.14,0,.27,0,.42,0,.13,0,.27,0,.41,0,.04,0,.09,0,.13,0,.1,0,.19,0,.29,0,.12,0,.24,0,.35,0,.05,0,.11,0,.16,0,.09,0,.17,0,.26,0,.04,0,.09,0,.13,0,.04,0,.08,0,.12,0,.05,0,.1,0,.15.01.08.02.17,0,.26,0,.03,0,.06,0,.09,0,.06,0,.11,0,.17,0,.04,0,.07,0,.11,0,.03,0,.05,0,.08,0,.05,0,.1-.02.16,0,.02,0,.05.01.07.03,0,0,0,0,.03,0,.02,0,.04-.01.06-.01l.06-.26-.02-.22s-.02-.15-.02-.15c0,0,.07-.08.07-.09.02-.02.03-.04.05-.06.05-.07.1-.13.17-.15,0,0,0,0,0,0,.02,0,.03,0,.05-.03,0-.01.06-.4.05-.41,0,0,.15-.03.15-.03,0,0,0-.02,0-.02-.05-.14-.08-.26-.12-.38v-.04c-.05-.1-.11-.27-.07-.45,0,0-.04-.15-.05-.15-.02-.01-.2-.67-.22-.67-.01,0-.14-.45-.15-.43l-.08-.22-.08-.25s-.39-1.44-.39-1.48v-.05s-.02-.05-.02-.05c.01-.04-.27-1.2-.24-1.22Z"/>
  </g>
</svg>