<?xml version="1.0" encoding="UTF-8"?>
<svg id="Layer_2" data-name="Layer 2" xmlns="http://www.w3.org/2000/svg" viewBox="0 0 15.47 16.51">
  <defs>
    <style>
      .cls-1 {
        fill: none;
        fill-rule: evenodd;
        stroke: #000;
        stroke-miterlimit: 10;
        stroke-width: .25px;
      }
    </style>
  </defs>
  <g id="Layer_1-2" data-name="Layer 1">
    <path class="cls-1" d="M2.77.29c.07-.03.16-.06.23-.08.05-.02.11-.04.16-.06.03-.01.07-.02.1-.02.12,0,.75,0,.75,0l.03.04c.18.25.16.64.04.78-.03.04-.07.07-.11.1.04.1.07.21.07.32,0,.15.06.31.07.47,0,.05.02.11.02.17.02.02.05.04.06.08.04.11.16.19.24.28.07.07.17.14.23.23,0,0,0,0,0,0,.03.01.06.03.09.04.07.03.17.07.23.08.11.02.26.04.37.06.1.01.25.03.36.06.03,0,.06.02.09.03.03.02.06.04.1.06.02.01.04.03.06.04l.34.04c.15.34.63,1.06.78,1.4.04.06.06.11.09.17.07.17.28.56.35.73.16.33.32.65.48.98,0,.01.11.02.11.04,0,0,.08.02.08.03,0,0,.03.03.04.04,0,0,0,0,.01,0,.13.03.21.09.26.13.06.04.14.08.26.12,0,0,.08.03.09.02,0,0-.03.05-.02.04,0,0,0,.02.02.05.03-.02.07-.03.1-.05.15-.1.31-.2.46-.31.15-.15.32-.29.5-.41.06-.08.69-.39.78-.43.03-.02.07-.03.1-.05.11-.05.23-.13.34-.21.03-.01.08-.06.11-.07.09-.06.17-.12.26-.18.05-.04.1-.07.15-.11.02-.01.07-.05.09-.06.02-.01.08-.03.11-.04.1-.04.21-.08.31-.14.15-.08.3-.17.45-.27.06-.04.12-.07.18-.11.12-.07.24-.13.37-.18.06-.02.13-.05.19-.07.24-.08.48-.16.72-.24.01,0,.02,0,.04-.01.04-.02.13-.04.17-.05.05-.02.12-.13.18-.16l.18-.16.33.15.04.18s-.07.01-.06.02c0,0-.02,0-.01,0,.04.01-.31.21-.29.23-.14.12-.3.24-.48.37-.18.13-.38.27-.58.41,0,.03-.35.21-.35.24-.03.02-.06.04-.09.06-.03.01-.07.05-.1.07-.03.01-.08.05-.11.06-.04.02-.08.04-.13.06-.12.06-.24.11-.37.17-.11.05-.23.1-.35.14-.1.04-.19.08-.28.13-.06.03-.11.05-.17.07-.01,0-.16.07-.17.07-.23.09-.46.18-.7.27-.03.01-.07.02-.1.03-.11.04-.22.07-.33.11,0,0-.09.04-.1.04,0,.05.02.08.04.1.12.05.24.1.36.17.07.04.15.1.22.15.07.05.13.09.2.14.1.06.21.13.31.19,0,0,.02.01.03.02.07.04.14.08.2.13.1.06.2.13.3.19.04.03.09.06.13.09.04.02.07.05.11.07.13.08.26.16.39.24-.02.02.3.15.29.17.08.05.17.1.26.16.02.02.05.04.07.06,0,0,.03.02.03.02,0,0,.1.07.09.07-.01.02-.1.13-.11.15-.09.11-.12.15-.24.23,0,0-.04.03-.05.03-.05.06-.52-.04-.59,0-.03.02-.29-.02-.32.02-.01.02-.13,0-.15.01-.04.05-.32,0-.33.04l-.23.04c-.03.1-.57,0-.59.11-.01.05-.25,0-.25.06,0,.02-.09,0-.09.02-.04,0-.08.02-.11.03-.13.04-.25.07-.36.09-.03,0-.07.02-.1.02.03.04.05.08.08.12.05.09.11.2.15.33.01.03.02.06.03.08.18.21.27.49.28.76,0,.06,0,.12,0,.18,0,.07,0,.14,0,.2,0,.06,0,.12-.02.19,0,.02-.02.13-.02.15,0,.03-.13.18-.13.22,0,.01-.05,0-.05,0-.08,0-.14,0-.18-.02,0,.03,0,.1.02.13,0,.03-.03.08-.02.1,0,.05-.02.11-.03.17,0,.05-.02.11-.04.16-.02.05-.03.1-.05.15-.01.03-.02.06-.03.09-.02.01.05.13.03.14-.03.02-.07.25-.11.27,0,0-.04.03-.04.03-.03.02-.05.04-.07.05-.11.09-.17.2-.2.34,0,.04-.02.08-.03.12-.01.06-.03.11-.04.17,0,.02,0,.05,0,.07-.01.11-.02.21-.04.3,0,.04-.01.07-.01.11,0,.06-.01.12-.02.18,0,.03-.01.07,0,.09,0,0,0,.02.01.03l.13.07.1-.08.09.21s.02.06.04.08c.03.04.06.16.09.2.08.14,0,.46-.04.51l-.04.1-.12.03-.08.11s0,.04,0,.05c0,.05,0,.27-.08.33l-.02.03-.04.02s-.05.02-.04.03c.04.04-.22.08-.18.12.12.11-.45.19-.47.3,0,.05-.13-.2-.16-.12l-.05-.03h-.02s0,0,0,0c-.04,0,0-.03-.02-.05l.11.22.06-.2s-.1-.21-.1-.25c0-.01-.06-.05-.06-.07,0-.04-.07.04-.07,0-.03-.02-.15-.1-.18-.13,0,0-.02-.01-.02-.02-.04-.04-.1-.11-.11-.2,0-.05-.01-.1-.02-.15,0-.02-.02-.06-.02-.08,0-.01,0-.05,0-.07,0-.01-.01-.02-.02-.03-.03-.08-.06-.17-.06-.28,0-.25-.07-.49-.19-.76-.01-.05-.07-.15-.09-.2-.08-.16-.16-.34-.2-.53-.02-.03-.04-.07-.06-.1-.04-.09-.19-.11-.18-.2l-.03-.26c0-.08-.06-.34-.05-.41,0,0,.01-.02.01-.03,0,0,0-.02,0-.02-.03-.02,0-.08-.02-.1-.03-.04-.06-.08-.08-.12-.02-.04-.04-.08-.06-.12,0,0-.02,0-.03.01-.06.02-.13.05-.29-.04-.02-.01-.04-.02-.06-.04-.07-.04-.13-.1-.19-.15-.01-.01-.02-.02-.04-.03,0-.03-.11,0-.11-.02,0-.04-.16,0-.17-.03,0-.02-.11,0-.12-.02-.02,0-.04-.01-.07-.02,0,0-.02,0-.02,0-.08-.03-.16-.05-.25-.07-.03.01-.12.03-.15.04-.03.02-.06.12-.09.14-.02.04-.04.08-.06.13,0,.05-.11.27-.11.32,0,.01,0,.05,0,.07,0,.01.05,0,.05.02,0,.09.27.36.23.43-.01.03-.13.14-.15.16.02.02,0,.08.01.1.01.02-.03.03-.02.05-.05.07-.12.11-.23.17,0,0-.04.02-.05.01-.01-.01-.09-.02-.1-.03-.08-.03-.15-.06-.23-.08-.16.02-.29.04-.42.04-.1,0-.19,0-.27,0-.1,0-.19,0-.29,0-.01,0-.05,0-.06,0-.02-.01-.07-.02-.08-.03-.06-.04-.28-.07-.35-.1-.06-.02-.28-.05-.34-.09-.01,0,0-.07-.01-.08v-.1s0-.05,0-.06c.02-.22.1-.42.23-.59.05-.07.1-.13.16-.19.04-.05.08-.1.12-.15,0,0,.02-.02.02-.03.03-.02.16-.12.18-.14.03-.06.05-.11.08-.17.06-.14.14-.27.29-.37,0,0,0,0,0,0,0,0,0,0,0-.01.02-.03.04-.07.06-.1.03-.05.07-.11.12-.15.08-.06.18-.14.3-.2,0,0,.03-.02.03-.02.03-.02.19-.04.21-.07.01,0,.06-.05.07-.06l.07-.06s.15-.14.18-.17c.04-.19.11-.38.18-.58.03-.08.05-.16.08-.24,0-.01-.02-.04-.02-.05h0c-.06,0-.22-.13-.28-.14-.03,0-.13-.07-.16-.08-.02,0,0-.06-.03-.06-.05-.08-.11-.17-.17-.28-.04-.04-.07-.09-.1-.13-.08-.1-.17-.2-.26-.32-.04-.05-.08-.09-.12-.14-.08-.08-.16-.17-.25-.29,0,0,0,0,0,0,0-.02-.08-.05-.08-.07-.01-.02-.08-.04-.1-.05-.18-.1-.36-.18-.56-.25-.05-.02-.1-.04-.15-.06-.02,0-.04-.02-.06-.02-.02,0-.04-.01-.06-.02-.02,0-.05-.02-.07-.02-.01,0-.02,0-.03,0-.03,0-.09-.02-.11-.03-.06-.03-.14-.06-.2-.12-.02-.04-.19-.08-.22-.11-.07-.03-.15-.06-.23-.09-.07-.03-.13-.05-.19-.08-.04-.02-.09-.04-.13-.05-.05-.02-.1-.04-.15-.06-.03-.01-.05-.02-.08-.03-.05-.02-.11-.04-.16-.07,0,0-.02,0-.03-.01-.02,0-.03-.01-.05-.02,0,0-.03,0-.03-.01-.1-.04-.2-.07-.3-.15-.03,0-.05-.02-.07-.02-.03,0-.05-.02-.08-.03,0-.01-.07-.02-.07-.03-.02-.03-.18-.24-.21-.27,0,0,0-.04-.01-.04-.02-.02-.05-.2-.08-.22-.01,0,.08,0,.06-.01.08-.02.16-.05.25-.09.05-.02.11-.05.16-.07,0-.02.09-.02.09-.04.05-.02.1-.05.16-.07.1-.04.2-.09.32-.13.11-.04.23-.08.36-.11.04-.01.08-.02.13-.03.1-.02.18-.05.26-.07.1-.03.19-.07.28-.11.04-.02.08-.03.12-.05.07-.03.14-.05.21-.08.04-.01.07-.03.11-.05.03-.01.07-.03.1-.04.04,0,.09-.05.12-.04.07-.02.14-.05.22-.08.03-.01.05-.02.08-.03.05-.02.09-.03.14-.05.03,0,.06-.02.09-.03.02,0,.04-.02.06-.03.04-.02.09-.04.14-.05.02,0,.04-.02.06,0,0,0,0,0,.02,0,.01,0,.03-.02.05-.02l.05-.18v-.15s-.03-.09-.03-.1c0-.01.06-.06.06-.07.02-.01.03-.03.04-.05.05-.05.09-.1.14-.13,0,0,0,0,0,0,.02,0,.03-.01.04-.03,0-.03.03-.24.02-.27,0-.02.11-.04.1-.06,0,0,0,0,0-.01-.05-.09-.09-.16-.13-.24v-.02c-.07-.06-.15-.15-.14-.25-.01,0-.05-.08-.07-.08-.06-.02-.25-.36-.3-.36-.04,0-.17-.21-.21-.18l-.1-.07-.1-.15c-.13-.09-.41-.88-.4-.97v-.03s-.01-.03-.01-.03c.04-.09-.12-.71-.01-.75Z"/>
  </g>
</svg>