<?xml version="1.0" encoding="UTF-8"?>
<svg id="Layer_2" data-name="Layer 2" xmlns="http://www.w3.org/2000/svg" viewBox="0 0 11.15 15.51">
  <defs>
    <style>
      .cls-1 {
        fill: none;
        fill-rule: evenodd;
        stroke: #000;
        stroke-miterlimit: 10;
        stroke-width: .25px;
      }
    </style>
  </defs>
  <g id="Layer_1-2" data-name="Layer 1">
    <path class="cls-1" d="M.84.55c.1-.04.22-.1.32-.14.07-.03.16-.08.23-.1.04-.02.09-.03.14-.03.07,0,.3-.04.48-.04.25-.01.5-.03.51-.04,0,0,.04.05.04.04.27.31.16.78.04.93-.04.05-.09.08-.14.11.06.12.08.25.1.39.02.19.05.37.08.57.01.07.02.13.03.2.03.02.07.05.09.09.06.13.19.22.32.32.11.08.22.16.3.27,0,0,0,0,0,0,.04.01.08.03.12.04.11.04.21.07.31.08.16.02.33.03.49.04.15,0,.31.02.46.03.09.01.18.05.26.09.03.01.06.03.09.04.01-.01.46-.02.47-.03.05-.04.57.42.64.38.03.02.06.04.08.05.03-.02.26.27.29.25.15.13.29.26.45.4.02.02.05.05.08.07,0,0,0,0,0,0,.15-.11.31-.21.46-.32.13-.09.25-.19.36-.28.02-.05.05-.09.08-.13.14-.19.38-.28.61-.33.06-.01.12-.06.17-.1,0,0,.05-.04.05-.04.04-.03.07-.06.11-.1.02-.02.04-.04.06-.06,0,0,.04-.04.04-.03,0,0,.06,0,.06,0,.14,0,.25-.04.4-.13.07-.04.17-.08.28-.07.18.02.35.05.53.08,0,0,.09,0,.09.02.01.02.06-.19.07-.16.01.03.16.11.17.14.36.26.38.64.35,1.07,0,0,0,.05,0,.06,0,0-.02.04-.02.05-.1.27-.26.48-.5.62,0,0-.03.01-.03.02-.05.03-.09.07-.13.11-.11.11-.2.27-.28.47-.02.05-.04.11-.06.17-.05.13-.09.26-.15.38-.12.24-.22.48-.32.75-.09.24-.25.43-.43.6-.05.04-.09.11-.13.19-.02.03-.04.06-.06.09-.05.08-.09.16-.11.23,0,.01-.05.18-.05.2-.04.17-.09.34-.12.51-.02.08-.03.16-.02.24,0,.13,0,.27.01.4,0,.13.02.26.03.4,0,.06.03.13.05.2,0,.02,0,.03.01.05.1.06.15.15.19.24.04.09.05.19.05.26,0,.05,0,.1,0,.16,0,.02,0,.05,0,.08,0,.04,0,.09-.01.13,0,0,0,.02,0,.03,0,.12-.02.24-.04.37,0,0-.01.07-.01.08,0,0-.06.04-.06.04-.06.04-.12.09-.18.15-.13.12-.27.24-.47.31-.11.04-.23.1-.34.15-.04.02-.07.03-.1.05,0,.01-.02.02-.03.04-.04.05-.08.11-.14.15-.07.05-.1.12-.11.22-.07.08-.15,1.45-.24,1.52,0,.02.02.03.03.05.04.07.07.14.12.2.17.25.16.41-.02.76-.09.06-.2.19-.28.25,0,0-.08.02-.08.02,0,0-.02,0-.02,0-.06,0-.1-.01-.13-.04-.01,0-.13.36-.15.37-.02.01-.23-.39-.25-.37,0,0-.08-.03-.08-.03,0,0-.1.18-.1.19,0,0-.12-.07-.13-.06,0,0-.02,0-.02,0-.03,0-.1-.04-.1-.11,0-.05-.01-.09-.02-.14-.02-.12-.05-.26-.03-.38.03-.18,0-.37-.07-.61,0-.03-.02-.05-.03-.08-.02-.04-.03-.07-.05-.11-.04-.08-.08-.16-.1-.25-.02-.06-.03-.12-.04-.18-.12-.15-.13-.31-.14-.45,0,0,0-.2-.01-.2,0-.1-.01-.21-.02-.31,0,0,0-.02,0-.03-.01,0-.02-.01-.03-.02-.03-.01-.06-.03-.09-.05-.05-.03-.1-.06-.14-.1-.03-.03-.05-.06-.07-.08,0,.02-.02.04-.03.07-.07.14-.14.26-.36.26-.02,0-.05,0-.08,0-.09,0-.17-.02-.25-.04-.02,0-.03,0-.05-.01-.01,0-.28.16-.29.16-.01,0-.2.11-.21.11-.02.02-.05.04-.09.05,0,0-.02,0-.02,0-.23.06-.45.12-.64.3-.01,0-.17.22-.18.22,0,0,0,.04,0,.04,0,0,.05-.03.05-.03-.02,0,.35.24.33.23,0,0-.15.11-.16.11.12.16.13.29-.02.51,0,0-.04.05-.04.05,0,0-.11,0-.11,0-.08,0-.15,0-.23,0-.15,0-.27-.04-.38-.1-.26-.14-.46-.27-.64-.4-.08-.06-.18-.11-.28-.15-.09-.04-.18-.08-.27-.14-.02-.01-.04-.03-.06-.05,0,0-.05-.04-.06-.05,0,0-.02-.04-.02-.04-.11-.24-.1-.46.01-.64.02-.03.04-.06.05-.09.1-.18.22-.39.42-.45,0,0,0,0,0,0,0,0,0,0,0,0,.03-.06.07-.13.13-.16.13-.06.21-.2.31-.36,0,0,.04-.05.03-.05.11-.18.22-.37.33-.57.03-.05.05-.1.08-.15-.02-.04-.27-.34-.28-.37,0,0,.04-.1.04-.11.1-.29.18-.61.23-.95.04-.33.07-.67.08-1.03-.11-.25-.23-.46-.38-.63-.02-.02-.04-.05-.06-.07-.07-.07-.15-.16-.19-.3-.02-.06-.04-.12-.07-.18-.03-.06-.07-.12-.12-.18-.03-.04-.06-.09-.09-.14-.04-.07-.09-.13-.13-.19-.04-.06-.09-.12-.13-.18-.09-.14-.18-.29-.26-.45-.05-.1-.11-.18-.19-.28-.14-.16-.29-.39-.32-.73,0-.06,0-.12,0-.18,0-.14.04-.28.14-.43.09-.13.12-.25.11-.4-.01-.16.02-.31.06-.46,0,0,.02-.09.02-.09.04-.2.09-.39.13-.58.01-.02.06-.27.07-.29,0-.03,0-.07.03-.12.09-.18.06-.33-.02-.55,0,0,0,0,0,0-.06-.03-.11-.07-.16-.12-.06-.05-.13-.1-.18-.12-.04-.01-.08,0-.12.02,0,0-.06.04-.05.03,0,0-.06-.06-.05-.07-.14-.16-.11-.38-.06-.54,0,0,0-.02,0-.02,0,0,0-.02.01-.02.08-.15.21-.27.38-.35Z"/>
  </g>
</svg>