<?xml version="1.0" encoding="UTF-8"?>
<svg id="Layer_2" data-name="Layer 2" xmlns="http://www.w3.org/2000/svg" viewBox="0 0 10.83 15.19">
  <defs>
    <style>
      .cls-1 {
        fill: none;
        fill-rule: evenodd;
        stroke: #000;
        stroke-miterlimit: 10;
        stroke-width: .25px;
      }
    </style>
  </defs>
  <g id="Layer_1-2" data-name="Layer 1">
    <path class="cls-1" d="M.81.55c.09-.03.21-.1.3-.14.06-.03.15-.07.21-.1.04-.01.09-.03.13-.03.07,0,.28-.05.45-.05.23-.02.47-.03.48-.05,0,0,.04.04.04.04.26.27.16.7.06.83-.03.05-.08.07-.13.1.06.11.08.22.1.34.02.17.06.33.09.5.01.06.02.12.03.18.03.02.06.04.08.08.06.12.18.2.3.29.1.07.21.14.28.24,0,0,0,0,0,0,.04.01.07.02.11.03.1.03.19.06.29.07.15.01.31.02.46.02.14,0,.29,0,.43.02.09,0,.16.04.24.08.03.01.06.02.09.04.02-.01.43-.03.45-.04.06-.05.55.36.63.32.03.02.05.03.07.05.04-.02.25.24.29.22.15.11.3.23.45.36.03.02.05.04.08.06,0,0,0,0,0,0,.15-.1.3-.2.46-.3.13-.08.25-.17.36-.26.02-.04.05-.08.08-.12.15-.17.38-.25.61-.29.06,0,.12-.05.17-.08,0,0,.05-.04.05-.03.04-.02.07-.05.11-.08.02-.02.04-.03.06-.05,0,0,.03-.03.04-.03,0,0,.05,0,.06,0,.13,0,.25-.03.39-.09.07-.03.16-.07.27-.05.17.03.33.07.5.11,0,0,.08.01.08.02.01.03.06-.16.07-.13.02.04.15.11.17.15.34.28.38.67.35,1.1,0,0,0,.05,0,.06,0,0-.02.04-.02.05-.08.29-.23.51-.45.67,0,0-.02.01-.03.02-.04.04-.08.08-.12.12-.1.12-.18.29-.25.5-.02.06-.04.11-.06.17-.04.13-.08.27-.14.39-.11.25-.2.51-.3.77-.09.23-.24.42-.4.59-.04.04-.08.11-.12.18-.02.03-.03.06-.05.09-.05.08-.09.15-.11.22,0,.02-.04.17-.05.19-.04.16-.08.33-.12.49-.02.08-.03.16-.02.23,0,.13,0,.26,0,.39,0,.13.01.26.02.38,0,.06.02.13.04.2,0,.02,0,.03.01.05.09.06.14.15.17.24.03.09.04.18.04.25,0,.05,0,.1,0,.15,0,.02,0,.05,0,.07,0,.04-.01.08-.02.12,0,0,0,.02,0,.02,0,.11-.02.23-.05.35,0,0-.01.07-.02.07,0,0-.06.04-.06.04-.06.04-.11.09-.17.15-.12.11-.26.24-.44.31-.11.04-.22.1-.32.16-.03.02-.07.03-.1.05,0,.01-.02.02-.03.03-.04.05-.08.11-.13.15-.06.05-.1.12-.11.21-.08.1-.18,1.37-.28,1.46,0,.02.02.03.02.05.03.06.06.13.09.19.15.24.12.4-.06.72-.1.07-.23.2-.32.27,0,0-.08.02-.08.02,0,0-.02,0-.02,0-.05,0-.09-.01-.12-.03-.02.01-.13.34-.14.35-.02.01-.22-.35-.24-.33,0,0-.07-.03-.08-.02,0,0-.09.17-.1.17,0,0-.12-.06-.12-.05,0,0-.02,0-.02,0-.03,0-.09-.03-.1-.1,0-.04-.01-.08-.02-.13-.02-.11-.05-.23-.04-.34.02-.16,0-.33-.09-.55,0-.03-.02-.05-.03-.07-.02-.03-.03-.07-.05-.1-.04-.07-.08-.15-.11-.23-.02-.05-.03-.11-.04-.17-.11-.14-.13-.29-.15-.42-.01,0,0-.18-.02-.18,0-.1-.01-.19-.03-.29,0,0,0-.02,0-.03,0,0-.02,0-.03-.01-.03-.01-.06-.03-.08-.04-.05-.03-.09-.05-.13-.09-.03-.02-.05-.05-.07-.08,0,.02-.02.04-.03.06-.07.12-.14.23-.34.24-.02,0-.05,0-.07,0-.08,0-.16-.02-.24-.03-.02,0-.03,0-.05,0-.02,0-.26.14-.28.14-.01,0-.19.1-.2.1-.02.01-.05.03-.08.04,0,0-.02,0-.02,0-.22.06-.43.11-.61.27-.01,0-.16.2-.17.2,0,0,0,.04,0,.04,0,0,.05-.03.04-.03-.02,0,.31.22.29.21,0,0-.14.1-.15.1.1.15.11.26-.04.46,0,0-.03.05-.04.05,0,0-.1,0-.1,0-.07,0-.14,0-.21,0-.14-.01-.25-.04-.36-.1-.24-.13-.44-.26-.61-.38-.08-.06-.17-.1-.26-.14-.08-.04-.17-.08-.26-.13-.02-.01-.04-.03-.06-.05,0,0-.05-.04-.05-.05,0,0-.02-.04-.02-.04-.11-.23-.12-.45-.02-.62.02-.03.03-.06.04-.09.08-.18.18-.38.35-.45,0,0,0,0,0,0,0,0,0,0,0,0,.03-.06.06-.13.11-.16.11-.06.18-.21.27-.36,0,0,.03-.05.03-.05.1-.18.18-.37.28-.57.02-.05.05-.1.07-.14-.02-.04-.26-.33-.27-.37,0-.01.04-.09.03-.1.09-.29.15-.6.19-.93.03-.32.06-.66.07-1.01-.1-.24-.21-.45-.34-.63-.02-.03-.04-.05-.06-.07-.06-.08-.14-.17-.17-.3-.02-.06-.04-.12-.06-.18-.03-.06-.06-.12-.1-.18-.03-.04-.05-.09-.08-.14-.03-.07-.07-.13-.12-.19-.04-.06-.08-.12-.11-.18-.08-.14-.16-.29-.23-.45-.04-.1-.09-.18-.16-.27-.12-.16-.26-.39-.28-.71,0-.06,0-.12,0-.18,0-.13.04-.28.14-.42.08-.13.11-.24.11-.39,0-.15.03-.3.06-.45,0,0,.02-.08.02-.09.04-.19.09-.38.14-.56.01-.02.06-.25.07-.28,0-.03,0-.07.03-.12.09-.18.07-.32,0-.53,0,0,0,0,0,0-.05-.03-.09-.08-.14-.12-.06-.05-.11-.1-.16-.12-.04-.02-.07-.02-.1,0,0,0-.05.03-.04.02,0,0-.05-.06-.04-.07-.12-.16-.08-.36-.03-.52,0,0,0-.02,0-.02,0,0,0-.02.01-.02.08-.15.2-.26.37-.34Z"/>
  </g>
</svg>