<?xml version="1.0" encoding="UTF-8"?>
<svg id="Layer_2" data-name="Layer 2" xmlns="http://www.w3.org/2000/svg" viewBox="0 0 10.52 14.86">
  <defs>
    <style>
      .cls-1 {
        fill: none;
        fill-rule: evenodd;
        stroke: #000;
        stroke-miterlimit: 10;
        stroke-width: .25px;
      }
    </style>
  </defs>
  <g id="Layer_1-2" data-name="Layer 1">
    <path class="cls-1" d="M.8.55c.08-.03.2-.1.28-.13.06-.02.14-.07.2-.1.03-.01.08-.03.12-.03.06,0,.27-.05.42-.05.22-.02.43-.04.45-.05,0,0,.03.04.04.03.24.24.17.62.08.73-.03.04-.07.06-.11.08.06.09.08.2.1.3.03.15.06.29.1.44.01.05.02.1.04.16.03.01.06.04.08.07.06.1.17.17.29.25.09.06.19.12.27.21,0,0,0,0,0,0,.03,0,.07.02.1.03.09.03.18.05.27.06.14,0,.29.01.43.01.13,0,.27,0,.41.01.08,0,.15.03.23.06.03.01.05.02.08.03.02-.02.4-.03.42-.04.07-.05.53.31.62.25.03.02.05.03.07.04.04-.02.25.21.29.19.15.1.3.2.46.31.03.02.05.04.08.05,0,0,0,0,0,0,.15-.09.3-.18.45-.27.13-.08.25-.15.36-.23.02-.04.05-.07.09-.11.15-.15.38-.22.6-.25.06,0,.11-.04.17-.07,0,0,.05-.03.05-.03.04-.02.07-.04.11-.07.02-.01.04-.03.06-.04,0,0,.03-.03.04-.02s.05,0,.06,0c.13.02.24-.01.37-.06.07-.02.16-.05.26-.03.16.03.32.08.48.13,0,0,.07.01.08.02.02.03.06-.13.07-.1.02.04.15.12.16.16.33.31.37.7.36,1.13,0,.01,0,.05,0,.06,0,.01-.01.04-.01.05-.07.3-.2.54-.4.73,0,0-.02.02-.02.03-.04.04-.08.08-.11.13-.09.13-.16.31-.23.52-.02.06-.04.12-.05.18-.04.14-.08.27-.13.41-.1.26-.18.53-.28.8-.08.23-.22.41-.37.57-.04.04-.08.11-.11.18-.02.03-.03.06-.05.09-.05.08-.08.15-.1.22,0,.02-.04.17-.04.18-.04.16-.08.32-.12.47-.02.07-.03.15-.03.23,0,.12,0,.25,0,.38,0,.12,0,.25.01.37,0,.06.02.12.03.19,0,.02,0,.03.01.05.08.06.12.15.15.24.03.09.03.18.02.24,0,.05,0,.09-.01.14,0,.02,0,.04-.01.07,0,.04-.01.08-.02.12,0,0,0,.02,0,.02-.01.11-.03.22-.05.34,0,0-.01.06-.02.07,0,0-.05.04-.05.04-.05.04-.11.09-.16.14-.12.11-.25.23-.42.31-.1.04-.21.1-.31.16-.03.02-.06.03-.09.05,0,.01-.02.02-.02.03-.04.05-.08.1-.13.14-.06.05-.09.11-.11.2-.09.11-.2,1.29-.32,1.39,0,.02.01.03.02.05.02.06.04.13.07.19.12.23.08.38-.1.69-.12.08-.25.22-.37.3,0,0-.07.02-.07.02,0,0-.02,0-.02,0-.05,0-.09,0-.12-.03-.02.01-.12.31-.14.33-.02.02-.21-.31-.23-.29,0,0-.07-.02-.07-.02,0,0-.09.16-.1.16,0,0-.11-.05-.11-.05,0,0-.02,0-.02,0-.03,0-.09-.03-.09-.08,0-.04-.01-.08-.02-.11-.02-.1-.06-.2-.05-.31.01-.15-.02-.3-.1-.49,0-.02-.02-.05-.03-.07-.02-.03-.03-.06-.05-.09-.04-.07-.08-.14-.11-.21-.02-.05-.03-.1-.04-.15-.11-.12-.13-.26-.15-.38-.01,0-.01-.17-.02-.17-.01-.09-.02-.18-.04-.26,0,0,0-.02,0-.03,0,0-.02,0-.03-.01-.03-.01-.05-.03-.08-.04-.05-.02-.09-.05-.13-.08-.03-.02-.05-.05-.07-.07,0,.02-.02.04-.03.05-.07.11-.14.21-.33.22-.02,0-.04,0-.07,0-.08,0-.15-.02-.22-.03-.01,0-.03,0-.04,0-.02,0-.25.13-.26.13-.01,0-.18.09-.19.09-.02.01-.05.03-.08.04,0,0-.02,0-.02,0-.21.05-.41.1-.58.24-.02,0-.15.18-.17.18,0,0,0,.03,0,.03,0,0,.04-.02.04-.02-.03,0,.27.2.24.18,0,0-.13.09-.14.09.09.13.08.23-.05.41,0,0-.03.04-.04.04,0,0-.09,0-.1,0-.07,0-.13,0-.2,0-.13-.01-.24-.04-.33-.1-.23-.13-.41-.24-.57-.36-.07-.06-.16-.1-.25-.14-.08-.04-.16-.08-.24-.13-.02-.01-.04-.03-.06-.05,0,0-.05-.04-.05-.04,0,0-.02-.04-.02-.04-.11-.22-.13-.43-.06-.6.01-.03.02-.06.03-.09.06-.18.14-.38.29-.46,0,0,0,0,0,0,0,0,0,0,0,0,.02-.06.04-.13.09-.16.09-.07.15-.21.22-.36,0,0,.03-.04.02-.05.08-.18.15-.37.23-.57.02-.05.04-.09.06-.14-.02-.05-.24-.32-.26-.37,0-.01.03-.09.03-.1.07-.28.12-.59.15-.91.02-.32.05-.65.06-.99-.09-.24-.19-.45-.3-.63-.02-.03-.03-.05-.05-.07-.05-.08-.12-.17-.14-.3-.01-.06-.03-.12-.05-.17-.03-.06-.06-.12-.09-.18-.02-.04-.05-.09-.07-.14-.03-.07-.06-.13-.1-.19-.03-.06-.07-.12-.09-.18-.07-.14-.13-.29-.19-.44-.03-.1-.08-.18-.14-.27-.11-.17-.22-.39-.23-.7,0-.06,0-.11,0-.17.01-.13.05-.27.14-.41.08-.12.11-.24.11-.38,0-.15.04-.29.07-.43,0,0,.02-.08.02-.09.05-.18.1-.36.15-.54.02-.03.06-.24.08-.27,0-.03.01-.07.03-.11.09-.17.08-.32.03-.52,0,0,0,0,0,0-.04-.03-.08-.08-.11-.12-.05-.05-.09-.1-.13-.13-.03-.02-.06-.02-.08,0,0,0-.04.02-.03.02,0,0-.04-.06-.04-.07-.1-.15-.06-.35,0-.5,0,0,0-.02,0-.02,0,0,0-.02.01-.02.08-.14.2-.25.35-.33Z"/>
  </g>
</svg>