<?xml version="1.0" encoding="UTF-8"?>
<svg id="Layer_2" data-name="Layer 2" xmlns="http://www.w3.org/2000/svg" viewBox="0 0 10.22 14.33">
  <defs>
    <style>
      .cls-1 {
        fill: none;
        fill-rule: evenodd;
        stroke: #000;
        stroke-miterlimit: 10;
        stroke-width: .25px;
      }
    </style>
  </defs>
  <g id="Layer_1-2" data-name="Layer 1">
    <path class="cls-1" d="M.96.55c.07-.03.18-.1.25-.13.05-.02.13-.07.18-.09.03-.01.08-.03.11-.03.05,0,.24-.06.37-.06.19-.02.37-.04.4-.07,0,0,.03.03.03.03.22.19.17.49.11.57-.02.03-.05.05-.08.06.06.07.08.15.1.24.03.11.07.23.11.35.01.04.03.08.04.12.03,0,.05.03.07.05.05.08.16.13.26.19.08.05.17.09.24.16,0,0,0,0,0,0,.03,0,.06.01.09.02.08.02.16.03.24.03.12,0,.25,0,.38,0,.12,0,.24,0,.36,0,.07,0,.14.02.2.04.02,0,.05.01.07.02.02-.02.35-.04.37-.05.08-.06.49.22.6.15.03.01.05.02.07.03.05-.03.24.16.3.13.15.07.3.15.46.23.03.01.05.03.08.04,0,0,0,0,0,0,.15-.08.3-.16.45-.24.12-.06.25-.13.36-.19.03-.03.06-.06.09-.09.16-.12.38-.18.59-.18.06,0,.11-.02.17-.05,0,0,.04-.02.05-.02.04-.01.07-.03.11-.05.02,0,.04-.02.06-.03,0,0,.03-.02.04-.02,0,0,.05,0,.05,0,.12.03.23.01.36,0,.06-.01.15-.02.24.01.15.05.29.11.44.17,0,.01.07.02.07.03.02.04.06-.09.08-.05.02.05.14.13.16.18.31.34.37.75.37,1.19,0,.01,0,.05,0,.06,0,.01-.01.04,0,.06-.05.32-.15.59-.32.81,0,.01-.02.02-.02.03-.03.05-.07.1-.1.16-.08.15-.14.35-.19.57-.01.06-.03.13-.04.19-.03.14-.06.29-.11.43-.08.28-.15.56-.24.85-.07.22-.19.4-.32.56-.04.04-.07.11-.1.17-.01.03-.03.06-.04.09-.04.07-.07.14-.09.21,0,.02-.04.15-.04.17-.04.15-.07.3-.11.45-.02.07-.03.14-.03.21,0,.12,0,.24,0,.36,0,.12,0,.23,0,.35,0,.06.01.12.02.18,0,.02,0,.03,0,.05.06.06.1.15.12.23.02.09.01.17,0,.23,0,.04-.02.09-.03.13,0,.02-.01.04-.02.06,0,.04-.02.07-.03.11,0,0,0,.01,0,.02-.01.1-.03.21-.06.32,0,0-.01.06-.02.07,0,0-.05.04-.05.04-.05.04-.1.09-.15.14-.11.11-.23.23-.38.3-.09.05-.19.11-.28.16-.03.02-.06.04-.08.05,0,.01-.02.02-.02.03-.04.05-.07.1-.12.14-.06.05-.09.11-.11.19-.11.14-.24,1.16-.38,1.28,0,.01,0,.03,0,.04.01.06.02.12.04.17.07.21.02.36-.16.63-.14.09-.3.24-.43.34,0,0-.06.02-.07.02,0,0-.02,0-.02,0-.05,0-.08,0-.1-.02-.02.02-.12.27-.14.29-.03.02-.19-.25-.22-.23,0,0-.06-.02-.06-.01-.01,0-.08.14-.09.14,0,0-.1-.04-.1-.03,0,0-.01,0-.02,0-.03,0-.08-.02-.09-.07,0-.03-.01-.06-.02-.09-.03-.08-.06-.16-.06-.24,0-.12-.04-.24-.13-.41,0-.02-.02-.04-.03-.06-.02-.03-.03-.05-.05-.08-.04-.06-.08-.11-.11-.18-.02-.04-.04-.08-.05-.13-.1-.1-.13-.22-.16-.32-.01,0-.02-.14-.03-.14-.02-.07-.03-.15-.05-.22,0,0,0-.01,0-.02,0,0-.02,0-.03-.01-.02-.01-.05-.02-.07-.03-.04-.02-.08-.04-.12-.07-.02-.02-.04-.04-.06-.06,0,.02-.02.03-.03.05-.07.1-.14.18-.3.19-.02,0-.04,0-.06,0-.07,0-.14-.01-.2-.02-.01,0-.03,0-.04,0-.02,0-.22.11-.24.11-.02,0-.16.08-.18.08-.02.01-.04.03-.07.03,0,0-.02,0-.02,0-.19.04-.37.08-.53.2-.02,0-.14.15-.16.15,0,0,0,.03,0,.03,0,0,.03-.02.03-.02-.03-.01.21.16.18.14-.01,0-.12.07-.13.07.06.1.05.18-.08.33,0,0-.03.03-.03.03,0,0-.08,0-.09,0-.06,0-.12,0-.18-.01-.11-.01-.21-.04-.3-.09-.2-.11-.37-.22-.51-.33-.07-.05-.14-.09-.22-.13-.07-.04-.14-.07-.21-.12-.02-.01-.04-.03-.06-.05,0,0-.04-.04-.05-.04,0,0-.02-.03-.02-.04-.12-.2-.15-.4-.11-.57,0-.03.01-.06.02-.08.03-.18.07-.37.17-.47,0,0,0,0,0,0,0,0,0,0,0,0,.01-.06.03-.13.06-.16.07-.08.1-.22.14-.37,0,0,.02-.04.02-.05.05-.18.1-.36.15-.56.01-.05.03-.09.04-.14-.02-.06-.22-.3-.24-.36,0-.02.02-.08.02-.1.05-.28.08-.57.09-.89,0-.31.02-.63.04-.96-.07-.24-.15-.44-.23-.62-.01-.03-.03-.05-.04-.07-.04-.08-.09-.17-.11-.3,0-.06-.02-.12-.04-.17-.02-.06-.04-.12-.06-.18-.02-.04-.03-.09-.05-.14-.02-.07-.05-.13-.07-.19-.02-.06-.05-.12-.07-.18-.05-.14-.1-.29-.13-.44-.02-.09-.06-.18-.1-.27-.08-.17-.16-.39-.16-.68,0-.05,0-.11.01-.17.01-.13.05-.26.13-.39.07-.12.11-.23.11-.37,0-.14.05-.28.08-.41,0-.01.02-.07.03-.08.05-.17.1-.35.16-.52.02-.03.06-.22.08-.25,0-.03.02-.07.04-.11.09-.17.09-.3.06-.49,0,0,0,0,0,0-.03-.04-.05-.08-.08-.13-.03-.05-.06-.1-.09-.13-.02-.02-.04-.03-.05-.03,0-.01-.03.01-.02,0,0-.01-.03-.06-.02-.07-.07-.15-.02-.33.05-.47,0,0,0-.02,0-.02,0,0,0-.02.01-.02.08-.13.19-.24.34-.32Z"/>
  </g>
</svg>