<?xml version="1.0" encoding="UTF-8"?>
<svg id="Layer_2" data-name="Layer 2" xmlns="http://www.w3.org/2000/svg" viewBox="0 0 10.08 14">
  <defs>
    <style>
      .cls-1 {
        fill: none;
        fill-rule: evenodd;
        stroke: #000;
        stroke-miterlimit: 10;
        stroke-width: .25px;
      }
    </style>
  </defs>
  <g id="Layer_1-2" data-name="Layer 1">
    <path class="cls-1" d="M1.11.56c.06-.02.17-.1.23-.12.04-.02.12-.07.16-.09.02,0,.07-.03.1-.03.04,0,.23-.07.34-.07.17-.02.34-.05.36-.07,0,0,.03.02.03.02.2.15.17.41.13.47-.02.03-.04.04-.07.05.05.06.08.13.1.2.03.09.07.19.11.29.01.03.03.07.04.1.02,0,.05.02.07.04.05.07.15.11.24.15.08.04.16.07.23.13,0,0,0,0,0,0,.03,0,.06,0,.09.01.08.01.15.02.22.02.11,0,.23-.01.35-.02.11,0,.22-.02.33-.02.07,0,.13.01.19.03.02,0,.04.01.07.02.02-.02.32-.04.34-.06.09-.07.47.16.59.09.03,0,.05.01.07.02.06-.03.23.12.3.1.15.05.3.11.46.19.03.01.05.02.08.04,0,0,0,0,0,0,.15-.07.3-.15.45-.21.12-.06.24-.11.36-.16.03-.03.06-.05.1-.07.16-.1.38-.15.59-.13.06,0,.11-.01.17-.03,0,0,.04-.02.05-.01.04,0,.07-.02.11-.03.02,0,.04-.01.06-.02,0,0,.03-.02.04,0,0,0,.04,0,.05.01.12.03.23.03.35.02.06,0,.15,0,.24.04.14.06.28.12.41.2,0,.01.06.02.07.04.02.04.06-.06.08-.02.02.06.13.14.15.2.3.36.37.78.38,1.22,0,.01,0,.05,0,.06,0,.01,0,.04,0,.06-.03.34-.12.62-.27.87,0,.01-.02.02-.02.03-.03.05-.06.11-.09.17-.07.16-.12.37-.17.59-.01.06-.03.13-.04.2-.03.15-.05.3-.09.45-.07.29-.13.58-.22.88-.06.21-.17.39-.29.55-.03.04-.06.11-.09.17-.01.03-.03.06-.04.08-.04.07-.06.14-.08.2,0,.02-.03.14-.04.17-.04.14-.07.29-.11.43-.02.07-.02.14-.03.2,0,.11-.01.23-.02.34,0,.11,0,.23,0,.34,0,.06,0,.11.02.18,0,.01,0,.03,0,.04.05.06.08.14.1.23.02.08,0,.16,0,.22-.01.04-.02.08-.03.12,0,.02-.01.04-.02.06,0,.03-.02.07-.04.1,0,0,0,.01,0,.02-.02.1-.04.2-.07.3,0,0-.01.05-.02.06s-.04.03-.05.04c-.04.04-.09.09-.14.14-.1.11-.21.22-.36.3-.09.05-.17.11-.26.17-.03.02-.05.04-.08.05,0,.01-.02.02-.02.03-.03.05-.07.09-.11.13-.05.05-.09.1-.11.18-.13.15-.27,1.08-.42,1.22,0,.01,0,.03,0,.04,0,.06,0,.11.02.17.04.2-.02.34-.19.6-.16.1-.32.26-.47.37,0,0-.06.02-.06.02,0,0-.02,0-.02,0-.04,0-.07,0-.1-.01-.02.02-.11.25-.14.26-.03.02-.18-.21-.21-.19,0,0-.05-.01-.06,0-.01,0-.08.12-.09.13,0,0-.09-.03-.1-.03,0,0-.01,0-.01,0-.02,0-.07-.01-.08-.05,0-.02-.01-.05-.02-.08-.03-.07-.07-.14-.07-.21,0-.1-.06-.21-.14-.35,0-.02-.02-.03-.03-.05-.02-.02-.03-.04-.05-.07-.04-.05-.08-.1-.11-.15-.02-.04-.04-.07-.05-.11-.1-.09-.13-.19-.17-.28-.02,0-.02-.12-.04-.12-.02-.06-.04-.13-.06-.19,0,0,0-.01,0-.02,0,0-.02,0-.02,0-.02,0-.05-.02-.07-.03-.04-.02-.08-.04-.11-.06-.02-.02-.04-.03-.06-.05,0,.01-.02.03-.03.04-.07.08-.14.16-.29.16-.02,0-.04,0-.06,0-.06,0-.13-.01-.19-.02-.01,0-.03,0-.04,0-.02,0-.2.1-.23.1-.02,0-.15.07-.17.07-.02,0-.04.02-.07.03,0,0-.01,0-.02,0-.18.04-.35.07-.5.17-.02,0-.13.13-.15.13,0,0,0,.02,0,.02,0,0,.03-.02.02-.02-.03-.01.17.13.14.12-.01,0-.11.06-.12.06.04.09.03.15-.1.27,0,0-.03.03-.03.03,0,0-.07,0-.08,0-.06,0-.11,0-.17-.02-.11-.02-.19-.05-.28-.09-.19-.11-.34-.21-.48-.31-.06-.05-.13-.08-.2-.12-.07-.03-.13-.07-.2-.11-.02-.01-.04-.03-.06-.04,0,0-.04-.03-.05-.04,0,0-.02-.03-.02-.04-.12-.2-.17-.39-.15-.55,0-.03,0-.05,0-.08.01-.18.03-.37.11-.47,0,0,0,0,0,0,0,0,0,0,0,0,0-.06.01-.12.04-.16.05-.08.07-.23.1-.37,0,0,.02-.04.01-.05.03-.18.06-.36.1-.56,0-.05.02-.09.03-.14-.03-.06-.2-.29-.23-.36,0-.02.02-.08.01-.1.03-.27.05-.56.05-.87,0-.3.01-.62.03-.94-.06-.23-.12-.44-.19-.62,0-.03-.02-.05-.03-.08-.03-.08-.07-.18-.08-.3,0-.06-.01-.12-.03-.17-.01-.06-.03-.12-.05-.18-.01-.04-.03-.09-.04-.14-.02-.07-.04-.13-.06-.19-.02-.06-.04-.12-.05-.18-.04-.14-.07-.28-.1-.44-.02-.09-.05-.17-.08-.26-.06-.17-.13-.39-.12-.67,0-.05,0-.11.01-.16.02-.12.05-.25.13-.38.07-.11.1-.22.11-.35,0-.14.05-.27.09-.4,0-.01.02-.07.03-.08.05-.17.11-.33.16-.5.02-.03.06-.21.09-.24,0-.03.02-.07.04-.1.09-.16.1-.29.08-.47,0,0,0,0,0,0-.02-.04-.04-.08-.05-.13-.02-.05-.04-.1-.06-.14-.01-.02-.02-.04-.04-.04.01-.01-.02,0-.01,0,.01-.01-.02-.06-.01-.07-.05-.14,0-.32.07-.45,0,0,0-.02,0-.02,0,0,0-.01.01-.02.08-.13.19-.23.32-.31Z"/>
  </g>
</svg>