<?xml version="1.0" encoding="UTF-8"?>
<svg id="Layer_2" data-name="Layer 2" xmlns="http://www.w3.org/2000/svg" viewBox="0 0 9.92 13.57">
  <defs>
    <style>
      .cls-1 {
        fill: none;
        fill-rule: evenodd;
        stroke: #000;
        stroke-miterlimit: 10;
        stroke-width: .25px;
      }
    </style>
  </defs>
  <g id="Layer_1-2" data-name="Layer 1">
    <path class="cls-1" d="M1.3.52c.05-.02.16-.1.21-.12.04-.01.11-.07.15-.08.02,0,.06-.03.09-.03.04,0,.21-.08.3-.08.15-.03.3-.05.32-.08,0,0,.03.02.03.02.19.11.18.31.16.34,0,.02-.03.02-.05.03.05.04.08.09.11.15.04.07.08.14.12.21.01.03.03.05.04.08.02,0,.05.01.06.03.05.05.14.08.22.11.07.03.15.04.21.09,0,0,0,0,0,0,.03,0,.05,0,.08,0,.07,0,.13.01.2,0,.1,0,.21-.02.31-.03.1-.01.2-.02.3-.03.06,0,.11,0,.17.02.02,0,.04,0,.06.01.03-.02.28-.04.3-.07.1-.08.45.1.58.02.03,0,.05,0,.07,0,.06-.04.23.09.3.06.15.03.31.07.47.13.03,0,.05.02.08.03,0,0,0,0,0,0,.14-.07.29-.13.44-.18.12-.05.24-.09.36-.13.03-.02.07-.04.11-.06.17-.08.38-.1.58-.08.05,0,.11,0,.16-.01,0,0,.04-.01.05,0,.04,0,.07,0,.11-.02.02,0,.04,0,.06,0,0,0,.03-.01.04,0,0,0,.04,0,.05.01.12.04.22.05.33.06.06,0,.14.02.22.06.13.07.26.14.38.23,0,.01.06.03.06.04.02.05.06-.03.08.02.03.06.12.15.15.21.28.39.37.82.39,1.26,0,.02,0,.05,0,.06,0,.02,0,.04,0,.06-.02.35-.09.66-.22.93,0,.01-.01.03-.02.04-.03.06-.05.12-.08.19-.06.18-.1.39-.14.62-.01.07-.02.13-.03.2-.02.15-.05.31-.08.46-.06.3-.11.6-.19.91-.05.2-.15.37-.25.54-.03.04-.05.1-.08.17-.01.03-.02.05-.04.08-.03.07-.06.13-.07.19,0,.03-.03.13-.04.16-.03.14-.07.28-.1.41-.02.06-.02.13-.03.2,0,.11-.02.22-.02.33,0,.11-.01.21-.02.32,0,.05,0,.11,0,.17,0,.01,0,.03,0,.04.04.06.06.14.07.23.01.08,0,.15-.02.21-.01.04-.03.08-.04.11,0,.02-.02.04-.02.05-.01.03-.03.06-.04.09,0,0,0,.01,0,.02-.02.09-.04.19-.07.29,0,0-.01.05-.02.06,0,0-.04.03-.04.04-.04.04-.08.09-.12.14-.1.11-.2.22-.33.3-.08.05-.16.11-.24.17-.02.02-.05.04-.07.05,0,0-.01.02-.02.03-.03.04-.07.09-.11.13-.05.05-.08.1-.1.17-.14.17-.3.99-.47,1.14,0,.01,0,.03,0,.04,0,.05,0,.11,0,.16,0,.19-.07.32-.24.56-.17.11-.36.27-.52.4,0,0-.05.02-.06.02,0,0-.01,0-.02,0-.04,0-.07,0-.09,0-.03.02-.11.22-.13.24-.03.02-.17-.16-.2-.14,0,0-.05,0-.05,0-.01.01-.07.11-.08.12,0,0-.08-.02-.09-.02,0,0-.01,0-.01,0-.02,0-.07,0-.08-.04,0-.02-.02-.04-.03-.06-.03-.05-.07-.1-.08-.16-.02-.08-.07-.17-.16-.28-.01-.01-.02-.03-.03-.04-.02-.02-.03-.04-.05-.06-.04-.04-.08-.08-.11-.13-.02-.03-.04-.06-.06-.09-.1-.08-.14-.16-.18-.24-.02,0-.03-.1-.05-.1-.02-.05-.04-.11-.07-.16,0,0,0,0,0-.02,0,0-.01,0-.02,0-.02,0-.04-.02-.06-.02-.04-.01-.07-.03-.11-.05-.02-.01-.04-.03-.06-.04,0,.01-.02.02-.03.03-.07.07-.13.14-.27.14-.02,0-.04,0-.06,0-.06,0-.12,0-.17-.02-.01,0-.02,0-.03,0-.03,0-.18.08-.21.08-.02,0-.14.06-.16.06-.02,0-.04.02-.07.02,0,0-.01,0-.01,0-.16.03-.32.05-.46.13-.02,0-.12.11-.15.1,0,0,0,.02,0,.02,0,0,.02-.02.01-.02-.04-.01.12.11.09.09-.01,0-.1.05-.11.04.03.07,0,.12-.11.21,0,0-.03.02-.03.02,0,0-.07,0-.07,0-.05,0-.1-.01-.15-.02-.09-.02-.18-.05-.25-.09-.17-.1-.31-.19-.44-.29-.06-.04-.12-.08-.19-.11-.06-.03-.12-.06-.18-.11-.02-.01-.04-.03-.05-.04,0,0-.04-.03-.05-.04,0,0-.02-.03-.02-.03-.13-.18-.18-.37-.19-.53,0-.03,0-.05,0-.08-.01-.17-.01-.36.02-.48h0c0-.07,0-.13.01-.18.03-.09.03-.23.04-.38,0-.01,0-.04,0-.05.01-.18.02-.36.04-.55,0-.05,0-.09.01-.14-.03-.07-.18-.28-.21-.35,0-.02.01-.08,0-.1.01-.27.01-.55,0-.85-.01-.3,0-.6.01-.91-.05-.23-.1-.43-.15-.62,0-.03-.02-.05-.02-.08-.02-.09-.05-.18-.06-.3,0-.06,0-.11-.01-.17,0-.06-.02-.12-.03-.18,0-.04-.02-.09-.02-.14,0-.07-.02-.13-.03-.19-.01-.06-.02-.12-.03-.18-.02-.14-.04-.28-.06-.44,0-.09-.03-.17-.05-.26-.04-.18-.08-.39-.06-.65,0-.05.01-.1.02-.15.02-.12.06-.24.13-.36.06-.11.1-.22.11-.34.02-.13.06-.26.1-.38,0-.01.02-.07.03-.08.05-.16.11-.32.17-.47.02-.04.07-.19.09-.23.01-.03.02-.06.04-.1.08-.15.11-.28.11-.45,0,0,0,0,0,0-.01-.04-.02-.09-.03-.13-.01-.05-.02-.11-.03-.14,0-.03,0-.04-.01-.05.01-.01-.01,0,0-.01.01-.01-.01-.05,0-.07-.03-.14.04-.3.11-.43,0,0,0-.01,0-.02,0,0,0-.01.01-.02.08-.12.19-.22.31-.3Z"/>
  </g>
</svg>