<?xml version="1.0" encoding="UTF-8"?>
<svg id="Layer_1" xmlns="http://www.w3.org/2000/svg" version="1.1" viewBox="0 0 1920 1080">
  <!-- Generator: Adobe Illustrator 29.6.0, SVG Export Plug-In . SVG Version: 2.1.1 Build 207)  -->
  <defs>
    <style>
      .st0, .st1, .st2 {
        fill: none;
      }

      .st3 {
        fill: #567248;
      }

      .st3, .st4, .st5, .st6, .st7, .st1, .st8, .st2, .st9, .st10, .st11, .st12, .st13, .st14, .st15, .st16, .st17, .st18 {
        stroke-miterlimit: 10;
      }

      .st3, .st4, .st5, .st6, .st7, .st8, .st2, .st9, .st10, .st11, .st12, .st13, .st14, .st15, .st16, .st17, .st18 {
        stroke: #000;
      }

      .st3, .st4, .st5, .st6, .st7, .st8, .st9, .st10, .st11, .st12, .st13, .st14, .st15, .st16, .st17, .st18 {
        isolation: isolate;
      }

      .st4 {
        fill: #baa6bb;
      }

      .st5 {
        fill: #88528b;
      }

      .st6 {
        fill: #8dba7b;
      }

      .st7 {
        fill: #e385f0;
      }

      .st1 {
        stroke: #0a0a0a;
      }

      .st8 {
        fill: #9b8f97;
      }

      .st9 {
        fill: #7a6634;
      }

      .st10 {
        fill: #fff;
      }

      .st11 {
        fill: #71666d;
      }

      .st12 {
        fill: #caa65a;
      }

      .st13 {
        fill: #eb8ba7;
      }

      .st14 {
        fill: #327377;
      }

      .st15 {
        fill: #5f6695;
      }

      .st16 {
        fill: #9da3fe;
      }

      .st19 {
        display: none;
      }

      .st17 {
        fill: #56bccd;
      }

      .st18 {
        fill: #8d5461;
      }
    </style>
  </defs>
  <g id="Layer_3" class="st19">
    <rect class="st8" x="258.6" y="525.5" width="175.5" height="118.1"/>
  </g>
  <g id="Layer_4" class="st19">
    <path class="st3" d="M365.6,557.2c-1.8-4.2-12.1-5.1-14-2-.8,1.3.4,2.4,1,7,.5,3.9.9,7.4-1,9-2.2,1.8-7.1.8-9-2-.9-1.3-1-2.8-1-5,0-5.6,2-7.3,1-9-1.7-2.8-10.2-2.9-13,1-1.2,1.7-.8,5.1,0,12,.6,5.4,1.3,8.2,0,9-1.2.8-3.5-.7-4-1-2.6-1.7-2.7-3.8-4-4-2-.3-4.8,4-6,8s-2,11.7,2,14c1.7,1,4.2,1,6,0,2.4-1.3,2.8-4.1,4-4s1.8,3.1,2,4c2,10-1.7,14.5,1,18,1.8,2.3,5,2.6,10,3s5.1.4,6-1c.7-1.1-.2-2.2-1-6-.8-3.7-1.3-6.1,0-8,1.2-1.7,3.8-2.7,6-2,2.8.9,3.9,4,4,6,0,1.6-.6,1.9-1,5-.4,2.6-.6,3.9,0,5,1.6,3.1,8.9,3.8,11,1,1.2-1.6-.1-3.2-1-9-.7-4.4-1.2-12.2,1-13,1.1-.4,2.9,1.1,4,2,2,1.7,2.1,2.9,3,3,1.7.2,4.1-3.4,5-7,1.7-7.2-2.5-15.2-5-15-1.8,0-2.1,4.6-5,5-1,.2-2.3-.2-3-1-1.3-1.4-.3-3.3,0-8,.3-3.8-.3-3.5,0-7,.4-5.4,1.7-6.3,1-8Z"/>
  </g>
  <g id="Layer_8">
    <polygon class="st18" points="143 262.4 111 288.4 111 301.8 136.2 282.1 137 337.4 149 337.4 149 281.4 173.5 299.9 173.5 288.3 143 262.4"/>
    <polygon class="st9" points="233 295.9 242 274.9 230 287.9 228 281.9 225.2 285.4 209 268.9 215 289.9 209 288.3 214.6 295.9 189 289.9 209 300.9 211 305.9 192.3 321.4 215.5 316.5 215.5 330.5 225 316.9 229.3 314.4 250 330.5 235 306.9 233 295.9"/>
    <polygon class="st3" points="264.5 281.9 317.5 334.9 334.5 316.9 281.5 263.9 264.5 281.9"/>
    <polygon class="st14" points="361 273.4 354 288.4 341 299.4 353 310.4 361 324.6 379 319.4 398.2 324.6 405 309.4 415.9 299 404 288.4 397.5 273.4 378.5 277.6 361 273.4"/>
    <path class="st15" d="M465.5,279.9h0c-1.1-4.2-1.2-7.6-1-10,.2-2.3.5-3.4,1-8,.8-7,.3-7.7,0-8-2.2-2.3-8.2.4-12,2-4.1,1.8-7.8,3.4-8,6,0,1.1,1.3,3.1,4,7,1.6,2.3,1.7,2.3,2,3,1.1,2.6,1,6.4-1,9-3.1,4-8.4,1.8-11,6-1.2,2-1.1,4.2-1,5,.2,2.8,1.6,3.5,4,8,2.4,4.6,2.7,7,4,7s3.3-1.8,3.7-3.5c0-.2,0-.4.3-.5.7-.4,2.6,1.5,3,2,4.4,4.7,0,22.5,0,32v6h0c.3,1.7.9,3.8,2,4,2.2.4,5.3-6.5,6-8,2.5-5.6,5.6-12.7,4-20-.3-1.4-1-3.7,0-6,.7-1.7,1.8-2.2,4-4,.7-.5,5-4.1,8-9,1.6-2.5,2.8-4.5,2-6-.8-1.6-3-.9-5-3-2.1-2.1-1.7-4.9-3-5-1.1-.1-1.7,2-3,2s-2.3-2.1-3-4v-4Z"/>
    <path class="st5" d="M557.5,270.9c-1.8-4.2-12.1-5.1-14-2-.8,1.3.4,2.4,1,7,.5,3.9.9,7.4-1,9-2.2,1.8-7.1.8-9-2-.9-1.3-1-2.8-1-5,0-5.6,2-7.3,1-9-1.7-2.8-10.2-2.9-13,1-1.2,1.7-.8,5.1,0,12,.6,5.4,1.3,8.2,0,9-1.2.8-3.5-.7-4-1-2.6-1.7-2.7-3.8-4-4-2-.3-4.8,4-6,8s-2,11.7,2,14c1.7,1,4.2,1,6,0,2.4-1.3,2.8-4.1,4-4s1.8,3.1,2,4c2,10-1.7,14.5,1,18,1.8,2.3,5,2.6,10,3,2.5.2,5.1.4,6-1,.7-1.1-.2-2.2-1-6-.8-3.7-1.3-6.1,0-8,1.2-1.7,3.8-2.7,6-2,2.8.9,3.9,4,4,6,0,1.6-.6,1.9-1,5-.4,2.6-.6,3.9,0,5,1.6,3.1,8.9,3.8,11,1,1.2-1.6,0-3.2-1-9-.7-4.4-1.2-12.2,1-13,1.1-.4,2.9,1.1,4,2,2,1.7,2.1,2.9,3,3,1.7.2,4.1-3.4,5-7,1.7-7.2-2.5-15.2-5-15-1.8.1-2.1,4.6-5,5-1,.2-2.3-.2-3-1-1.3-1.4-.3-3.3,0-8,.3-3.8-.3-3.5,0-7,.4-5.4,1.7-6.3,1-8Z"/>
    <path class="st11" d="M579.5,300.9c-2.9,3.1,1.7,13.5,8,20,7.5,7.7,16.8,9.3,21,10s15,1.8,26-4c9.4-4.9,17.8-14.2,16-18-.6-1.2-3.1-1.8-8-3-7.1-1.7-7.9-.9-10-2-3.7-2-4.2-6.1-7-18-4-17.1-5.2-17.9-6-18-4.6-.7-12.2,19-13,21-3.2,8.4-3,11-6,13-7.2,4.7-17.6-4.6-21-1Z"/>
    <polygon class="st16" points="453.5 201.7 440.5 192.7 444.5 207.7 428.9 207.7 441.2 216.7 428.9 225.7 443.5 227.7 441.2 240.8 453.5 233.6 458.5 247.7 464.5 233.7 476.5 240.7 473.5 226.7 488.5 226.7 476.5 217.7 488.5 208 473.5 207.7 477.5 194.7 465.5 201.7 458.7 187.3 453.5 201.7"/>
    <path class="st7" d="M524.5,185.9c-2.7,1.2-1.9,4-6,7-2.4,1.8-3.2,1.1-6,3-.8.5-6.6,4.3-6,8,.3,1.8,1.8,1.9,5,5,3.1,3,6.1,5.8,6,9,0,1.7-2,4.2-6,9-2.6,3.2-3.6,4.1-4,6-.4,2.3.1,5.2,2,7,2.5,2.4,6.4,1.8,11,1,5.5-.9,8-2.6,16-4,2.7-.5,3.8-.6,5,0,2.7,1.3,2.5,4.4,6,8,.5.5,2.1,2.1,4,3,5.7,2.6,12.6-2.1,14-3-2.3-3.2-4.3-7-3-9,.8-1.3,2.3-.7,4-2,3.2-2.5,2.9-8.4,2-12-1.1-4.4-2.8-4-5-9-3-6.9-.6-9.7-4-16-.8-1.6-3.4-6.3-6-6-3.5.4-3.8,9.7-7,10-2.3.2-3-4.2-8-9-.4-.4-8.8-8.4-14-6Z"/>
    <path class="st4" d="M617.5,192.9c-2.5,0-3.1-3.8-6-6-4.7-3.5-14.5-2.1-20,4-5.3,5.8-4.3,13.3-4,15,.8,4.6,3.6,11.3,9,13,3.7,1.2,7.2-.6,8,1,.6,1.1-.9,2.6-2,5-2.1,4.5-1.7,9.4-1,12,1.4,5.4,6,10.2,12,12,5.9,1.7,12.6.3,17-4,5.1-5,5-11.8,5-14s0-7.5-2.4-9.8c-.2-.2-.8-.8-.6-1.2.3-.8,3.1,0,5,0,5.3,0,9.3-6,10-7,4.2-6.3,4.5-16.9-2-23-7.2-6.6-19.4-4.8-24,0-1.1,1.2-2.2,3-4,3Z"/>
    <path class="st6" d="M288.5,186.7c1.6.9.2,4.7,0,21v7h21v-28c14.4,4.9,23.4,18.8,22,33-1.6,16.7-17.2,28.6-33,28-19.6-.7-32.6-20.4-31-36,1.6-15.5,17.6-26.9,21-25Z"/>
    <polygon class="st13" points="111.6 192.9 133.6 216.9 111.6 242.1 172.2 242.1 150 217.5 172.2 192.9 111.6 192.9"/>
    <polygon class="st12" points="220.6 179.9 194.6 217.9 220.6 254.9 245.4 217.4 220.6 179.9"/>
    <path class="st17" d="M380.5,228.9c.9-.4,2.2,3.4,6,6,3.4,2.3,8.1,3.1,12,2,7.9-2.2,12.6-12.4,11-20-1.3-6.5-7.1-10.7-13-15-4.9-3.6-6.5-3.3-10-7-4.7-4.8-5.7-9.2-8-9-2,.2-2.2,3.3-5,7-3.4,4.4-6.7,4.7-12,8-4.2,2.6-11.9,7.3-14,15-1.9,7,.5,17,8,21,5.6,3,12,1.4,15,0,1.1-.5,2.7-1.3,4-3,1.8-2.5,1.5-5,2-5s1.9,4,1,8c-.3,1.4-.9,2.6-2,5-1.6,3.5-2.4,4.3-2,5,.6,1,2.6,0,7,0s6.6.8,7,0c.3-.7-1.2-1.5-3-4-1.7-2.4-2.5-4.6-3-6-1.1-3-2-7.6-1-8Z"/>
    <polygon class="st14" points="914 265.4 882 291.4 882 304.8 907.2 285.1 908 340.4 920 340.4 920 284.4 944.5 302.9 944.5 291.3 914 265.4"/>
    <polygon class="st15" points="1004 298.9 1013 277.9 1001 290.9 999 284.9 996.2 288.4 980 271.9 986 292.9 980 291.3 985.6 298.9 960 292.9 980 303.9 982 308.9 963.3 324.4 986.5 319.5 986.5 333.5 996 319.9 1000.3 317.4 1021 333.5 1006 309.9 1004 298.9"/>
    <polygon class="st5" points="1035.5 284.9 1088.5 337.9 1105.5 319.9 1052.5 266.9 1035.5 284.9"/>
    <polygon class="st18" points="1132 276.4 1125 291.4 1112 302.4 1124 313.4 1132 327.6 1150 322.4 1169.2 327.6 1176 312.4 1186.9 302 1175 291.4 1168.5 276.4 1149.5 280.6 1132 276.4"/>
    <path class="st9" d="M1236.5,282.9h0c-1.1-4.2-1.2-7.6-1-10,.2-2.3.5-3.4,1-8,.8-7,.3-7.7,0-8-2.2-2.3-8.2.4-12,2-4.1,1.8-7.8,3.4-8,6,0,1.1,1.3,3.1,4,7,1.6,2.3,1.7,2.3,2,3,1.1,2.6,1,6.4-1,9-3.1,4-8.4,1.8-11,6-1.2,2-1.1,4.2-1,5,.2,2.8,1.6,3.5,4,8,2.4,4.6,2.7,7,4,7s3.3-1.8,3.7-3.5c0-.2,0-.4.3-.5.7-.4,2.6,1.5,3,2,4.4,4.7,0,22.5,0,32v6h0c.3,1.7.9,3.8,2,4,2.2.4,5.3-6.5,6-8,2.5-5.6,5.6-12.7,4-20-.3-1.4-1-3.7,0-6,.7-1.7,1.8-2.2,4-4,.7-.5,5-4.1,8-9,1.6-2.5,2.8-4.5,2-6-.8-1.6-3-.9-5-3-2.1-2.1-1.7-4.9-3-5-1.1-.1-1.7,2-3,2s-2.3-2.1-3-4v-4Z"/>
    <path class="st3" d="M1328.5,273.9c-1.8-4.2-12.1-5.1-14-2-.8,1.3.4,2.4,1,7,.5,3.9.9,7.4-1,9-2.2,1.8-7.1.8-9-2-.9-1.3-1-2.8-1-5,0-5.6,2-7.3,1-9-1.7-2.8-10.2-2.9-13,1-1.2,1.7-.8,5.1,0,12,.6,5.4,1.3,8.2,0,9-1.2.8-3.5-.7-4-1-2.6-1.7-2.7-3.8-4-4-2-.3-4.8,4-6,8s-2,11.7,2,14c1.7,1,4.2,1,6,0,2.4-1.3,2.8-4.1,4-4s1.8,3.1,2,4c2,10-1.7,14.5,1,18,1.8,2.3,5,2.6,10,3,2.5.2,5.1.4,6-1,.7-1.1-.2-2.2-1-6-.8-3.7-1.3-6.1,0-8,1.2-1.7,3.8-2.7,6-2,2.8.9,3.9,4,4,6,0,1.6-.6,1.9-1,5-.4,2.6-.6,3.9,0,5,1.6,3.1,8.9,3.8,11,1,1.2-1.6,0-3.2-1-9-.7-4.4-1.2-12.2,1-13s2.9,1.1,4,2c2,1.7,2.1,2.9,3,3,1.7.2,4.1-3.4,5-7,1.7-7.2-2.5-15.2-5-15-1.8.1-2.1,4.6-5,5-1,.2-2.3-.2-3-1-1.3-1.4-.3-3.3,0-8,.3-3.8-.3-3.5,0-7,.4-5.4,1.7-6.3,1-8Z"/>
    <polygon class="st12" points="1224.5 204.7 1211.5 195.7 1215.5 210.7 1199.9 210.7 1212.2 219.7 1199.9 228.7 1214.5 230.7 1212.2 243.8 1224.5 236.6 1229.5 250.7 1235.5 236.7 1247.5 243.7 1244.5 229.7 1259.5 229.7 1247.5 220.7 1259.5 211 1244.5 210.7 1248.5 197.7 1236.5 204.7 1229.7 190.3 1224.5 204.7"/>
    <path class="st6" d="M1295.5,188.9c-2.7,1.2-1.9,4-6,7-2.4,1.8-3.2,1.1-6,3-.8.5-6.6,4.3-6,8,.3,1.8,1.8,1.9,5,5,3.1,3,6.1,5.8,6,9,0,1.7-2,4.2-6,9-2.6,3.2-3.6,4.1-4,6-.4,2.3,0,5.2,2,7,2.5,2.4,6.4,1.8,11,1,5.5-.9,8-2.6,16-4,2.7-.5,3.8-.6,5,0,2.7,1.3,2.5,4.4,6,8,.5.5,2.1,2.1,4,3,5.7,2.6,12.6-2.1,14-3-2.3-3.2-4.3-7-3-9,.8-1.3,2.3-.7,4-2,3.2-2.5,2.9-8.4,2-12-1.1-4.4-2.8-4-5-9-3-6.9-.6-9.7-4-16-.8-1.6-3.4-6.3-6-6-3.5.4-3.8,9.7-7,10-2.3.2-3-4.2-8-9-.4-.4-8.8-8.4-14-6Z"/>
    <path class="st7" d="M1059.5,189.7c1.6.9.2,4.7,0,21v7h21v-28c14.4,4.9,23.4,18.8,22,33-1.6,16.7-17.2,28.6-33,28-19.6-.7-32.6-20.4-31-36,1.6-15.5,17.6-26.9,21-25Z"/>
    <polygon class="st17" points="882.6 195.9 904.6 219.9 882.6 245.1 943.2 245.1 921 220.5 943.2 195.9 882.6 195.9"/>
    <polygon class="st16" points="991.6 182.9 965.6 220.9 991.6 257.9 1016.4 220.4 991.6 182.9"/>
    <path class="st13" d="M1151.5,231.9c.9-.4,2.2,3.4,6,6,3.4,2.3,8.1,3.1,12,2,7.9-2.2,12.6-12.4,11-20-1.3-6.5-7.1-10.7-13-15-4.9-3.6-6.5-3.3-10-7-4.7-4.8-5.7-9.2-8-9-2,.2-2.2,3.3-5,7-3.4,4.4-6.7,4.7-12,8-4.2,2.6-11.9,7.3-14,15-1.9,7,.5,17,8,21,5.6,3,12,1.4,15,0,1.1-.5,2.7-1.3,4-3,1.8-2.5,1.5-5,2-5s1.9,4,1,8c-.3,1.4-.9,2.6-2,5-1.6,3.5-2.4,4.3-2,5,.6,1,2.6,0,7,0s6.6.8,7,0c.3-.7-1.2-1.5-3-4-1.7-2.4-2.5-4.6-3-6-1.1-3-2-7.6-1-8Z"/>
    <path class="st0" d="M906,739"/>
    <path class="st2" d="M378.4,428.9c.4-2.5,4.9-2.7,5-5,0-2.4-4.6-5.3-9-5-5.2.4-9.8,5.4-9,8,.7,2.4,5.6,1.2,7,4,2.7,5.2-10.3,17.4-11,18-6,5.6-10.5,7.3-10,10,.4,2.2,3.9,4.3,7,4,9.6-.8,13.4-23.6,16-23,1.5.4,2.5,8.7-1,16-3.1,6.4-7.3,7.3-7,11,.3,3.1,4.2,5.4,12,10,5.1,3,7.7,4.5,10,4,2-.4,3.1-1.7,9-11,6-9.4,6.5-10.5,6-12-1.2-3.7-6.4-2.7-13-8-5.9-4.8-8.8-11.3-8-12,.7-.6,4.8,3.9,14,9,6.2,3.4,8.3,3.6,10,3,3.5-1.2,6.1-5.8,5-8s-7.5.2-17-2c-8.7-2-16.6-7.5-16-11Z"/>
    <path class="st2" d="M460.4,432.9c-1.9-.2-1.8-4.3-5-8-3.1-3.5-8.2-5.5-12-5-10,1.2-18.3,20.6-13,32,2.7,5.8,9.5,10.8,14,14,4.2,3,6.2,3.7,9,7,4.5,5.3,4.9,10,7,10s2.3-4.7,6-10c3.6-5.1,6.6-5.5,12-10,4-3.4,11.4-9.5,13-18,1.9-9.9-4-22.6-12-24-4.4-.8-9.8,1.9-13,5-3.5,3.4-4.1,7.2-6,7Z"/>
    <path class="st2" d="M638.4,476.9c4.6,0,10.7-11.7,10-23-.7-11.5-8.4-24.5-22-29-12.7-4.2-25.1.7-32,7-5.8,5.3-10,13.6-8,16,1,1.2,3.3.5,4,2,.7,1.6-1.8,2.9-2,6-.2,2.8,1.6,5.9,4,7,2.2,1.1,3.5-.2,5,1,1.3,1.1.7,2.4,2,6,.9,2.3,1.4,3.9,3,5,2.1,1.4,4.6,1.1,6,1,2.5-.3,2.5-1,4-1,3.6,0,4.1,4.3,8,5,3,.5,5.9-1.3,7-2,2.3-1.5,2.3-2.5,4-3,2.9-.8,4.7,2,7,2Z"/>
    <polygon class="st2" points="627.4 513.9 617.4 495.9 607.6 513.9 587.9 517.7 600.4 533.9 598.4 555.9 617.4 547.9 636.2 555.9 633.4 534.9 647.4 517.9 627.4 513.9"/>
    <polygon class="st2" points="567.4 516.9 554.4 506.9 520.7 506.9 509.1 516.9 538.2 545.5 567.4 516.9"/>
    <path class="st2" d="M473.4,533.9c.7-3,4.5-4.8,7-6,4.3-2.1,5.9-1,8-3,2.4-2.2,3.4-6.4,2-10-.2-.5-1.7-4.2-5-5-4.5-1-8,4.3-10,3-1.6-1,.4-4.3-1-9-1-3.5-3.9-7.9-7-8-3.9,0-3.8,6.6-10,10-7,3.8-13.8-1.1-17,3-1.9,2.4-1.2,6.2-1,7,.8,4.4,3.9,5.1,4,8,0,3.2-3.7,4-8,9-1.6,1.9-7.6,8.9-6,16,.7,3.2,3.2,7.1,7,8,3,.7,5.6-.8,6-1,3-1.7,2.6-4,6-7,1.8-1.6,3.9-3.4,6-3,2.8.6,2.5,4.4,7,9,1.9,2,3.6,3.7,6,4,5.4.6,12.5-6.7,12-13-.4-5.7-7-7.7-6-12Z"/>
    <polygon class="st2" points="412.4 526.9 420.4 509.9 406.5 509.9 401.4 520.9 366.4 519.9 366.4 507 343.7 526.9 365.4 546.9 366.4 532.9 400.4 532.9 405.4 543.9 420.4 544.3 412.4 526.9"/>
    <polygon class="st1" points="563.9 439.4 539.3 414.9 526.5 427.1 538.6 439.4 512.9 464.4 536.9 488.4 549.9 476.4 538.4 465.2 563.9 439.4"/>
    <path class="st2" d="M245.4,441.9c.8-1.8,3.1-2.9,5-3,3.2-.1,4.5,2.6,6,2,2.1-.8,3.1-7.2,0-10-2.5-2.2-6.7-1.3-9,0-3,1.6-3.1,3.8-5,4-2.6.2-3.9-3.8-7-7-7.1-7.5-21.1-8.6-25-4-1.3,1.5-.7,2.8-3,6-1.6,2.2-2.8,2.9-5,5,0,0-3.4,3.3-6,7-3.5,5.1-4.2,10.2-5,16-.9,6.7-1.4,10.1,0,13,2.9,6,10.4,7.7,16,9,5.9,1.3,17.5,2.4,22-2,.6-.5,2.3-2.4,5-3,1.9-.4,2.7,0,4,0,5-.4,10.1-9.2,10-17,0-3.1-.9-6.5-1-7-1.3-5-3-6.8-2-9Z"/>
    <polygon class="st2" points="107.9 462.7 119.4 474.9 145.4 448.9 170.8 474.9 182.4 463.9 145.2 424.3 107.9 462.7"/>
    <polygon class="st2" points="208.4 515.9 187 515.9 187 551.8 261.4 551.9 261.4 515.9 240.4 515.9 224.2 501 208.4 515.9"/>
    <path class="st2" d="M162.4,508.9h-33c-1.8-4.9-3-8-3-8h0s-2.8-4.1-5-4c-3,.2-4.7,8.5-5,10-.8,3.7-1.6,7.7,0,12,1.6,4.5,4.5,5.7,4,9-.3,1.9-1.4,2.3-3,5-2.8,4.7-3,9.5-3,11s0,8.2,4,12c.5.5,3,2.7,5,2,.9-.3,1.4-1.1,3-5,2.2-5.5,2.1-6.1,3-7,1.4-1.3,3-1.1,9-1,8.5,0,7.3-.3,13,0,2.9,0,6.7.4,11,1,.4,1.7,1.1,4.3,3,7,1.3,1.9,3.7,5.4,6,5,2.4-.4,3.5-4.8,4-7,.5-2.1,1.9-8.3-1-15-1.6-3.7-3.6-5.3-3-8,.4-1.9,1.7-2.3,3-4,3.8-4.7,2.4-11.6,1-19-.8-4.3-1.7-8.5-4-9-1.6-.3-3.4,1.4-4,2-1.2,1.2-1.5,2.3-3,6-.4,1.1-1.1,2.8-2,5h0Z"/>
    <path class="st2" d="M310.4,538.9c-2.8-1.1-.6-8.9-3-22-.6-3.4-2.8-14.8-6-15-4.6-.2-7.7,22.1-14,22-1.7,0-3.8-1.7-8-5-2.5-2-3.4-3.1-5-3-2.3,0-4.4,2.6-5,5s.2,3.7,1,6c1.6,4.2,3.7,6.1,3,7-.6.7-2.1-.6-4,0-2.8.8-4.2,5.5-4,9,0,.7.2,6,3,7,.6.2,1.7.4,9-4,3.9-2.3,4.5-2.9,6-3,2.6,0,3.4,1.5,7,3,4.8,2,6,.3,11,2,5.6,1.9,5.6,4.5,9,5,2.3.3,5.9-.4,15-11,8.1-9.4,14-20,14-20,0,0,.8-3.3,0-4-1.4-1.3-10.3,5-19,13-6.4,5.9-8.2,8.7-10,8Z"/>
    <path class="st2" d="M333.4,450.9c-1.2-1.6-3.5-.9-16,0-7,.5-12.8.8-17,1-4.7-10-9.3-20-14-30-1.1.7-15,9.1-16,26,0,1.4-.9,18.3,13,28,14.5,10.1,30.8,2.6,32,2,13.7-6.6,21.4-22.8,18-27Z"/>
  </g>
  <g id="Layer_81" data-name="Layer_8">
    <polygon class="st10" points="135 767.2 103 793.2 103 806.6 128.2 786.9 129 842.2 141 842.2 141 786.2 165.5 804.7 165.5 793.1 135 767.2"/>
    <polygon class="st10" points="225 800.7 234 779.7 222 792.7 220 786.7 217.2 790.2 201 773.7 207 794.7 201 793.1 206.6 800.7 181 794.7 201 805.7 203 810.7 184.3 826.2 207.5 821.3 207.5 835.3 217 821.7 221.3 819.2 242 835.3 227 811.7 225 800.7"/>
    <polygon class="st10" points="256.5 786.7 309.5 839.7 326.5 821.7 273.5 768.7 256.5 786.7"/>
    <polygon class="st10" points="353 778.2 346 793.2 333 804.2 345 815.2 353 829.4 371 824.2 390.2 829.4 397 814.2 407.9 803.8 396 793.2 389.5 778.2 370.5 782.4 353 778.2"/>
    <path class="st10" d="M457.5,784.7h0c-1.1-4.2-1.2-7.6-1-10,.2-2.3.5-3.4,1-8,.8-7,.3-7.7,0-8-2.2-2.3-8.2.4-12,2-4.1,1.8-7.8,3.4-8,6,0,1.1,1.3,3.1,4,7,1.6,2.3,1.7,2.3,2,3,1.1,2.6,1,6.4-1,9-3.1,4-8.4,1.8-11,6-1.2,2-1.1,4.2-1,5,.2,2.8,1.6,3.5,4,8,2.4,4.6,2.7,7,4,7s3.3-1.8,3.7-3.5c0-.2,0-.4.3-.5.7-.4,2.6,1.5,3,2,4.4,4.7,0,22.5,0,32v6h0c.3,1.7.9,3.8,2,4,2.2.4,5.3-6.5,6-8,2.5-5.6,5.6-12.7,4-20-.3-1.4-1-3.7,0-6,.7-1.7,1.8-2.2,4-4,.7-.5,5-4.1,8-9,1.6-2.5,2.8-4.5,2-6-.8-1.6-3-.9-5-3-2.1-2.1-1.7-4.9-3-5-1.1-.1-1.7,2-3,2s-2.3-2.1-3-4v-4Z"/>
    <path class="st10" d="M549.5,775.7c-1.8-4.2-12.1-5.1-14-2-.8,1.3.4,2.4,1,7,.5,3.9.9,7.4-1,9-2.2,1.8-7.1.8-9-2-.9-1.3-1-2.8-1-5,0-5.6,2-7.3,1-9-1.7-2.8-10.2-2.9-13,1-1.2,1.7-.8,5.1,0,12,.6,5.4,1.3,8.2,0,9-1.2.8-3.5-.7-4-1-2.6-1.7-2.7-3.8-4-4-2-.3-4.8,4-6,8s-2,11.7,2,14c1.7,1,4.2,1,6,0,2.4-1.3,2.8-4.1,4-4s1.8,3.1,2,4c2,10-1.7,14.5,1,18,1.8,2.3,5,2.6,10,3,2.5.2,5.1.4,6-1,.7-1.1-.2-2.2-1-6-.8-3.7-1.3-6.1,0-8,1.2-1.7,3.8-2.7,6-2,2.8.9,3.9,4,4,6,0,1.6-.6,1.9-1,5-.4,2.6-.6,3.9,0,5,1.6,3.1,8.9,3.8,11,1,1.2-1.6,0-3.2-1-9-.7-4.4-1.2-12.2,1-13,1.1-.4,2.9,1.1,4,2,2,1.7,2.1,2.9,3,3,1.7.2,4.1-3.4,5-7,1.7-7.2-2.5-15.2-5-15-1.8.1-2.1,4.6-5,5-1,.2-2.3-.2-3-1-1.3-1.4-.3-3.3,0-8,.3-3.8-.3-3.5,0-7,.4-5.4,1.7-6.3,1-8Z"/>
    <path class="st10" d="M571.5,805.7c-2.9,3.1,1.7,13.5,8,20,7.5,7.7,16.8,9.3,21,10s15,1.8,26-4c9.4-4.9,17.8-14.2,16-18-.6-1.2-3.1-1.8-8-3-7.1-1.7-7.9-.9-10-2-3.7-2-4.2-6.1-7-18-4-17.1-5.2-17.9-6-18-4.6-.7-12.2,19-13,21-3.2,8.4-3,11-6,13-7.2,4.7-17.6-4.6-21-1Z"/>
    <polygon class="st10" points="445.5 706.5 432.5 697.5 436.5 712.5 420.9 712.5 433.2 721.5 420.9 730.5 435.5 732.5 433.2 745.6 445.5 738.4 450.5 752.5 456.5 738.5 468.5 745.5 465.5 731.5 480.5 731.5 468.5 722.5 480.5 712.8 465.5 712.5 469.5 699.5 457.5 706.5 450.7 692.1 445.5 706.5"/>
    <path class="st10" d="M516.5,690.7c-2.7,1.2-1.9,4-6,7-2.4,1.8-3.2,1.1-6,3-.8.5-6.6,4.3-6,8,.3,1.8,1.8,1.9,5,5,3.1,3,6.1,5.8,6,9,0,1.7-2,4.2-6,9-2.6,3.2-3.6,4.1-4,6-.4,2.3.1,5.2,2,7,2.5,2.4,6.4,1.8,11,1,5.5-.9,8-2.6,16-4,2.7-.5,3.8-.6,5,0,2.7,1.3,2.5,4.4,6,8,.5.5,2.1,2.1,4,3,5.7,2.6,12.6-2.1,14-3-2.3-3.2-4.3-7-3-9,.8-1.3,2.3-.7,4-2,3.2-2.5,2.9-8.4,2-12-1.1-4.4-2.8-4-5-9-3-6.9-.6-9.7-4-16-.8-1.6-3.4-6.3-6-6-3.5.4-3.8,9.7-7,10-2.3.2-3-4.2-8-9-.4-.4-8.8-8.4-14-6Z"/>
    <path class="st10" d="M609.5,697.7c-2.5,0-3.1-3.8-6-6-4.7-3.5-14.5-2.1-20,4-5.3,5.8-4.3,13.3-4,15,.8,4.6,3.6,11.3,9,13,3.7,1.2,7.2-.6,8,1,.6,1.1-.9,2.6-2,5-2.1,4.5-1.7,9.4-1,12,1.4,5.4,6,10.2,12,12,5.9,1.7,12.6.3,17-4,5.1-5,5-11.8,5-14s0-7.5-2.4-9.8c-.2-.2-.8-.8-.6-1.2.3-.8,3.1,0,5,0,5.3,0,9.3-6,10-7,4.2-6.3,4.5-16.9-2-23-7.2-6.6-19.4-4.8-24,0-1.1,1.2-2.2,3-4,3Z"/>
    <path class="st10" d="M280.5,691.5c1.6.9.2,4.7,0,21v7h21v-28c14.4,4.9,23.4,18.8,22,33-1.6,16.7-17.2,28.6-33,28-19.6-.7-32.6-20.4-31-36,1.6-15.5,17.6-26.9,21-25Z"/>
    <polygon class="st10" points="103.6 697.7 125.6 721.7 103.6 746.9 164.2 746.9 142 722.3 164.2 697.7 103.6 697.7"/>
    <polygon class="st10" points="212.6 684.7 186.6 722.7 212.6 759.7 237.4 722.2 212.6 684.7"/>
    <path class="st10" d="M372.5,733.7c.9-.4,2.2,3.4,6,6,3.4,2.3,8.1,3.1,12,2,7.9-2.2,12.6-12.4,11-20-1.3-6.5-7.1-10.7-13-15-4.9-3.6-6.5-3.3-10-7-4.7-4.8-5.7-9.2-8-9-2,.2-2.2,3.3-5,7-3.4,4.4-6.7,4.7-12,8-4.2,2.6-11.9,7.3-14,15-1.9,7,.5,17,8,21,5.6,3,12,1.4,15,0,1.1-.5,2.7-1.3,4-3,1.8-2.5,1.5-5,2-5s1.9,4,1,8c-.3,1.4-.9,2.6-2,5-1.6,3.5-2.4,4.3-2,5,.6,1,2.6,0,7,0s6.6.8,7,0c.3-.7-1.2-1.5-3-4-1.7-2.4-2.5-4.6-3-6-1.1-3-2-7.6-1-8Z"/>
    <path class="st0" d="M898,1243.8"/>
  </g>
</svg>